<svg width="36" height="36" viewBox="0 0 36 36" fill="none" xmlns="http://www.w3.org/2000/svg">
<path d="M20.6603 18.7754C20.9386 18.7754 21.1871 18.697 21.4058 18.5401C21.6244 18.3832 21.7984 18.1622 21.9276 17.877C22.0618 17.5918 22.1338 17.2602 22.1438 16.8824H24C23.9901 17.6667 23.836 18.369 23.5378 18.9893C23.2396 19.6096 22.842 20.1016 22.345 20.4652C21.853 20.8217 21.3014 21 20.6901 21C20.0689 21 19.5272 20.8503 19.065 20.5508C18.6028 20.2513 18.2176 19.8342 17.9095 19.2995C17.6063 18.7647 17.3777 18.1444 17.2236 17.4385C17.0745 16.7326 17 15.9768 17 15.1711V14.8289C17 14.0232 17.0745 13.2674 17.2236 12.5615C17.3777 11.8556 17.6063 11.2353 17.9095 10.7005C18.2176 10.1658 18.6028 9.74866 19.065 9.4492C19.5272 9.14973 20.0664 9 20.6826 9C21.3337 9 21.9052 9.18182 22.3972 9.54545C22.8942 9.90909 23.2819 10.4225 23.5602 11.0856C23.8435 11.7487 23.9901 12.5294 24 13.4278H22.1438C22.1338 13.0143 22.0692 12.6435 21.9499 12.3155C21.8307 11.9875 21.6617 11.7237 21.443 11.5241C21.2244 11.3244 20.9585 11.2246 20.6454 11.2246C20.3124 11.2246 20.0341 11.3244 19.8104 11.5241C19.5918 11.7237 19.4203 11.9982 19.2961 12.3476C19.1768 12.6898 19.0923 13.0749 19.0426 13.5027C18.9979 13.9234 18.9755 14.3654 18.9755 14.8289V15.1711C18.9755 15.6417 18.9979 16.0909 19.0426 16.5187C19.0923 16.9465 19.1768 17.3316 19.2961 17.6738C19.4203 18.0089 19.5918 18.2763 19.8104 18.4759C20.0341 18.6756 20.3174 18.7754 20.6603 18.7754Z" fill="#40607F"/>
<path d="M9.87361 5.73214L5.24535 21H2L8.06691 3H10.1413L9.87361 5.73214ZM13.7435 21L9.09294 5.73214L8.81413 3H10.8996L17 21H13.7435ZM13.5316 14.3118V16.9945H4.82156V14.3118H13.5316Z" fill="#40607F"/>
<path d="M34 7V21H31.8769L27.1154 11.2885V21H25V7H27.1154L31.8923 16.7212V7H34Z" fill="#40607F" fill-opacity="0.5"/>
<path d="M6.44251 31.0838L8.63182 23H9.81707L9.89257 24.7033L7.55226 33H6.29907L6.44251 31.0838ZM5.06098 23L6.85772 31.0563V33H5.49129L3 23H5.06098ZM12.1649 31.022L13.9315 23H16L13.5087 33H12.1423L12.1649 31.022ZM10.3833 23L12.5726 31.1113L12.7009 33H11.4477L9.11498 24.6964L9.20557 23H10.3833Z" fill="#40607F" fill-opacity="0.5"/>
<path d="M21.3392 31.554V24H23V32.8843H21.5016L21.3392 31.554ZM17 29.8303V29.7089C17 29.2307 17.0583 28.7969 17.1748 28.4075C17.2955 28.0141 17.4703 27.6767 17.6993 27.3952C17.9282 27.1138 18.205 26.8959 18.5297 26.7416C18.8585 26.5874 19.231 26.5103 19.6472 26.5103C20.051 26.5103 20.4027 26.5855 20.7024 26.7359C21.0062 26.8862 21.2643 27.1003 21.4766 27.3779C21.693 27.6555 21.8658 27.9852 21.9948 28.367C22.1238 28.7449 22.2175 29.1613 22.2758 29.6163V29.946C22.2175 30.3895 22.1238 30.7963 21.9948 31.1665C21.8658 31.5366 21.693 31.8605 21.4766 32.1382C21.2643 32.412 21.0062 32.624 20.7024 32.7744C20.3985 32.9248 20.0427 33 19.6348 33C19.2227 33 18.8522 32.921 18.5234 32.7629C18.1988 32.6048 17.922 32.383 17.693 32.0977C17.4683 31.8123 17.2955 31.4769 17.1748 31.0913C17.0583 30.7057 17 30.2853 17 29.8303ZM18.6545 29.7089V29.8303C18.6545 30.1003 18.6795 30.3528 18.7294 30.588C18.7794 30.8233 18.8606 31.0315 18.9729 31.2127C19.0853 31.3901 19.2289 31.5289 19.4037 31.6292C19.5827 31.7294 19.7992 31.7796 20.0531 31.7796C20.3777 31.7796 20.6441 31.714 20.8522 31.5829C21.0645 31.4479 21.2289 31.2648 21.3455 31.0334C21.462 30.7982 21.5369 30.5341 21.5702 30.241V29.3329C21.5536 29.1015 21.5099 28.8875 21.4391 28.6909C21.3725 28.4942 21.2768 28.3246 21.1519 28.1819C21.0312 28.0392 20.8814 27.9274 20.7024 27.8464C20.5234 27.7654 20.3111 27.7249 20.0656 27.7249C19.8117 27.7249 19.5952 27.777 19.4162 27.8811C19.2373 27.9814 19.0916 28.1221 18.9792 28.3033C18.8668 28.4846 18.7836 28.6947 18.7294 28.9338C18.6795 29.1729 18.6545 29.4312 18.6545 29.7089Z" fill="#40607F" fill-opacity="0.7"/>
<path d="M28.9545 33H26.1L26.1182 31.3681H28.9545C29.7242 31.3681 30.3697 31.2271 30.8909 30.9451C31.4121 30.658 31.8061 30.2475 32.0727 29.7136C32.3394 29.1747 32.4727 28.53 32.4727 27.7795V27.2129C32.4727 26.6337 32.397 26.1225 32.2455 25.6793C32.0939 25.236 31.8697 24.8633 31.5727 24.5611C31.2818 24.2589 30.9212 24.0298 30.4909 23.8736C30.0606 23.7175 29.5667 23.6394 29.0091 23.6394H26.0455V22H29.0091C29.8939 22 30.7 22.1234 31.4273 22.3702C32.1606 22.617 32.7939 22.9721 33.3273 23.4354C33.8667 23.8938 34.2788 24.4428 34.5636 25.0824C34.8545 25.7221 35 26.4373 35 27.228V27.7795C35 28.5652 34.8545 29.2804 34.5636 29.9251C34.2788 30.5648 33.8667 31.1138 33.3273 31.5721C32.7939 32.0304 32.1576 32.383 31.4182 32.6298C30.6788 32.8766 29.8576 33 28.9545 33ZM27.5 22V33H25V22H27.5Z" fill="#40607F"/>
</svg>
