<svg width="36" height="36" viewBox="0 0 36 36" fill="none" xmlns="http://www.w3.org/2000/svg">
<path d="M30 7.5C30 6.94772 29.5523 6.5 29 6.5H15C14.4477 6.5 14 6.94772 14 7.5V7.5C14 8.05228 14.4477 8.5 15 8.5H29C29.5523 8.5 30 8.05228 30 7.5V7.5Z" fill="#B3BFCC"/>
<path d="M30 14.5C30 13.9477 29.5523 13.5 29 13.5H15C14.4477 13.5 14 13.9477 14 14.5V14.5C14 15.0523 14.4477 15.5 15 15.5H29C29.5523 15.5 30 15.0523 30 14.5V14.5Z" fill="#B3BFCC"/>
<path d="M30 21.5C30 20.9477 29.5523 20.5 29 20.5H15C14.4477 20.5 14 20.9477 14 21.5V21.5C14 22.0523 14.4477 22.5 15 22.5H29C29.5523 22.5 30 22.0523 30 21.5V21.5Z" fill="#B3BFCC"/>
<path d="M30 28.5C30 27.9477 29.5523 27.5 29 27.5H15C14.4477 27.5 14 27.9477 14 28.5V28.5C14 29.0523 14.4477 29.5 15 29.5H29C29.5523 29.5 30 29.0523 30 28.5V28.5Z" fill="#B3BFCC"/>
<circle cx="8" cy="7.5" r="3" fill="#40607F"/>
<circle cx="8" cy="14.5" r="1.5" fill="#7990A5"/>
<circle cx="8" cy="28.5" r="2" fill="#7990A5"/>
<circle cx="8" cy="21.5" r="2" fill="#40607F"/>
</svg>
