<svg width="36" height="36" viewBox="0 0 36 36" fill="none" xmlns="http://www.w3.org/2000/svg">
<path d="M16.6145 18.5169C16.8133 18.5169 16.9908 18.4646 17.147 18.3601C17.3032 18.2555 17.4274 18.1081 17.5197 17.918C17.6155 17.7279 17.667 17.5068 17.6741 17.2549H19C18.9929 17.7778 18.8829 18.246 18.6699 18.6595C18.4569 19.0731 18.1729 19.4011 17.8179 19.6435C17.4665 19.8812 17.0724 20 16.6358 20C16.192 20 15.8051 19.9002 15.475 19.7005C15.1448 19.5009 14.8697 19.2228 14.6496 18.8663C14.4331 18.5098 14.2698 18.0963 14.1597 17.6257C14.0532 17.1551 14 16.6512 14 16.1141V15.8859C14 15.3488 14.0532 14.8449 14.1597 14.3743C14.2698 13.9037 14.4331 13.4902 14.6496 13.1337C14.8697 12.7772 15.1448 12.4991 15.475 12.2995C15.8051 12.0998 16.1903 12 16.6305 12C17.0955 12 17.5037 12.1212 17.8552 12.3636C18.2102 12.6061 18.487 12.9483 18.6858 13.3904C18.8882 13.8324 18.9929 14.3529 19 14.9519H17.6741C17.667 14.6762 17.6209 14.429 17.5357 14.2103C17.4505 13.9917 17.3298 13.8158 17.1736 13.6827C17.0174 13.5496 16.8275 13.4831 16.6038 13.4831C16.366 13.4831 16.1672 13.5496 16.0075 13.6827C15.8513 13.8158 15.7288 13.9988 15.64 14.2317C15.5548 14.4599 15.4945 14.7166 15.459 15.0018C15.4271 15.2822 15.4111 15.5769 15.4111 15.8859V16.1141C15.4111 16.4278 15.4271 16.7273 15.459 17.0125C15.4945 17.2977 15.5548 17.5544 15.64 17.7825C15.7288 18.0059 15.8513 18.1842 16.0075 18.3173C16.1672 18.4504 16.3695 18.5169 16.6145 18.5169Z" fill="#48A7F3"/>
<path d="M23.3738 18.2175V14.6595C23.3738 14.3981 23.3404 14.1723 23.2735 13.9822C23.2066 13.792 23.1045 13.6447 22.9673 13.5401C22.83 13.4355 22.6558 13.3832 22.4446 13.3832C22.258 13.3832 22.0943 13.426 21.9535 13.5116C21.8163 13.5971 21.7107 13.7184 21.6367 13.8752C21.5628 14.0273 21.5259 14.2032 21.5259 14.4029H20.1267C20.1267 14.0844 20.183 13.7825 20.2957 13.4973C20.4083 13.2074 20.5685 12.9507 20.7761 12.7273C20.9873 12.4991 21.239 12.3209 21.5312 12.1925C21.8268 12.0642 22.1577 12 22.5238 12C22.9567 12 23.3421 12.0998 23.68 12.2995C24.0215 12.4944 24.289 12.7891 24.4826 13.1836C24.6797 13.5781 24.7782 14.0749 24.7782 14.6738V18.0392C24.7782 18.4242 24.7958 18.7546 24.831 19.0303C24.8698 19.3012 24.9261 19.5365 25 19.7362V19.8574H23.5797C23.5128 19.6625 23.4618 19.4153 23.4266 19.1159C23.3914 18.8116 23.3738 18.5122 23.3738 18.2175ZM23.5692 15.1586L23.5797 16.2781H22.698C22.4798 16.2781 22.2879 16.309 22.1225 16.3708C21.9571 16.4278 21.8215 16.5134 21.7159 16.6275C21.6103 16.7368 21.5312 16.8699 21.4784 17.0267C21.4256 17.1788 21.3992 17.3523 21.3992 17.5472C21.3992 17.7374 21.4308 17.9085 21.4942 18.0606C21.5611 18.2127 21.6561 18.3339 21.7793 18.4242C21.906 18.5098 22.0539 18.5526 22.2228 18.5526C22.4692 18.5526 22.6839 18.486 22.8669 18.3529C23.05 18.2151 23.1925 18.0487 23.2946 17.8538C23.3967 17.6589 23.4512 17.4736 23.4583 17.2977L23.8596 18.1105C23.8103 18.3054 23.7364 18.5122 23.6378 18.7308C23.5392 18.9495 23.4125 19.1539 23.2577 19.344C23.1028 19.5342 22.9162 19.691 22.698 19.8146C22.4798 19.9382 22.2263 20 21.9377 20C21.5681 20 21.2372 19.9002 20.9451 19.7005C20.6529 19.5009 20.4224 19.2276 20.2534 18.8806C20.0845 18.5336 20 18.139 20 17.697C20 17.2882 20.0563 16.9269 20.169 16.6132C20.2816 16.2995 20.4488 16.0357 20.6705 15.8217C20.8923 15.6031 21.1668 15.4391 21.4942 15.3298C21.8251 15.2157 22.2034 15.1586 22.6294 15.1586H23.5692Z" fill="#48A7F3"/>
<path d="M9.24907 7.27679L6.16357 20H4L8.04461 5H9.42751L9.24907 7.27679ZM11.829 20L8.72862 7.27679L8.54275 5H9.93309L14 20H11.829ZM11.6877 14.4265V16.6621H5.88104V14.4265H11.6877Z" fill="#48A7F3"/>
<path d="M32 5V14H30.5846L27.4103 7.75687V14H26V5H27.4103L30.5949 11.2493V5H32Z" fill="#A2AEBA"/>
<path d="M30.0653 18.6692L31.9657 19.5583L31.1037 20L29.2327 19.1166L30.0653 18.6692ZM32 17.0525V17.2691C32 17.5866 31.9282 17.8724 31.7845 18.1264C31.6408 18.3786 31.4351 18.5931 31.1673 18.7702C30.9029 18.9473 30.5878 19.0829 30.222 19.1773C29.8563 19.2716 29.4514 19.3187 29.0073 19.3187C28.5665 19.3187 28.1616 19.2716 27.7927 19.1773C27.4269 19.0829 27.1102 18.9473 26.8424 18.7702C26.5747 18.5931 26.3673 18.3786 26.2204 18.1264C26.0735 17.8724 26 17.5866 26 17.2691V17.0525C26 16.7331 26.0718 16.4473 26.2155 16.1952C26.3624 15.943 26.5682 15.7284 26.8327 15.5514C27.1004 15.3724 27.4171 15.2358 27.7829 15.1415C28.1518 15.0472 28.5567 15 28.9976 15C29.4416 15 29.8465 15.0472 30.2122 15.1415C30.5812 15.2358 30.898 15.3724 31.1624 15.5514C31.4302 15.7284 31.6359 15.943 31.7796 16.1952C31.9265 16.4473 32 16.7331 32 17.0525ZM30.6384 17.2691V17.0468C30.6384 16.8177 30.6024 16.6166 30.5306 16.4434C30.4588 16.2683 30.351 16.1211 30.2073 16.0017C30.0669 15.8824 29.8955 15.7929 29.6931 15.7333C29.4906 15.6717 29.2588 15.6409 28.9976 15.6409C28.7396 15.6409 28.5094 15.6717 28.3069 15.7333C28.1045 15.7929 27.9331 15.8824 27.7927 16.0017C27.6522 16.1211 27.5445 16.2683 27.4694 16.4434C27.3976 16.6166 27.3616 16.8177 27.3616 17.0468V17.2691C27.3616 17.4962 27.3976 17.6973 27.4694 17.8724C27.5445 18.0475 27.6522 18.1957 27.7927 18.317C27.9363 18.4363 28.1094 18.5268 28.3118 18.5883C28.5176 18.6499 28.7494 18.6807 29.0073 18.6807C29.2686 18.6807 29.5004 18.6499 29.7029 18.5883C29.9053 18.5268 30.0751 18.4363 30.2122 18.317C30.3527 18.1957 30.4588 18.0475 30.5306 17.8724C30.6024 17.6973 30.6384 17.4962 30.6384 17.2691Z" fill="#50C587" stroke="#50C587" stroke-width="0.5"/>
<path d="M5.85366 26.6587L7.03252 21H7.67073L7.71138 22.1923L6.45122 28H5.77642L5.85366 26.6587ZM5.10976 21L6.07724 26.6394V28H5.34146L4 21H5.10976ZM8.93496 26.6154L9.88618 21H11L9.65854 28H8.92276L8.93496 26.6154ZM7.97561 21L9.15447 26.6779L9.22358 28H8.54878L7.29268 22.1875L7.34146 21H7.97561Z" fill="#A2AEBA"/>
<path d="M26.8098 22V28H26V22H26.8098ZM28.8896 23.7762L27.4448 25.8412L26.6626 26.8523L26.4049 26.052L27.0092 25.0839L27.911 23.7762H28.8896ZM28.0613 28L27.0337 26.0325L27.5736 25.365L29 28H28.0613Z" fill="#A2AEBA"/>
<path d="M16.616 27.036V22H18V27.9229H16.7513L16.616 27.036ZM13 25.8869V25.8059C13 25.4871 13.0486 25.1979 13.1457 24.9383C13.2463 24.6761 13.392 24.4512 13.5827 24.2635C13.7735 24.0758 14.0042 23.9306 14.2747 23.8278C14.5487 23.7249 14.8592 23.6735 15.206 23.6735C15.5425 23.6735 15.8356 23.7237 16.0853 23.8239C16.3385 23.9242 16.5536 24.0668 16.7305 24.2519C16.9109 24.437 17.0548 24.6568 17.1623 24.9113C17.2699 25.1632 17.3479 25.4409 17.3965 25.7442V25.964C17.3479 26.2596 17.2699 26.5308 17.1623 26.7776C17.0548 27.0244 16.9109 27.2404 16.7305 27.4255C16.5536 27.608 16.3385 27.7494 16.0853 27.8496C15.8321 27.9499 15.5356 28 15.1956 28C14.8522 28 14.5435 27.9473 14.2695 27.8419C13.999 27.7365 13.7683 27.5887 13.5775 27.3985C13.3902 27.2082 13.2463 26.9846 13.1457 26.7275C13.0486 26.4704 13 26.1902 13 25.8869ZM14.3788 25.8059V25.8869C14.3788 26.0668 14.3996 26.2352 14.4412 26.392C14.4828 26.5488 14.5505 26.6877 14.6441 26.8085C14.7378 26.9267 14.8574 27.0193 15.0031 27.0861C15.1523 27.153 15.3326 27.1864 15.5442 27.1864C15.8148 27.1864 16.0368 27.1427 16.2102 27.0553C16.3871 26.9653 16.5241 26.8432 16.6212 26.6889C16.7183 26.5321 16.7808 26.356 16.8085 26.1607V25.5553C16.7947 25.401 16.7582 25.2584 16.6993 25.1272C16.6438 24.9961 16.564 24.883 16.4599 24.7879C16.3593 24.6928 16.2345 24.6183 16.0853 24.5643C15.9362 24.5103 15.7593 24.4833 15.5546 24.4833C15.343 24.4833 15.1627 24.518 15.0135 24.5874C14.8644 24.6542 14.743 24.7481 14.6493 24.8689C14.5557 24.9897 14.4863 25.1298 14.4412 25.2892C14.3996 25.4486 14.3788 25.6208 14.3788 25.8059Z" fill="#50C587"/>
<path d="M21.3727 28H19.66L19.6709 26.9615H21.3727C21.8345 26.9615 22.2218 26.8718 22.5345 26.6923C22.8473 26.5096 23.0836 26.2484 23.2436 25.9087C23.4036 25.5657 23.4836 25.1554 23.4836 24.6779V24.3173C23.4836 23.9487 23.4382 23.6234 23.3473 23.3413C23.2564 23.0593 23.1218 22.8221 22.9436 22.6298C22.7691 22.4375 22.5527 22.2917 22.2945 22.1923C22.0364 22.0929 21.74 22.0433 21.4055 22.0433H19.6273V21H21.4055C21.9364 21 22.42 21.0785 22.8564 21.2356C23.2964 21.3926 23.6764 21.6186 23.9964 21.9135C24.32 22.2051 24.5673 22.5545 24.7382 22.9615C24.9127 23.3686 25 23.8237 25 24.3269V24.6779C25 25.1779 24.9127 25.633 24.7382 26.0433C24.5673 26.4503 24.32 26.7997 23.9964 27.0913C23.6764 27.383 23.2945 27.6074 22.8509 27.7644C22.4073 27.9215 21.9145 28 21.3727 28ZM20.5 21V28H19V21H20.5Z" fill="#48A7F3"/>
<path d="M13.3151 23.1337C13.3151 23.0838 13.3018 23.041 13.2752 23.0053C13.25 22.9679 13.2052 22.934 13.1408 22.9037C13.0763 22.8717 12.986 22.8396 12.8697 22.8075C12.7591 22.7772 12.6548 22.7371 12.5567 22.6872C12.4601 22.6373 12.3754 22.5766 12.3025 22.5053C12.2297 22.434 12.1723 22.3494 12.1303 22.2513C12.0896 22.1533 12.0693 22.041 12.0693 21.9144C12.0693 21.7914 12.0896 21.6756 12.1303 21.5668C12.1723 21.4563 12.2332 21.3592 12.313 21.2754C12.3943 21.1898 12.493 21.123 12.6092 21.0749C12.7255 21.025 12.8578 21 13.0063 21C13.2108 21 13.3873 21.0401 13.5357 21.1203C13.6842 21.1988 13.7983 21.3093 13.8782 21.4519C13.9594 21.5927 14 21.7558 14 21.9412H13.292C13.292 21.8681 13.2822 21.8057 13.2626 21.754C13.2444 21.7023 13.2143 21.6631 13.1723 21.6364C13.1303 21.6078 13.0742 21.5936 13.0042 21.5936C12.9552 21.5936 12.9104 21.6052 12.8697 21.6283C12.8305 21.6515 12.799 21.6836 12.7752 21.7246C12.7514 21.7656 12.7395 21.8137 12.7395 21.869C12.7395 21.9082 12.7465 21.9439 12.7605 21.9759C12.7759 22.0062 12.799 22.0348 12.8298 22.0615C12.8606 22.0865 12.8999 22.1096 12.9475 22.131C12.9951 22.1506 13.0525 22.1684 13.1197 22.1845C13.2724 22.2201 13.4153 22.2709 13.5483 22.3369C13.6814 22.4029 13.7892 22.4964 13.8718 22.6176C13.9559 22.7389 13.9979 22.902 13.9979 23.107C13.9979 23.2353 13.9748 23.3538 13.9286 23.4626C13.8824 23.5695 13.8158 23.664 13.729 23.746C13.6422 23.8262 13.5378 23.8886 13.416 23.9332C13.2941 23.9777 13.1569 24 13.0042 24C12.7871 24 12.6036 23.951 12.4538 23.8529C12.3039 23.7531 12.1905 23.6283 12.1134 23.4786C12.0378 23.3271 12 23.1738 12 23.0187H12.6597C12.6625 23.1078 12.6793 23.1809 12.7101 23.238C12.7423 23.295 12.785 23.3369 12.8382 23.3636C12.8915 23.3904 12.9531 23.4037 13.0231 23.4037C13.0875 23.4037 13.1408 23.3922 13.1828 23.369C13.2262 23.3458 13.2591 23.3146 13.2815 23.2754C13.3039 23.2344 13.3151 23.1872 13.3151 23.1337Z" fill="#A2AEBA"/>
<path d="M31.0259 23.0454V26H30V22.0726H30.9589L31.0259 23.0454ZM32 22.0436L31.9817 23.1797C31.9411 23.1748 31.8864 23.1688 31.8174 23.1615C31.7484 23.1543 31.6905 23.1506 31.6438 23.1506C31.5241 23.1506 31.4206 23.1676 31.3333 23.2015C31.2481 23.2329 31.1771 23.2813 31.1202 23.3466C31.0654 23.4096 31.0249 23.4894 30.9985 23.5862C30.9741 23.683 30.963 23.7955 30.965 23.9238L30.7793 23.7786C30.7793 23.5148 30.8006 23.2753 30.8432 23.0599C30.8879 22.8421 30.9508 22.6546 31.032 22.4973C31.1131 22.3376 31.2116 22.2154 31.3272 22.1307C31.4429 22.0436 31.5728 22 31.7169 22C31.7676 22 31.8174 22.0036 31.8661 22.0109C31.9168 22.0181 31.9614 22.029 32 22.0436Z" fill="#A2AEBA"/>
</svg>
