<svg width="36" height="36" viewBox="0 0 36 36" fill="none" xmlns="http://www.w3.org/2000/svg">
<path d="M6.5 30L6.5 6L29.5 6L29.5 30L6.5 30ZM7.5 7L7.5 29L28.5 29L28.5 7L7.5 7Z" fill="#CAD6E2"/>
<path d="M26 10C26 9.72386 25.7761 9.5 25.5 9.5H15.5C15.2239 9.5 15 9.72386 15 10V10C15 10.2761 15.2239 10.5 15.5 10.5H25.5C25.7761 10.5 26 10.2761 26 10V10Z" fill="#CAD6E2"/>
<path d="M26 14C26 13.7239 25.7761 13.5 25.5 13.5H15.5C15.2239 13.5 15 13.7239 15 14V14C15 14.2761 15.2239 14.5 15.5 14.5H25.5C25.7761 14.5 26 14.2761 26 14V14Z" fill="#CAD6E2"/>
<path d="M26 18C26 17.7239 25.7761 17.5 25.5 17.5H15.5C15.2239 17.5 15 17.7239 15 18V18C15 18.2761 15.2239 18.5 15.5 18.5H25.5C25.7761 18.5 26 18.2761 26 18V18Z" fill="#CAD6E2"/>
<path d="M26 22C26 21.7239 25.7761 21.5 25.5 21.5H15.5C15.2239 21.5 15 21.7239 15 22V22C15 22.2761 15.2239 22.5 15.5 22.5H25.5C25.7761 22.5 26 22.2761 26 22V22Z" fill="#CAD6E2"/>
<path d="M26 26C26 25.7239 25.7761 25.5 25.5 25.5H15.5C15.2239 25.5 15 25.7239 15 26V26C15 26.2761 15.2239 26.5 15.5 26.5H25.5C25.7761 26.5 26 26.2761 26 26V26Z" fill="#CAD6E2"/>
<circle cx="11" cy="10" r="1.5" fill="#50C587"/>
<circle cx="11" cy="14" r="1" fill="#50C587" fill-opacity="0.5"/>
<circle cx="11" cy="22" r="1" fill="#50C587" fill-opacity="0.5"/>
<circle cx="11" cy="26" r="1" fill="#50C587" fill-opacity="0.5"/>
<circle cx="11" cy="18" r="1.5" fill="#50C587"/>
</svg>
