<svg width="36" height="36" viewBox="0 0 36 36" fill="none" xmlns="http://www.w3.org/2000/svg">
<path d="M31 30H5V6H31V30ZM6 29H30V7H6V29Z" fill="#CAD6E2"/>
<circle cx="9.5" cy="10.5" r="1.5" fill="#50C587"/>
<circle cx="15" cy="10.5" r="1" fill="#50C587" fill-opacity="0.5"/>
<circle cx="9.5" cy="15.5" r="1" fill="#50C587" fill-opacity="0.5"/>
<circle cx="9.5" cy="20.5" r="1" fill="#50C587" fill-opacity="0.5"/>
<circle cx="15" cy="15.5" r="1" fill="#50C587" fill-opacity="0.5"/>
<circle cx="20.5" cy="15.5" r="1" fill="#50C587" fill-opacity="0.5"/>
<circle cx="20.5" cy="20.5" r="1" fill="#50C587" fill-opacity="0.5"/>
<circle cx="26" cy="20.5" r="1" fill="#50C587" fill-opacity="0.5"/>
<circle cx="20.5" cy="10.5" r="1.5" fill="#50C587"/>
<circle cx="26" cy="15.5" r="1.5" fill="#50C587"/>
<circle cx="9.5" cy="25.5" r="1" fill="#50C587" fill-opacity="0.5"/>
<circle cx="15" cy="25.5" r="1" fill="#50C587" fill-opacity="0.5"/>
<circle cx="20.5" cy="25.5" r="1" fill="#50C587" fill-opacity="0.5"/>
<circle cx="26" cy="25.5" r="1.5" fill="#50C587"/>
<circle cx="15" cy="20.5" r="1.5" fill="#50C587"/>
<circle cx="26" cy="10.5" r="1" fill="#50C587" fill-opacity="0.5"/>
</svg>
