<svg width="36" height="36" viewBox="0 0 36 36" fill="none" xmlns="http://www.w3.org/2000/svg">
<circle cx="8" cy="11.5" r="1" fill="#50C587"/>
<circle cx="8" cy="14.5" r="1" fill="#50C587"/>
<circle cx="25" cy="13.5" r="1" fill="#A2AEBA"/>
<circle cx="9" cy="8.5" r="1" fill="#50C587"/>
<circle cx="26" cy="10.5" r="1" fill="#A2AEBA"/>
<circle cx="27" cy="7.5" r="1" fill="#A2AEBA"/>
<circle cx="29" cy="9.5" r="1" fill="#A2AEBA"/>
<circle cx="12" cy="7.5" r="1" fill="#50C587"/>
<circle cx="24" cy="7.5" r="1" fill="#A2AEBA"/>
<circle cx="14" cy="5.5" r="1" fill="#50C587"/>
<circle cx="23" cy="10.5" r="1" fill="#A2AEBA"/>
<circle cx="20" cy="10.5" r="1" fill="#A2AEBA"/>
<circle cx="14" cy="9.5" r="1" fill="#50C587"/>
<circle cx="17" cy="5.5" r="1" fill="#50C587"/>
<circle cx="11" cy="10.5" r="1" fill="#50C587"/>
<circle cx="11" cy="13.5" r="1" fill="#50C587"/>
<circle cx="14" cy="12.5" r="1" fill="#50C587"/>
<circle cx="9" cy="27.5" r="1" fill="#CAD6E2"/>
<circle cx="10" cy="24.5" r="1" fill="#CAD6E2"/>
<circle cx="13" cy="23.5" r="1" fill="#CAD6E2"/>
<circle cx="11" cy="21.5" r="1" fill="#CAD6E2"/>
<circle cx="15" cy="25.5" r="1" fill="#CAD6E2"/>
<circle cx="16" cy="22.5" r="1" fill="#CAD6E2"/>
<circle cx="17" cy="19.5" r="1" fill="#CAD6E2"/>
<circle cx="17" cy="16.5" r="1" fill="#CAD6E2"/>
<circle cx="14" cy="20.5" r="1" fill="#CAD6E2"/>
<circle cx="12" cy="26.5" r="1" fill="#CAD6E2"/>
<circle cx="28" cy="12.5" r="1" fill="#A2AEBA"/>
<circle cx="25" cy="26.5" r="1" fill="#48A7F3"/>
<circle cx="26" cy="23.5" r="1" fill="#48A7F3"/>
<circle cx="29" cy="22.5" r="1" fill="#48A7F3"/>
<circle cx="23" cy="23.5" r="1" fill="#48A7F3"/>
<circle cx="23" cy="20.5" r="1" fill="#48A7F3"/>
<circle cx="26" cy="20.5" r="1" fill="#48A7F3"/>
<circle cx="29" cy="19.5" r="1" fill="#48A7F3"/>
<circle cx="28" cy="25.5" r="1" fill="#48A7F3"/>
<path d="M4.5 31.5L18 31.5L31.5 31.5" stroke="#A2AEBA"/>
<path d="M5 32L5 18.5L5 5" stroke="#A2AEBA"/>
</svg>
