<svg width="36" height="36" viewBox="0 0 36 36" fill="none" xmlns="http://www.w3.org/2000/svg">
<path d="M14.6676 28.1264C15.9311 29.0973 17.1653 29.6611 18.6345 29.16C18.6639 29.0347 18.6933 28.9407 18.6639 28.8468C18.4288 27.4687 18.8696 26.1846 19.3398 24.9319C19.7511 23.867 20.5151 23.0214 21.6024 22.6456C21.8962 22.5203 22.1607 22.5829 22.337 22.8335C22.6015 23.272 22.8659 23.6791 23.0716 24.1489C23.483 25.1824 24.1882 28.4083 23.9532 28.3144C23.6887 28.2204 23.4242 28.0325 23.1892 27.8446C22.3958 27.1869 21.8375 26.3412 21.4555 25.339C21.3673 25.0572 21.2204 24.8066 21.0441 24.5874C20.8971 24.3681 20.6914 24.3681 20.4858 24.556C20.3682 24.65 20.2507 24.7753 20.1919 24.9006C19.8687 25.6835 19.5161 26.4978 19.7218 27.4061C19.8393 27.9385 19.8981 28.471 19.663 28.9721C19.2222 30.0369 18.3994 30.6007 17.4297 30.8512C15.9899 31.2271 14.697 30.8825 13.5216 29.9116C13.1983 29.6611 12.8457 29.4419 12.5225 29.2226C12.0817 28.9094 12.0523 28.7841 12.2286 28.283C12.405 27.7819 12.5225 27.2808 12.6988 26.7797C13.0808 25.7149 13.5216 25.433 14.5794 25.6209C14.9614 25.6835 15.3434 25.7149 15.8136 25.7775C15.843 24.9632 15.6079 24.3368 15.1083 23.867C14.9908 23.7417 14.7263 23.7417 14.5207 23.8044C14.2562 23.867 14.0211 24.0236 13.7567 24.0863C13.169 24.2428 12.64 24.1176 12.3168 23.5538C12.0817 23.1467 11.876 22.6769 11.7585 22.2071C11.5822 21.3928 11.4646 20.5785 11.3765 19.7642C11.3177 19.2318 11.112 18.8246 10.6713 18.5741C10.2893 18.3548 9.90725 18.0729 9.49586 17.9163C8.87879 17.6658 8.26171 18.0103 7.64463 18.0729C7.55647 18.0729 7.38016 18.3861 7.40955 18.5427C7.46832 19.4823 7.93847 20.5785 9.05509 20.8917C9.52525 21.017 9.96602 21.2049 10.4362 21.3928C10.8769 21.5807 11.0239 21.8939 10.8476 22.3637C10.73 22.6769 10.5537 23.0214 10.3186 23.272C9.78971 23.8357 9.17263 24.3368 8.4674 24.6187C8.11478 24.744 7.67401 24.7126 7.29201 24.7126C7.02755 24.7126 6.76308 24.65 6.49862 24.6187C6.46924 25.0258 6.70431 25.1511 6.91001 25.2764C7.32139 25.4956 7.76217 25.6835 8.14417 25.9341C8.43801 26.122 8.73186 26.3726 8.99632 26.6231C9.37833 26.9989 9.52525 27.4687 9.52525 28.0012C9.52525 28.1264 9.52525 28.283 9.52525 28.4083C9.52525 28.8155 9.6134 29.3166 9.29017 29.6298C8.87878 30.0056 8.40863 30.3501 7.85032 30.4128C7.08632 30.5067 6.29293 30.5067 5.52893 30.538C5.382 30.538 5.20569 30.4441 5 30.4128C5.11754 29.755 5.49954 29.4419 5.9697 29.2539C6.26354 29.1287 6.61616 29.16 6.93939 29.1287C7.23324 29.0973 7.55647 29.1287 7.96786 29.1287C7.8797 28.8781 7.85032 28.6902 7.73278 28.5962C7.40955 28.3144 7.08632 28.0325 6.7337 27.7819C6.43985 27.594 6.146 27.4687 5.85216 27.2808C5.23508 26.8737 4.97062 26.2473 5.08815 25.4956C5.17631 24.9006 5.382 24.2742 5.61708 23.7417C5.88154 23.1467 6.32231 22.7082 6.99816 22.5829C7.08632 22.5829 7.14509 22.5203 7.26262 22.4576C7.14509 22.3011 7.05693 22.1445 6.93939 22.0192C6.05785 20.829 5.79339 19.545 6.46924 18.1356C6.67493 17.7284 6.76308 17.2586 7.05693 16.9141C7.43893 16.4757 7.82093 16.1938 8.40863 16.1938C8.82002 16.1938 9.26079 16.1625 9.67217 16.0685C10.348 15.8806 10.9651 16.0998 11.5234 16.4757C11.7879 16.6323 12.0523 16.8515 12.2874 17.0707C12.8751 17.5405 13.2277 18.1669 13.2865 18.9499C13.3453 19.6702 13.551 20.3906 13.4628 21.1422C13.404 21.612 13.6979 22.0818 14.0505 22.4263C14.2856 22.6456 14.55 22.6456 14.8145 22.489C15.0496 22.3637 15.2553 22.2071 15.461 22.0818C16.0487 21.7373 16.4307 21.7686 16.8714 22.2697C17.6648 23.178 18.0174 24.2429 17.6942 25.4643C17.6061 25.7775 17.4004 26.122 17.1653 26.3412C16.7245 26.7171 16.225 27.0303 15.7548 27.3435C15.4904 27.5627 15.1377 27.8133 14.6676 28.1264Z" fill="#A2AEBA"/>
<path d="M17.4056 20.988C16.2459 20.4287 15.5388 19.4573 15.1711 18.2209C14.7751 16.9256 14.8882 15.6009 15.1994 14.2762C15.2842 13.9229 15.5388 13.6286 15.7651 13.2459C15.5954 12.9809 15.2559 12.9809 14.9165 12.9515C13.8699 12.9221 12.9365 13.3342 12.1162 13.9818C11.89 14.1584 11.692 14.3645 11.494 14.5706C10.8434 15.2182 10.0797 15.2477 9.40082 14.5706C9.00482 14.1879 8.69368 13.7169 8.52397 13.1576C8.35426 12.5394 8.18454 11.9506 8.04311 11.3324C7.81683 10.4493 7.4774 10.2726 6.62884 10.5965C6.60055 10.5965 6.54398 10.5965 6.48741 10.6259C6.1197 10.4198 6.00655 10.0371 6.00655 9.625C5.94998 8.35917 6.26112 7.21109 6.88341 6.15132C7.39255 5.32706 8.0714 5.15043 8.91997 5.62144C9.14625 5.73919 9.34425 5.88638 9.54225 6.00413C10.4191 6.53402 11.0414 6.41627 11.6637 5.65088C12.2294 4.94437 12.6537 4.85605 13.4739 5.17987C13.7002 5.26819 13.9265 5.3565 14.1528 5.41538C14.5771 5.53313 14.8034 5.76863 14.8316 6.23964C14.8882 6.8284 14.9731 7.38772 15.0579 7.97648C15.3974 8.03535 15.5671 7.97648 15.5671 7.59378C15.5954 6.88727 15.9914 6.32795 16.3025 5.73919C16.4722 5.41538 16.7834 5.29762 17.1228 5.26819C17.9713 5.23875 18.7633 5.38594 19.5553 5.73919C20.0645 5.9747 20.2059 6.4457 20.2908 6.94615C20.3756 7.47603 20.4039 8.03535 20.4322 8.56524C20.4888 9.27175 20.6302 9.41894 21.3373 9.41894C22.0162 9.41894 22.1293 9.53669 22.299 10.1843C22.497 10.9203 22.5819 11.6562 22.2708 12.3922C22.1859 12.5982 22.2142 12.8043 22.4122 12.9515C22.695 13.187 22.9496 13.4519 23.3456 13.4814C23.7133 13.5108 24.0527 13.6286 24.4205 13.658C24.8165 13.6874 24.9579 13.5697 25.1276 13.2164C25.2973 12.8337 25.4387 12.451 25.6084 12.0684C25.665 11.9212 25.7216 11.8034 25.8064 11.6857C26.0327 11.303 26.3439 11.1558 26.7682 11.1558C27.1924 11.1558 27.3339 11.509 27.5319 11.8034C27.7299 12.1272 27.8996 12.5099 28.0976 12.8337C28.1824 12.9515 28.4087 13.0398 28.5501 13.0104C28.6633 12.9809 28.7764 12.7749 28.8047 12.6277C28.833 12.4216 28.7764 12.2155 28.6916 12.0095C28.6067 11.6268 28.4936 11.2441 28.3239 10.8908C28.0127 10.2138 27.8996 9.50725 28.0976 8.74186C28.2107 8.32973 27.8996 7.88816 27.4753 7.74097C27.2207 7.65266 26.9096 7.62322 26.655 7.59378C26.259 7.56435 25.9762 7.65266 25.7216 8.09423C25.3539 8.7713 24.873 9.41894 24.2507 9.97826C23.6567 9.41894 23.0062 9.00681 23.0627 8.06479C23.091 7.65266 22.9213 7.32884 22.6385 7.0639C22.1293 6.65177 22.2142 6.12189 22.3273 5.56257C22.3839 5.29762 22.5819 5.20931 22.8365 5.26819C23.4587 5.38594 23.8547 5.82751 23.9396 6.50458C23.9679 6.71065 23.9396 6.91671 23.9679 7.12278C23.9679 7.26997 23.9679 7.47603 24.0527 7.53491C24.2507 7.71154 24.5053 7.97648 24.7316 7.97648C25.0145 7.97648 25.0145 7.59378 25.0145 7.35828C25.071 6.85784 25.1559 6.35739 25.5519 6.00413C25.7782 5.76863 26.0327 5.65088 26.3722 5.68032C26.6833 5.70976 26.9662 5.68032 27.2773 5.65088C27.7582 5.62144 28.2107 5.68032 28.5219 6.12189C28.7481 6.4457 29.0593 6.74008 29.2573 7.12278C29.4836 7.56435 29.5967 8.09423 29.1724 8.5358C29.031 8.68299 29.031 8.85962 29.1159 9.06568C29.3704 9.65444 29.5684 10.2432 29.823 10.8025C30.2756 11.8328 29.823 13.4519 28.8896 14.0407C28.6633 14.1879 28.437 14.3351 28.2107 14.4528C27.5602 14.7766 27.0227 14.6 26.6833 13.9524C26.5702 13.7758 26.457 13.5991 26.3439 13.4225C26.259 13.4814 26.2024 13.5108 26.1742 13.5697C25.6084 14.8944 23.4022 15.5715 22.101 14.9827C21.6202 14.7766 21.2525 14.4528 20.8848 14.0407C20.6868 13.8052 20.6585 13.5402 20.7433 13.2164C20.913 12.6277 20.9413 12.0389 20.715 11.4207C20.5736 11.0675 20.3756 10.8908 20.0079 10.8614C19.2725 10.832 18.9048 10.4198 18.8482 9.68388C18.7916 9.21287 18.7916 8.71243 18.7351 8.24142C18.6502 7.26997 18.3108 6.97559 17.3208 6.94615C16.9814 8.18254 16.8965 8.27086 15.7085 8.85962C15.0296 9.21287 14.3225 9.41894 13.5305 9.27175C13.4457 9.24231 13.3608 9.24231 13.3042 9.21287C13.2759 9.21287 13.2477 9.15399 13.1911 9.09512C13.3891 8.5358 13.3325 7.97648 13.1628 7.38772C12.9931 6.79896 12.3708 6.50458 11.8334 6.79896C11.4091 7.03446 10.9848 7.2994 10.5605 7.50547C9.71196 7.88816 8.8634 7.82929 8.0714 7.32884C7.92997 7.24053 7.78854 7.15221 7.64712 7.09334C7.61883 7.0639 7.56226 7.09334 7.4774 7.09334C7.25112 7.50547 7.16626 7.94704 7.33597 8.44748C7.50569 8.44748 7.61883 8.44748 7.76026 8.44748C8.38254 8.38861 8.86339 8.68299 9.08968 9.30119C9.23111 9.74275 9.34425 10.2432 9.48568 10.6848C9.65539 11.2147 9.79682 11.774 9.99482 12.3039C10.306 13.1576 11.3808 13.4225 11.9748 12.7454C12.6537 11.98 13.4739 11.509 14.3791 11.2147C15.4256 10.8614 16.4156 10.9203 17.3208 11.6268C17.5753 11.8328 17.8016 12.0978 17.9431 12.3922C18.2542 13.0104 18.1128 13.5402 17.5753 13.9524C17.1228 14.2762 16.6702 14.5706 16.2176 14.8944C16.1045 14.9827 15.9914 15.1593 15.9914 15.2771C16.0762 16.7195 16.5571 17.9265 17.7451 18.7802C17.8865 18.8685 18.0562 18.9274 18.2259 18.9863C18.5088 18.6625 17.8582 21.1941 17.4056 20.988Z" fill="#3FA9F5"/>
<path d="M24.8384 26.8184C24.8942 26.8493 24.9779 26.8493 25.0895 26.8802C25.0895 26.7566 25.1453 26.6331 25.1174 26.5404C25.0895 26.3551 25.0337 26.1388 24.95 25.9844C24.3362 24.9033 24.4199 23.7604 24.6989 22.5866C25.0058 21.2583 26.4846 20.7641 27.4054 21.6599C27.7681 21.9997 28.0193 22.4012 28.103 22.9263C28.1867 23.3588 28.2983 23.7604 28.4378 24.1619C28.6052 24.7488 28.5215 25.3357 28.4378 25.9226C28.3262 26.7257 28.2425 27.5289 28.1309 28.3938C28.7168 28.5791 29.2749 28.3938 29.7771 28.1466C29.8608 28.1158 29.9166 27.8377 29.9166 27.6833C29.9166 27.4053 29.8608 27.0964 29.805 26.8184C29.6097 25.9535 29.3586 25.1195 29.219 24.2546C29.0516 22.9881 28.7726 21.7525 28.94 20.4552C28.9679 20.2699 28.9679 20.0536 28.9679 19.8683C29.0237 19.127 28.7168 18.6327 27.9355 18.3856C27.0427 18.0767 26.2056 18.2003 25.536 19.0343C25.2011 19.4667 24.8663 19.8992 24.5315 20.3625C24.3362 20.6096 24.1967 20.8876 23.9734 21.2274C23.6944 21.0421 23.4154 20.9185 23.1922 20.7332C22.6341 20.2699 22.2435 19.6521 21.8808 19.0343C21.4343 18.2929 20.4578 18.1385 19.8718 18.7563C19.7602 18.8489 19.6765 19.0652 19.7044 19.2196C19.7044 19.7756 19.537 20.2081 19.2022 20.5788C19.0348 20.7641 18.9789 18.6327 19.0069 18.2929C19.1185 16.872 20.4299 15.8218 21.6576 16.1307C22.0203 16.2234 22.2993 16.4396 22.5225 16.7794C22.8294 17.3354 23.1643 17.8605 23.4712 18.3856C23.527 18.4783 23.5828 18.5709 23.6665 18.6327C23.9455 18.9107 24.1409 18.8798 24.3362 18.5401C24.5315 18.2003 24.6989 17.8605 24.8942 17.5207C25.3685 16.7485 25.9824 16.1616 26.9032 16.1616C26.959 16.1616 27.0148 16.1616 27.0706 16.1307C28.2425 15.6982 29.0795 16.4087 29.805 17.2427C30.0003 17.4589 30.0561 17.8914 30.0561 18.2312C30.084 18.7254 30.0003 19.1887 29.9724 19.683C29.9445 20.0227 29.9445 20.3934 29.9724 20.7332C30.0282 21.4128 30.0561 22.0923 30.1677 22.7719C30.2793 23.3897 30.4746 24.0075 30.6142 24.6253C30.7258 25.0577 30.8653 25.4593 30.9211 25.8917C30.9769 26.4786 31.0327 27.0655 30.9769 27.6524C30.8932 28.61 29.9724 29.6293 29.1074 29.8147C28.6052 29.9073 28.1309 30 27.6286 30C27.3775 30 27.0985 29.8764 26.8195 29.8147C26.9311 28.9807 27.0427 28.2702 27.1264 27.5289C27.1543 27.2508 27.1543 26.942 27.2101 26.664C27.4333 25.4284 26.8474 24.5017 26.3172 23.5441C26.0661 23.1117 25.9824 23.1117 25.4802 23.1735C25.5081 23.3279 25.5081 23.4515 25.5639 23.575C25.6476 23.7604 25.7592 23.9457 25.8708 24.131C26.9311 25.8608 25.8429 27.8686 24.5036 28.5173C24.3083 28.61 24.0292 28.61 23.806 28.5173C23.5549 28.4246 23.9455 26.2624 24.8384 26.8184Z" fill="#50C587"/>
</svg>
