<svg width="36" height="36" viewBox="0 0 36 36" fill="none" xmlns="http://www.w3.org/2000/svg">
<path fill-rule="evenodd" clip-rule="evenodd" d="M20.2141 10.1443L19.9641 10L19.7141 10.1443L16.25 12.1443L16 12.2887V12.5774V16.5774V16.866L16.25 17.0104L19.5 18.8868V22.5774V22.866L19.75 23.0104L23.2141 25.0104L23.4641 25.1547L23.7141 25.0104L27.1782 23.0104L27.4282 22.866V22.5774V18.5774V18.2887L27.1782 18.1443L23.9282 16.268V12.5774V12.2887L23.6782 12.1443L20.2141 10.1443ZM17 16.2887V12.866L19.9641 11.1547L22.9282 12.866V16.2887L19.9641 18L17 16.2887ZM20.5 22.2887V18.866L23.4641 17.1547L26.4282 18.866V22.2887L23.4641 24L20.5 22.2887Z" fill="#50C587"/>
<path d="M27 10.5L30.4641 12.5V16.5L27 18.5L23.5 16.5L23.5359 12.5L27 10.5Z" fill="#48A7F3" fill-opacity="0.3" stroke="#48A7F3"/>
<path d="M12.5 17.5L15.9641 19.5V23.5L12.5 25.5L9.0359 23.5V19.5L12.5 17.5Z" stroke="#50C587"/>
<path d="M8.96411 11.5774L12.4282 13.5774V17.5774L8.96411 19.5774L5.50001 17.5774V13.5774L8.96411 11.5774Z" fill="#48A7F3" fill-opacity="0.5" stroke="#48A7F3"/>
</svg>
