<svg width="36" height="36" viewBox="0 0 36 36" fill="none" xmlns="http://www.w3.org/2000/svg">
<path fill-rule="evenodd" clip-rule="evenodd" d="M22.2141 10.1443L21.9641 10L21.7141 10.1443L18.25 12.1443L18 12.2887V12.5774V16.5774V16.866L18.25 17.0104L21.5 18.8868V22.5774V22.866L21.75 23.0104L25.2141 25.0104L25.4641 25.1547L25.7141 25.0104L29.1782 23.0104L29.4282 22.866V22.5774V18.5774V18.2887L29.1782 18.1443L25.9282 16.2679V12.5774V12.2887L25.6782 12.1443L22.2141 10.1443ZM19 16.2887V12.866L21.9641 11.1547L24.9282 12.866V16.2887L21.9641 18L19 16.2887ZM22.5 22.2887V18.866L25.4641 17.1547L28.4282 18.866V22.2887L25.4641 24L22.5 22.2887Z" fill="#50C587"/>
<path d="M10.9641 11.5774L14.4282 13.5774V17.5774L10.9641 19.5774L7.50001 17.5774V13.5774L10.9641 11.5774Z" fill="#48A7F3" fill-opacity="0.5" stroke="#48A7F3"/>
<path d="M14.4641 17.5774L17.9282 19.5774V23.5774L14.4641 25.5774L11 23.5774V19.5774L14.4641 17.5774Z" fill="#48A7F3" fill-opacity="0.5" stroke="#48A7F3"/>
</svg>
