<svg width="11" height="18" viewBox="0 0 11 18" fill="none" xmlns="http://www.w3.org/2000/svg">
<path fill-rule="evenodd" clip-rule="evenodd" d="M10.7376 6.14966C10.9125 5.54739 11 4.82903 11 3.99456C11 2.73197 10.785 1.75238 10.355 1.05578C9.92507 0.351927 9.27282 0 8.3983 0C7.77885 0 7.27964 0.159637 6.90068 0.478911C6.52173 0.79093 6.24479 1.24444 6.06989 1.83946C5.90227 2.43447 5.81847 3.15283 5.81847 3.99456C5.81847 5.24989 6.02616 6.23311 6.44156 6.94422C6.86425 7.64807 7.51649 8 8.3983 8C9.02504 8 9.52789 7.84036 9.90685 7.52109C10.2858 7.20182 10.5627 6.74467 10.7376 6.14966ZM7.14118 6.38912C6.90068 5.85941 6.78044 5.06122 6.78044 3.99456C6.78044 2.93515 6.90068 2.14059 7.14118 1.61088C7.38896 1.08118 7.808 0.816326 8.3983 0.816326C8.98131 0.816326 9.39671 1.08118 9.64449 1.61088C9.89956 2.14059 10.0271 2.93515 10.0271 3.99456C10.0271 5.06848 9.89956 5.8703 9.64449 6.4C9.39671 6.92245 8.98131 7.18367 8.3983 7.18367C7.808 7.18367 7.38896 6.91882 7.14118 6.38912ZM1.96767 7.89116H2.90778V0.119728H2.10978L0 1.75238L0.50285 2.39456L1.33364 1.71973C1.4794 1.59637 1.59964 1.49478 1.69438 1.41497C1.78912 1.33515 1.89479 1.23719 2.0114 1.12109C1.99682 1.32426 1.98589 1.52018 1.9786 1.70884C1.97132 1.89751 1.96767 2.14785 1.96767 2.45986V7.89116ZM5.12373 16.1497C5.30591 15.5474 5.397 14.829 5.397 13.9946C5.397 12.732 5.17307 11.7524 4.72522 11.0558C4.27737 10.3519 3.598 10 2.68711 10C2.0419 10 1.52194 10.1596 1.12722 10.4789C0.732504 10.7909 0.444057 11.2444 0.26188 11.8395C0.0872931 12.4345 0 13.1528 0 13.9946C0 15.2499 0.216336 16.2331 0.649007 16.9442C1.08927 17.6481 1.76864 18 2.68711 18C3.33992 18 3.86368 17.8404 4.25839 17.5211C4.65311 17.2018 4.94156 16.7447 5.12373 16.1497ZM1.37772 16.3891C1.12722 15.8594 1.00197 15.0612 1.00197 13.9946C1.00197 12.9351 1.12722 12.1406 1.37772 11.6109C1.6358 11.0812 2.07227 10.8163 2.68711 10.8163C3.29437 10.8163 3.72704 11.0812 3.98513 11.6109C4.2508 12.1406 4.38364 12.9351 4.38364 13.9946C4.38364 15.0685 4.2508 15.8703 3.98513 16.4C3.72704 16.9224 3.29437 17.1837 2.68711 17.1837C2.07227 17.1837 1.6358 16.9188 1.37772 16.3891ZM9.0208 17.8912H10V10.1197H9.16882L6.9713 11.7524L7.49506 12.3946L8.3604 11.7197C8.51222 11.5964 8.63747 11.4948 8.73615 11.415C8.83483 11.3351 8.94489 11.2372 9.06634 11.1211C9.05116 11.3243 9.03977 11.5202 9.03218 11.7088C9.02459 11.8975 9.0208 12.1478 9.0208 12.4599V17.8912Z" fill="#9497A0"/>
</svg>
