<svg width="12" height="12" viewBox="0 0 12 12" fill="none" xmlns="http://www.w3.org/2000/svg">
<path d="M10.4688 0.4375C10.8073 0.4375 11.0951 0.55599 11.332 0.792969C11.569 1.02995 11.6875 1.31771 11.6875 1.65625V10.5938C11.6875 10.9323 11.569 11.2201 11.332 11.457C11.0951 11.694 10.8073 11.8125 10.4688 11.8125H1.53125C1.19271 11.8125 0.904948 11.694 0.667969 11.457C0.43099 11.2201 0.3125 10.9323 0.3125 10.5938V1.65625C0.3125 1.31771 0.43099 1.02995 0.667969 0.792969C0.904948 0.55599 1.19271 0.4375 1.53125 0.4375H10.4688ZM10.4688 1.25H1.53125C1.41276 1.25 1.3112 1.29232 1.22656 1.37695C1.15885 1.44466 1.125 1.53776 1.125 1.65625V10.5938C1.125 10.7122 1.15885 10.8138 1.22656 10.8984C1.3112 10.9661 1.41276 11 1.53125 11H10.4688C10.5872 11 10.6803 10.9661 10.748 10.8984C10.8327 10.8138 10.875 10.7122 10.875 10.5938V1.65625C10.875 1.53776 10.8327 1.44466 10.748 1.37695C10.6803 1.29232 10.5872 1.25 10.4688 1.25ZM9.60547 3.73828C9.74089 3.89062 9.74089 4.03451 9.60547 4.16992L5.00977 8.71484C4.87435 8.86719 4.73047 8.86719 4.57812 8.71484L2.39453 6.53125C2.25911 6.37891 2.25911 6.23503 2.39453 6.09961L2.62305 5.87109C2.75846 5.73568 2.90234 5.73568 3.05469 5.87109L4.80664 7.64844L8.94531 3.53516C9.09766 3.38281 9.24154 3.38281 9.37695 3.53516L9.60547 3.73828Z" fill="#9497A0"/>
</svg>
