<svg width="14" height="12" viewBox="0 0 14 12" fill="none" xmlns="http://www.w3.org/2000/svg">
<path d="M0.5 1.65625C0.5 1.31771 0.61849 1.02995 0.855469 0.792969C1.09245 0.55599 1.38021 0.4375 1.71875 0.4375H12.2812C12.6198 0.4375 12.9076 0.55599 13.1445 0.792969C13.3815 1.02995 13.5 1.31771 13.5 1.65625V10.5938C13.5 10.9323 13.3815 11.2201 13.1445 11.457C12.9076 11.694 12.6198 11.8125 12.2812 11.8125H1.71875C1.38021 11.8125 1.09245 11.694 0.855469 11.457C0.61849 11.2201 0.5 10.9323 0.5 10.5938V1.65625ZM12.6875 1.65625C12.6875 1.53776 12.6452 1.44466 12.5605 1.37695C12.4928 1.29232 12.3997 1.25 12.2812 1.25H5.375V3.9668H12.6875V1.65625ZM12.6875 7.4707V4.7793H5.375V7.4707H12.6875ZM1.3125 4.7793V7.4707H5.375V4.7793H1.3125ZM5.375 1.25H1.71875C1.60026 1.25 1.4987 1.29232 1.41406 1.37695C1.34635 1.44466 1.3125 1.53776 1.3125 1.65625V3.9668H5.375V1.25ZM1.3125 10.5938C1.3125 10.7122 1.34635 10.8138 1.41406 10.8984C1.4987 10.9661 1.60026 11 1.71875 11H5.375V8.2832H1.3125V10.5938ZM5.375 11H12.2812C12.3997 11 12.4928 10.9661 12.5605 10.8984C12.6452 10.8138 12.6875 10.7122 12.6875 10.5938V8.2832H5.375V11Z" fill="#9497A0"/>
</svg>
