<svg width="16" height="14" viewBox="0 0 16 14" fill="none" xmlns="http://www.w3.org/2000/svg">
<path fill-rule="evenodd" clip-rule="evenodd" d="M0.855469 0.372079C0.61849 0.620132 0.5 0.92134 0.5 1.2757V10.6308C0.5 10.9852 0.61849 11.2864 0.855469 11.5345C1.09245 11.7825 1.38021 11.9065 1.71875 11.9065H2.5V12.7237C2.5 13.0781 2.61849 13.3793 2.85547 13.6273C3.09245 13.8754 3.38021 13.9994 3.71875 13.9994H14.2812C14.6198 13.9994 14.9076 13.8754 15.1445 13.6273C15.3815 13.3793 15.5 13.0781 15.5 12.7237V3.36855C15.5 3.01419 15.3815 2.71298 15.1445 2.46493C14.9076 2.21688 14.6198 2.09285 14.2812 2.09285H13.5V1.2757C13.5 0.92134 13.3815 0.620132 13.1445 0.372079C12.9076 0.124026 12.6198 0 12.2812 0H1.71875C1.38021 0 1.09245 0.124026 0.855469 0.372079ZM13.5 2.97807V10.6308C13.5 10.9852 13.3815 11.2864 13.1445 11.5345C12.9076 11.7825 12.6198 11.9065 12.2812 11.9065H3.3125V12.7237C3.3125 12.8477 3.34635 12.954 3.41406 13.0426C3.4987 13.1135 3.71875 13.1489 3.71875 13.1489H14.2812C14.3766 13.1577 14.4928 13.1135 14.5605 13.0426C14.6452 12.954 14.6875 12.8477 14.6875 12.7237V2.97807H13.5ZM12.5605 0.983353C12.6452 1.05423 12.6875 1.15167 12.6875 1.2757V3.69422H5.375H1.3125V1.2757C1.3125 1.15167 1.34635 1.05423 1.41406 0.983353C1.4987 0.894763 1.60026 0.850467 1.71875 0.850467H5.375H12.2812C12.3997 0.850467 12.4928 0.894763 12.5605 0.983353ZM12.6875 4.54468V7.36186H5.375H1.3125V4.54468H5.375H12.6875ZM1.41406 10.9498C1.34635 10.8612 1.3125 10.7549 1.3125 10.6308V8.21233H5.375H12.6875V10.6308C12.6875 10.7549 12.6452 10.8612 12.5605 10.9498C12.4928 11.0206 12.3997 11.0561 12.2812 11.0561H5.375H1.71875C1.60026 11.0561 1.4987 11.0206 1.41406 10.9498Z" fill="#9497A0"/>
</svg>
