<svg width="12" height="14" viewBox="0 0 12 14" fill="none" xmlns="http://www.w3.org/2000/svg">
<path d="M9.42773 1.91992C8.47982 1.59831 7.33724 1.4375 6 1.4375C4.66276 1.4375 3.51172 1.59831 2.54688 1.91992C1.59896 2.24154 1.125 2.6224 1.125 3.0625V3.875C1.125 4.3151 1.59896 4.69596 2.54688 5.01758C3.51172 5.33919 4.66276 5.5 6 5.5C7.33724 5.5 8.47982 5.33919 9.42773 5.01758C10.3926 4.69596 10.875 4.3151 10.875 3.875V3.0625C10.875 2.6224 10.3926 2.24154 9.42773 1.91992ZM10.875 5.24609C9.85938 5.95703 8.23438 6.3125 6 6.3125C3.76562 6.3125 2.14062 5.95703 1.125 5.24609V6.3125C1.125 6.7526 1.59896 7.13346 2.54688 7.45508C3.51172 7.77669 4.66276 7.9375 6 7.9375C7.33724 7.9375 8.47982 7.77669 9.42773 7.45508C10.3926 7.13346 10.875 6.7526 10.875 6.3125V5.24609ZM10.875 7.68359C9.85938 8.39453 8.23438 8.75 6 8.75C3.76562 8.75 2.14062 8.39453 1.125 7.68359V8.75C1.125 9.1901 1.59896 9.57096 2.54688 9.89258C3.51172 10.2142 4.66276 10.375 6 10.375C7.33724 10.375 8.47982 10.2142 9.42773 9.89258C10.3926 9.57096 10.875 9.1901 10.875 8.75V7.68359ZM10.875 10.1211C9.85938 10.832 8.23438 11.1875 6 11.1875C3.76562 11.1875 2.14062 10.832 1.125 10.1211V11.1875C1.125 11.6276 1.59896 12.0085 2.54688 12.3301C3.51172 12.6517 4.66276 12.8125 6 12.8125C7.33724 12.8125 8.47982 12.6517 9.42773 12.3301C10.3926 12.0085 10.875 11.6276 10.875 11.1875V10.1211ZM6 0.625C6.55859 0.625 7.13411 0.667318 7.72656 0.751953C8.33594 0.819661 8.94531 0.938151 9.55469 1.10742C10.181 1.27669 10.6888 1.5306 11.0781 1.86914C11.4844 2.20768 11.6875 2.60547 11.6875 3.0625V11.1875C11.6875 11.6445 11.4844 12.0423 11.0781 12.3809C10.6888 12.7194 10.181 12.9733 9.55469 13.1426C8.94531 13.3118 8.3444 13.4303 7.75195 13.498C7.15951 13.5827 6.57552 13.625 6 13.625C5.44141 13.625 4.85742 13.5827 4.24805 13.498C3.6556 13.4303 3.04622 13.3118 2.41992 13.1426C1.81055 12.9733 1.30273 12.7194 0.896484 12.3809C0.507161 12.0423 0.3125 11.6445 0.3125 11.1875V3.0625C0.3125 2.60547 0.507161 2.20768 0.896484 1.86914C1.30273 1.5306 1.81055 1.27669 2.41992 1.10742C3.04622 0.938151 3.6556 0.819661 4.24805 0.751953C4.84049 0.667318 5.42448 0.625 6 0.625Z" fill="#9497A0"/>
</svg>
