<svg width="12" height="14" viewBox="0 0 12 14" fill="none" xmlns="http://www.w3.org/2000/svg">
<path d="M10.4688 2.25C10.8073 2.25 11.0951 2.36849 11.332 2.60547C11.569 2.84245 11.6875 3.13021 11.6875 3.46875V12.4062C11.6875 12.7448 11.569 13.0326 11.332 13.2695C11.0951 13.5065 10.8073 13.625 10.4688 13.625H1.53125C1.19271 13.625 0.904948 13.5065 0.667969 13.2695C0.43099 13.0326 0.3125 12.7448 0.3125 12.4062V3.46875C0.3125 3.13021 0.43099 2.84245 0.667969 2.60547C0.904948 2.36849 1.19271 2.25 1.53125 2.25H2.75V0.929688C2.75 0.726562 2.85156 0.625 3.05469 0.625H3.25781C3.46094 0.625 3.5625 0.726562 3.5625 0.929688V2.25H8.4375V0.929688C8.4375 0.726562 8.53906 0.625 8.74219 0.625H8.94531C9.14844 0.625 9.25 0.726562 9.25 0.929688V2.25H10.4688ZM1.53125 3.0625C1.41276 3.0625 1.3112 3.10482 1.22656 3.18945C1.15885 3.25716 1.125 3.35026 1.125 3.46875V4.6875H10.875V3.46875C10.875 3.35026 10.8327 3.25716 10.748 3.18945C10.6803 3.10482 10.5872 3.0625 10.4688 3.0625H1.53125ZM10.4688 12.8125C10.5872 12.8125 10.6803 12.7702 10.748 12.6855C10.8327 12.6178 10.875 12.5247 10.875 12.4062V5.5H1.125V12.4062C1.125 12.5247 1.15885 12.6178 1.22656 12.6855C1.3112 12.7702 1.41276 12.8125 1.53125 12.8125H10.4688Z" fill="#9497A0"/>
</svg>
