<svg width="18" height="10" viewBox="0 0 18 10" fill="none" xmlns="http://www.w3.org/2000/svg">
<path d="M3.46484 0.310547L1.10352 1.83398V2.84961L3.00781 1.65625V8.68945H0.976562V9.57812H6.13086V8.68945H4.07422V0.310547H3.46484Z" fill="#9497A0"/>
<path d="M9.99023 9.57812V8.23242H8.64453V9.57812H9.99023Z" fill="#9497A0"/>
<path d="M15.9316 5.82031C17.0234 4.62695 17.4805 3.71289 17.4805 2.64648C17.4805 1.14844 16.4141 0.208984 14.7129 0.208984C13.5957 0.208984 12.377 0.666016 11.666 1.35156L12.0723 2.18945C12.9355 1.47852 13.7988 1.12305 14.6875 1.12305C15.7793 1.12305 16.3887 1.68164 16.3887 2.69727C16.3887 3.48438 16.0078 4.2207 15.1445 5.18555L11.8945 8.76562V9.57812H17.8613V8.68945H13.291L15.9316 5.82031Z" fill="#9497A0"/>
</svg>
