<svg width="10" height="14" viewBox="0 0 10 14" fill="none" xmlns="http://www.w3.org/2000/svg">
<path d="M9.51953 3.11328C9.75651 3.35026 9.875 3.63802 9.875 3.97656V12.4062C9.875 12.7448 9.75651 13.0326 9.51953 13.2695C9.28255 13.5065 8.99479 13.625 8.65625 13.625H1.34375C1.00521 13.625 0.717448 13.5065 0.480469 13.2695C0.24349 13.0326 0.125 12.7448 0.125 12.4062V1.84375C0.125 1.50521 0.24349 1.21745 0.480469 0.980469C0.717448 0.74349 1.00521 0.625 1.34375 0.625H6.52344C6.86198 0.625 7.14974 0.74349 7.38672 0.980469L9.51953 3.11328ZM8.93555 3.69727L6.80273 1.56445C6.75195 1.51367 6.69271 1.47135 6.625 1.4375V3.875H9.0625C9.02865 3.80729 8.98633 3.74805 8.93555 3.69727ZM8.65625 12.8125C8.77474 12.8125 8.86784 12.7702 8.93555 12.6855C9.02018 12.6178 9.0625 12.5247 9.0625 12.4062V4.6875H6.42188C6.2526 4.6875 6.10872 4.62826 5.99023 4.50977C5.87174 4.39128 5.8125 4.2474 5.8125 4.07812V1.4375H1.34375C1.22526 1.4375 1.1237 1.47982 1.03906 1.56445C0.971354 1.63216 0.9375 1.72526 0.9375 1.84375V12.4062C0.9375 12.5247 0.971354 12.6178 1.03906 12.6855C1.1237 12.7702 1.22526 12.8125 1.34375 12.8125H8.65625Z" fill="#9497A0"/>
</svg>
