<svg width="14" height="10" viewBox="0 0 14 10" fill="none" xmlns="http://www.w3.org/2000/svg">
<path d="M11.2656 7.5625C11.1302 7.5625 11.0625 7.49479 11.0625 7.35938V1.26562C11.0625 1.13021 11.1302 1.0625 11.2656 1.0625H11.6719C11.8073 1.0625 11.875 1.13021 11.875 1.26562V7.35938C11.875 7.49479 11.8073 7.5625 11.6719 7.5625H11.2656ZM8.82812 7.5625C8.69271 7.5625 8.625 7.49479 8.625 7.35938V3.70312C8.625 3.56771 8.69271 3.5 8.82812 3.5H9.23438C9.36979 3.5 9.4375 3.56771 9.4375 3.70312V7.35938C9.4375 7.49479 9.36979 7.5625 9.23438 7.5625H8.82812ZM3.95312 7.5625C3.81771 7.5625 3.75 7.49479 3.75 7.35938V5.32812C3.75 5.19271 3.81771 5.125 3.95312 5.125H4.35938C4.49479 5.125 4.5625 5.19271 4.5625 5.32812V7.35938C4.5625 7.49479 4.49479 7.5625 4.35938 7.5625H3.95312ZM6.39062 7.5625C6.25521 7.5625 6.1875 7.49479 6.1875 7.35938V2.07812C6.1875 1.94271 6.25521 1.875 6.39062 1.875H6.79688C6.93229 1.875 7 1.94271 7 2.07812V7.35938C7 7.49479 6.93229 7.5625 6.79688 7.5625H6.39062ZM13.2969 9.1875C13.4323 9.1875 13.5 9.25521 13.5 9.39062V9.79688C13.5 9.93229 13.4323 10 13.2969 10H0.90625C0.78776 10 0.686198 9.96615 0.601562 9.89844C0.533854 9.8138 0.5 9.71224 0.5 9.59375V0.453125C0.5 0.317708 0.567708 0.25 0.703125 0.25H1.10938C1.24479 0.25 1.3125 0.317708 1.3125 0.453125V9.1875H13.2969Z" fill="#9497A0"/>
</svg>
