<svg width="12" height="12" viewBox="0 0 12 12" fill="none" xmlns="http://www.w3.org/2000/svg">
<path d="M11.6621 4.24609C11.6452 4.41536 11.5521 4.5 11.3828 4.5H8.76758L8.18359 7.75H10.6719C10.7734 7.75 10.8496 7.79232 10.9004 7.87695C10.9681 7.94466 10.9935 8.02083 10.9766 8.10547L10.9512 8.30859C10.9173 8.47786 10.8158 8.5625 10.6465 8.5625H8.03125L7.49805 11.5586C7.46419 11.7279 7.36263 11.8125 7.19336 11.8125H6.99023C6.88867 11.8125 6.80404 11.7702 6.73633 11.6855C6.68555 11.6178 6.66862 11.5417 6.68555 11.457L7.21875 8.5625H3.96875L3.43555 11.5586C3.40169 11.7279 3.30013 11.8125 3.13086 11.8125H2.92773C2.82617 11.8125 2.74154 11.7702 2.67383 11.6855C2.62305 11.6178 2.60612 11.5417 2.62305 11.457L3.15625 8.5625H0.642578C0.541016 8.5625 0.45638 8.52865 0.388672 8.46094C0.337891 8.3763 0.320964 8.29167 0.337891 8.20703L0.388672 8.00391C0.405599 7.83464 0.498698 7.75 0.667969 7.75H3.2832L3.86719 4.5H1.37891C1.27734 4.5 1.19271 4.46615 1.125 4.39844C1.07422 4.3138 1.05729 4.22917 1.07422 4.14453L1.09961 3.94141C1.13346 3.77214 1.23503 3.6875 1.4043 3.6875H4.01953L4.55273 0.691406C4.58659 0.522135 4.68815 0.4375 4.85742 0.4375H5.06055C5.16211 0.4375 5.23828 0.479818 5.28906 0.564453C5.35677 0.632161 5.38216 0.708333 5.36523 0.792969L4.83203 3.6875H8.08203L8.61523 0.691406C8.64909 0.522135 8.75065 0.4375 8.91992 0.4375H9.12305C9.22461 0.4375 9.30078 0.479818 9.35156 0.564453C9.41927 0.632161 9.44466 0.708333 9.42773 0.792969L8.89453 3.6875H11.4082C11.5098 3.6875 11.5859 3.72982 11.6367 3.81445C11.7044 3.88216 11.7298 3.95833 11.7129 4.04297L11.6621 4.24609ZM7.3457 7.75L7.92969 4.5H4.70508L4.12109 7.75H7.3457Z" fill="#9497A0"/>
</svg>
