<svg width="18" height="10" viewBox="0 0 18 10" fill="none" xmlns="http://www.w3.org/2000/svg">
<path d="M16.9473 2.6875C17.0827 2.6875 17.1504 2.75521 17.1504 2.89062V9.79688C17.1504 9.93229 17.0827 10 16.9473 10H16.541C16.4056 10 16.3379 9.93229 16.3379 9.79688V8.88281C15.6777 9.6276 14.8652 10 13.9004 10C13.0033 10 12.2331 9.68685 11.5898 9.06055C10.9635 8.41732 10.6504 7.64714 10.6504 6.75V5.9375C10.6504 5.04036 10.9635 4.27865 11.5898 3.65234C12.2331 3.00911 13.0033 2.6875 13.9004 2.6875C14.8652 2.6875 15.6777 3.0599 16.3379 3.80469V2.89062C16.3379 2.75521 16.4056 2.6875 16.541 2.6875H16.9473ZM16.3379 6.75V5.9375C16.3379 5.26042 16.1009 4.6849 15.627 4.21094C15.153 3.73698 14.5775 3.5 13.9004 3.5C13.2233 3.5 12.6478 3.73698 12.1738 4.21094C11.6999 4.6849 11.4629 5.26042 11.4629 5.9375V6.75C11.4629 7.42708 11.6999 8.0026 12.1738 8.47656C12.6478 8.95052 13.2233 9.1875 13.9004 9.1875C14.5775 9.1875 15.153 8.95052 15.627 8.47656C16.1009 8.0026 16.3379 7.42708 16.3379 6.75ZM6.00391 0.503906L9.8125 9.7207C9.82943 9.73763 9.83789 9.76302 9.83789 9.79688C9.83789 9.93229 9.77018 10 9.63477 10H9.20312C9.10156 10 9.03385 9.95768 9 9.87305L7.70508 6.75H3.0332L1.73828 9.87305C1.70443 9.95768 1.63672 10 1.53516 10H1.10352C0.968099 10 0.900391 9.93229 0.900391 9.79688C0.900391 9.76302 0.908854 9.73763 0.925781 9.7207L4.73438 0.503906C4.81901 0.334635 4.94596 0.25 5.11523 0.25H5.62305C5.79232 0.25 5.91927 0.334635 6.00391 0.503906ZM3.36328 5.9375H7.375L5.36914 1.11328L3.36328 5.9375Z" fill="#9497A0"/>
</svg>
