<svg width="36" height="36" viewBox="0 0 36 36" fill="none" xmlns="http://www.w3.org/2000/svg">
<path d="M30 18C30 15.0779 28.9338 12.2562 27.0013 10.0643C25.0689 7.87234 22.4031 6.46086 19.504 6.09462L19.2032 8.4757C21.5225 8.76869 23.6551 9.89787 25.2011 11.6514C26.747 13.4049 27.6 15.6623 27.6 18H30Z" fill="#A2AEBA"/>
<path d="M7.00005 22C12.0001 16.5 16.5001 17 14.0001 7.5L16.0002 7C16.0002 7 19.3332 13 18.5 18C17.6668 23 12.5001 27.5 12.5001 27.5L7.00005 22Z" fill="#CAD6E2"/>
<path d="M11 10.5C19.5 13 19 19.5 21 28.5L18.5 29C18.5 29 17.1479 22.4408 15 20C12.8521 17.5592 8 16.5 8 16.5L11 10.5Z" fill="#48A7F3" fill-opacity="0.5"/>
<path d="M23 27C19 22 19 15.5 21.5 8.5L24 9.5C24 9.5 22.3521 15.0592 24.5 17.5C26.6479 19.9408 29.5933 20 29.5933 20L23 27Z" fill="#50C587" fill-opacity="0.5"/>
<path d="M18 30C20.9221 30 23.7438 28.9338 25.9357 27.0013C28.1277 25.0689 29.5391 22.4031 29.9054 19.504L27.5243 19.2032C27.2313 21.5225 26.1021 23.6551 24.3486 25.2011C22.5951 26.747 20.3377 27.6 18 27.6L18 30Z" fill="#50C587"/>
<path d="M6 18C6 20.9221 7.06623 23.7438 8.99867 25.9357C10.9311 28.1277 13.5969 29.5391 16.496 29.9054L16.7968 27.5243C14.4775 27.2313 12.3449 26.1021 10.7989 24.3486C9.25299 22.5951 8.4 20.3377 8.4 18H6Z" fill="#A2AEBA"/>
<path d="M18 6C15.0779 6 12.2562 7.06624 10.0643 8.99867C7.87234 10.9311 6.46086 13.5969 6.09462 16.496L8.4757 16.7968C8.76869 14.4775 9.89787 12.3449 11.6514 10.7989C13.4049 9.25299 15.6623 8.4 18 8.4V6Z" fill="#48A7F3"/>
</svg>
