<svg width="36" height="36" viewBox="0 0 36 36" fill="none" xmlns="http://www.w3.org/2000/svg">
<path d="M11.2001 19.8L11.3001 19.9C12.7001 21.3 14.5001 22 16.5001 22C16.6001 22 16.7001 22 16.7001 22C18.6001 21.9 20.4001 21.2 21.8001 19.8C23.2001 18.4 23.9001 16.7 24.0001 14.7C24.1001 12.6 23.3001 10.6 21.8001 9.20001C20.3001 7.70001 18.3001 6.90001 16.3001 7.00001C14.4001 7.10001 12.6001 7.80001 11.2001 9.20001C9.80007 10.6 9.10007 12.3 9.00007 14.3C8.90007 16.3 9.70007 18.3 11.2001 19.8ZM10.9001 17.4C10.5001 16.6 10.2001 15.7 10.2001 14.8H10.3001C10.4001 14.8 10.5001 14.8 10.5001 14.8C10.6001 14.8 10.6001 14.8 10.7001 14.8C10.8001 14.8 10.9001 14.8 10.9001 14.8C11.0001 14.8 11.0001 14.8 11.1001 14.8C11.2001 14.8 11.4001 14.9 11.5001 14.9H11.6001C11.7001 14.9 11.8001 15 11.9001 15V15.1C11.8001 15.3 11.7001 15.4 11.6001 15.6C11.6001 15.6 11.6001 15.7 11.5001 15.7C11.4001 15.9 11.3001 16 11.2001 16.2C11.2001 16.2 11.2001 16.3 11.1001 16.3C11.0001 16.4 11.0001 16.6 10.9001 16.7V16.8C11.0001 17.1 10.9001 17.3 10.9001 17.4ZM13.7001 14.8C13.9001 14.6 14.0001 14.4 14.2001 14.2C14.3001 14.1 14.3001 14.1 14.4001 14C14.5001 13.9 14.7001 13.7 14.8001 13.6L14.9001 13.5L17.6001 16.2L17.5001 16.3C17.4001 16.4 17.2001 16.6 17.1001 16.7C17.0001 16.8 17.0001 16.8 16.9001 16.9C16.7001 17.1 16.5001 17.2 16.3001 17.4C16.2001 17.3 16.1001 17.1 16.0001 17L15.9001 16.9C15.8001 16.8 15.7001 16.7 15.6001 16.6L15.5001 16.5C15.4001 16.4 15.3001 16.2 15.1001 16.1C15.0001 16 14.8001 15.8 14.7001 15.7L14.6001 15.6C14.5001 15.5 14.4001 15.4 14.3001 15.3L14.2001 15.2C14.0001 15 13.8001 14.9 13.7001 14.8ZM16.1001 12.3C16.2001 12.3 16.2001 12.2 16.3001 12.2C16.5001 12.1 16.7001 11.9 16.8001 11.8C16.9001 11.9 17.0001 12.1 17.1001 12.2L17.2001 12.3C17.3001 12.4 17.4001 12.5 17.5001 12.6L17.6001 12.7C17.7001 12.8 17.8001 13 18.0001 13.1C18.1001 13.2 18.3001 13.4 18.4001 13.5L18.5001 13.6C18.6001 13.7 18.7001 13.8 18.8001 13.9L18.9001 14C19.0001 14.1 19.2001 14.2 19.3001 14.3C19.2001 14.5 19.0001 14.7 18.9001 14.8C18.9001 14.9 18.8001 14.9 18.8001 15C18.7001 15.1 18.6001 15.2 18.5001 15.4L15.8001 12.7C15.8001 12.5 15.9001 12.4 16.1001 12.3ZM17.8001 11C17.9001 10.9 18.0001 10.9 18.1001 10.8C18.1001 10.8 18.2001 10.8 18.2001 10.7C18.3001 10.7 18.4001 10.6 18.5001 10.6C18.6001 10.6 18.6001 10.6 18.7001 10.5C18.8001 10.5 18.8001 10.4 18.9001 10.4C19.0001 10.4 19.0001 10.4 19.0001 10.3C19.1001 10.3 19.1001 10.2 19.2001 10.2H19.3001C19.4001 10.2 19.4001 10.2 19.5001 10.1H19.6001C19.7001 10.1 19.7001 10.1 19.8001 10.1H19.9001C20.0001 10.1 20.1001 10.1 20.2001 10.1C20.4001 10.1 20.6001 10.1 20.7001 10.2C20.7001 10.2 20.7001 10.2 20.8001 10.3C20.8001 10.3 20.8001 10.3 20.8001 10.4C20.8001 10.4 20.8001 10.4 20.8001 10.5C20.8001 10.5 20.8001 10.5 20.8001 10.6V10.7C20.8001 10.7 20.8001 10.7 20.8001 10.8V10.9C20.8001 10.9 20.8001 10.9 20.8001 11V11.1V11.2V11.3V11.4V11.5V11.6V11.7V11.8C20.8001 11.8 20.8001 11.9 20.7001 11.9V12C20.7001 12.1 20.6001 12.1 20.6001 12.2C20.6001 12.2 20.6001 12.2 20.6001 12.3C20.6001 12.4 20.5001 12.5 20.5001 12.6V12.7C20.5001 12.8 20.4001 12.8 20.4001 12.9C20.4001 12.9 20.4001 13 20.3001 13C20.3001 13.1 20.2001 13.1 20.2001 13.2L20.1001 13.3L20.0001 13.4C19.9001 13.3 19.8001 13.3 19.7001 13.2L19.6001 13.1C19.5001 13 19.4001 13 19.3001 12.9L19.2001 12.8C19.1001 12.7 19.0001 12.6 18.9001 12.5C18.8001 12.4 18.7001 12.3 18.6001 12.2L18.5001 12.1C18.4001 12 18.4001 11.9 18.3001 11.8L18.2001 11.7C17.9001 11.3 17.8001 11.2 17.8001 11C17.8001 11.1 17.7001 11.1 17.8001 11C17.7001 11.1 17.7001 11.1 17.8001 11C17.7001 11 17.7001 11 17.8001 11ZM21.2001 13.5C21.3001 13.4 21.3001 13.3 21.3001 13.2C21.3001 13.2 21.3001 13.1 21.4001 13.1C21.5001 13 21.5001 12.9 21.6001 12.7V12.6C21.6001 12.5 21.7001 12.4 21.7001 12.3V12.2C21.7001 12.1 21.8001 12.1 21.8001 12V11.9C21.8001 11.8 21.8001 11.8 21.9001 11.7V11.6C21.9001 11.5 21.9001 11.5 22.0001 11.4V11.3C22.5001 12.2 22.8001 13.1 22.8001 14.1H22.7001C22.6001 14.1 22.5001 14.1 22.5001 14.1C22.4001 14.1 22.4001 14.1 22.3001 14.1C22.2001 14.1 22.1001 14.1 22.1001 14.1C22.0001 14.1 22.0001 14.1 21.9001 14.1C21.8001 14.1 21.6001 14 21.5001 14H21.4001C21.3001 14 21.2001 13.9 21.1001 13.9C21.1001 13.9 21.1001 13.9 21.0001 13.9L21.1001 13.8C21.1001 13.6 21.1001 13.5 21.2001 13.5ZM15.1001 18.1C15.0001 18.2 14.9001 18.2 14.8001 18.3C14.7001 18.3 14.7001 18.4 14.6001 18.4C14.5001 18.4 14.4001 18.5 14.3001 18.5C14.2001 18.5 14.2001 18.6 14.1001 18.6C14.0001 18.6 13.9001 18.7 13.9001 18.7C13.8001 18.7 13.8001 18.7 13.7001 18.8C13.6001 18.8 13.5001 18.9 13.5001 18.9C13.4001 18.9 13.4001 18.9 13.4001 19C13.3001 19 13.3001 19 13.2001 19.1H13.1001C13.0001 19.1 13.0001 19.1 12.9001 19.1H12.8001C12.7001 19.1 12.6001 19.1 12.5001 19.1C12.4001 19.1 12.4001 19.1 12.3001 19.1H12.2001C12.2001 19.1 12.2001 19.1 12.1001 19.1C12.1001 19.1 12.1001 19.1 12.0001 19.1C12.0001 19.1 12.0001 19.1 12.0001 19C12.0001 19 12.0001 19 12.0001 18.9C12.0001 18.9 12.0001 18.9 12.0001 18.8C12.0001 18.8 12.0001 18.8 12.0001 18.7V18.6C12.0001 18.6 12.0001 18.6 12.0001 18.5V18.4V18.3V18.2V18.1V18V17.9V17.8V17.7V17.6V17.5C12.0001 17.5 12.0001 17.4 12.1001 17.4V17.3C12.1001 17.2 12.1001 17.2 12.2001 17.1V17C12.2001 16.9 12.3001 16.9 12.3001 16.8C12.3001 16.8 12.3001 16.8 12.3001 16.7C12.4001 16.6 12.4001 16.5 12.5001 16.4C12.5001 16.4 12.5001 16.4 12.5001 16.3C12.5001 16.2 12.6001 16.1 12.6001 16C12.6001 16 12.6001 15.9 12.7001 15.9C12.7001 15.8 12.8001 15.8 12.8001 15.7C12.8001 15.7 12.9001 15.7 12.9001 15.8C13.0001 15.9 13.1001 15.9 13.2001 16L13.3001 16.1C13.4001 16.2 13.5001 16.2 13.6001 16.3L13.7001 16.4C13.8001 16.5 13.9001 16.6 14.1001 16.7C14.2001 16.8 14.3001 16.9 14.4001 17.1L14.5001 17.2C14.6001 17.3 14.6001 17.4 14.7001 17.5L14.8001 17.6C14.9001 17.7 14.9001 17.8 15.0001 17.9C15.0001 17.9 15.0001 18 15.1001 18C15.2001 18.1 15.2001 18.1 15.1001 18.1ZM13.6001 20.1C13.7001 20.1 13.8001 20 13.9001 20C14.0001 20 14.0001 19.9 14.1001 19.9C14.2001 19.9 14.3001 19.8 14.4001 19.8C14.5001 19.8 14.5001 19.7 14.6001 19.7C14.7001 19.6 14.8001 19.6 14.9001 19.5C15.0001 19.5 15.0001 19.4 15.1001 19.4C15.2001 19.3 15.4001 19.2 15.5001 19.1L15.6001 19C15.6001 19.1 15.7001 19.2 15.7001 19.3V19.4C15.7001 19.5 15.8001 19.7 15.8001 19.8V19.9C15.8001 20 15.8001 20.1 15.8001 20.2C15.8001 20.3 15.8001 20.3 15.8001 20.4C15.8001 20.5 15.8001 20.6 15.8001 20.7V20.8C14.9001 20.8 14.0001 20.5 13.2001 20.1C13.6001 20.1 13.6001 20.1 13.6001 20.1ZM17.3001 20.8C17.3001 20.6 17.3001 20.4 17.3001 20.3V20.2C17.3001 20 17.2001 19.8 17.2001 19.7V19.6C17.2001 19.5 17.1001 19.3 17.1001 19.2C17.1001 19.1 17.1001 19.1 17.1001 19C17.0001 18.8 17.0001 18.7 16.9001 18.5L17.0001 18.4C17.1001 18.4 17.1001 18.3 17.2001 18.3C17.3001 18.2 17.5001 18.1 17.6001 18L17.7001 17.9C17.9001 17.8 18.0001 17.6 18.2001 17.5L18.3001 17.4C18.4001 17.3 18.5001 17.2 18.6001 17.2L20.9001 19.5C19.7001 20.1 18.6001 20.7 17.3001 20.8ZM21.5001 18.5L19.2001 16.2C19.2001 16.2 19.2001 16.2 19.2001 16.1C19.4001 15.9 19.6001 15.7 19.8001 15.5C20.0001 15.3 20.1001 15.1 20.3001 14.9C20.3001 14.9 20.3001 14.9 20.4001 14.8C20.4001 14.8 20.4001 14.8 20.5001 14.8C20.6001 14.9 20.8001 14.9 21.0001 15H21.1001C21.3001 15.1 21.5001 15.1 21.6001 15.1H21.7001C21.9001 15.1 22.0001 15.2 22.2001 15.2H22.3001C22.5001 15.2 22.7001 15.2 22.9001 15.3C22.7001 16.5 22.2001 17.5 21.5001 18.5ZM19.6001 9.00001C19.5001 9.00001 19.5001 9.00001 19.6001 9.00001C19.4001 9.10001 19.3001 9.10001 19.1001 9.10001C19.0001 9.10001 18.8001 9.20001 18.7001 9.20001H18.6001C18.5001 9.30001 18.3001 9.30001 18.2001 9.40001C18.2001 9.40001 18.2001 9.40001 18.1001 9.40001C18.0001 9.50001 17.8001 9.50001 17.7001 9.60001C17.7001 9.60001 17.6001 9.60001 17.6001 9.70001C17.5001 9.80001 17.3001 9.90001 17.2001 9.90001C17.2001 9.80001 17.1001 9.70001 17.1001 9.60001V9.50001C17.0001 9.40001 17.0001 9.30001 17.0001 9.10001V9.00001C17.0001 8.90001 17.0001 8.80001 16.9001 8.70001C16.9001 8.60001 16.9001 8.60001 16.9001 8.50001C16.9001 8.40001 16.9001 8.30001 16.9001 8.20001V8.10001C17.8001 8.20001 18.8001 8.50001 19.6001 9.00001ZM15.7001 8.20001C15.7001 8.40001 15.7001 8.60001 15.8001 8.70001V8.80001C15.8001 9.00001 15.9001 9.20001 15.9001 9.40001V9.50001C15.9001 9.70001 16.0001 9.80001 16.0001 9.90001C16.0001 10 16.0001 10 16.1001 10.1C16.2001 10.3 16.2001 10.4 16.3001 10.6C16.3001 10.6 16.3001 10.6 16.3001 10.7C16.3001 10.7 16.3001 10.7 16.2001 10.8C16.0001 10.9 15.8001 11.1 15.6001 11.3C15.6001 11.3 15.6001 11.3 15.5001 11.3C15.3001 11.5 15.1001 11.7 14.9001 11.9C14.9001 11.9 14.9001 11.9 14.8001 11.9L12.5001 9.60001C13.5001 8.80001 14.5001 8.30001 15.7001 8.20001ZM11.7001 10.3L14.0001 12.6L13.9001 12.7C13.7001 12.9 13.5001 13.1 13.3001 13.3L13.2001 13.4C13.0001 13.6 12.8001 13.9 12.6001 14.1C12.6001 14.1 12.6001 14.1 12.5001 14.2C12.5001 14.2 12.5001 14.2 12.4001 14.2C12.2001 14.1 12.1001 14.1 11.9001 14C11.8001 14 11.8001 14 11.7001 14C11.6001 14 11.4001 13.9 11.3001 13.9H11.2001C11.0001 13.9 10.8001 13.8 10.7001 13.8H10.6001C10.5001 13.8 10.3001 13.8 10.2001 13.8H10.1001C10.3001 12.4 10.9001 11.3 11.7001 10.3Z" fill="#50C587"/>
<path fill-rule="evenodd" clip-rule="evenodd" d="M27 14.6C27 11.8 25.8 9.19999 24 7.29999C24 7.29999 23.6 6.99999 23.2 7.29999C22.8 7.69999 23.2 8.09999 23.2 8.09999C24.9 9.69999 25.9 12 25.9 14.5C25.9 19.5 21.9 23.5 16.9 23.5C14.4 23.5 12.1 22.5 10.5 20.8C10.5 20.8 10.1 20.5 9.69999 20.9C9.29999 21.3 9.69999 21.7 9.69999 21.7C11.6 23.6 14.1 24.7 17 24.7C17.1 24.7 17.1 24.7 17.2 24.7V28H12.2V29H17.2H18.2H23.2V28H18.2V24.8C23.1 24.2 27 19.8 27 14.6Z" fill="#3FA9F5"/>
</svg>
