<svg width="36" height="36" viewBox="0 0 36 36" fill="none" xmlns="http://www.w3.org/2000/svg">
<path d="M18 8L29 15.6393L24.7984 28H11.2016L7 15.6393C11.2958 12.656 13.7042 10.9833 18 8Z" stroke="#CAD6E2"/>
<path d="M18 8V11.8695M28.9878 15.739L25.5179 16.8446M24.9396 27.9003L22.7774 25.3167M11.0603 27.9003L13.3736 25.3167M7.01221 15.739L10.6477 16.8446M10.6477 16.8446L13.3736 25.3167M10.6477 16.8446L18 11.8695M13.3736 25.3167H22.7774M22.7774 25.3167L25.5179 16.8446M25.5179 16.8446L18 11.8695" stroke="#CAD6E2"/>
<path d="M17.9999 11.8695V15.1862M25.5178 16.8446L22.3905 17.7682M22.6263 25.1364L20.6964 22.6334M13.3735 25.1364L15.3642 22.6334M10.4819 16.8446L13.8784 17.6891M13.8784 17.6891L15.3642 22.6334M13.8784 17.6891L17.9999 15.1862M15.3642 22.6334H20.6964M20.6964 22.6334L22.3905 17.7682M22.3905 17.7682L17.9999 15.1862" stroke="#CAD6E2"/>
<path d="M18 17.9502L19.054 18.7141L18.8421 19.9502H17.3097L17.0326 18.7141L18 17.9502Z" fill="#CAD6E2"/>
<path d="M18 15.1862V17.9502M22.0482 17.9502L19.054 18.7141M20.3133 22.3724L18.8421 19.9502M15.6868 22.3724L17.3097 19.9502M13.9519 17.9502L17.0326 18.7141M17.0326 18.7141L17.3097 19.9502M17.0326 18.7141L18 17.9502M17.3097 19.9502H18.8421M18.8421 19.9502L19.054 18.7141M19.054 18.7141L18 17.9502" stroke="#CAD6E2"/>
<path d="M18 12L28.9877 15.739L22.6264 25.1364L15.1084 22.9252L18 19V12Z" fill="#50C587" fill-opacity="0.5" stroke="#50C587"/>
<path d="M18 14.6335L22.6264 17.9502L20.8915 22.3725L13.3735 25.1364L10.5 17L18 14.6335Z" fill="#48A7F3" fill-opacity="0.5" stroke="#48A7F3"/>
</svg>
