<svg width="36" height="36" viewBox="0 0 36 36" fill="none" xmlns="http://www.w3.org/2000/svg">
<rect x="6" y="7" width="24" height="5" fill="#50C587" fill-opacity="0.5"/>
<path d="M6 24H18C22.061 22.2596 24 16 24 16H30V21H27C27 21 24.3967 27.3317 20 29H6V24Z" fill="#CAD6E2"/>
<rect x="6" y="24" width="2" height="5" fill="#A2AEBA"/>
<rect x="28" y="7" width="2" height="5" fill="#50C587"/>
<path opacity="0.5" d="M6 7H12C12 7 16.9509 13.4005 21.5 16H30V21H18C13.4509 18.4005 8 12 8 12H6V7Z" fill="#48A7F3"/>
<rect x="6" y="7" width="2" height="5" fill="#48A7F3"/>
<rect x="28" y="16" width="2" height="5" fill="#48A7F3"/>
</svg>
