<svg width="36" height="36" viewBox="0 0 36 36" fill="none" xmlns="http://www.w3.org/2000/svg">
<path d="M16.8103 7.06452C14.3032 7.33728 11.9659 8.46325 10.1899 10.2538C8.414 12.0444 7.30727 14.3909 7.05512 16.9002L9.2441 17.1202C9.44582 15.1127 10.3312 13.2355 11.752 11.8031C13.1727 10.3706 15.0425 9.46983 17.0482 9.25162L16.8103 7.06452Z" fill="#CAD6E2"/>
<path opacity="0.5" d="M16.8103 7.06452C14.3032 7.33728 11.9659 8.46325 10.1899 10.2538C8.414 12.0444 7.30727 14.3909 7.05512 16.9002L12.1033 17.4075C12.2392 16.0555 12.8354 14.7914 13.7922 13.8267C14.749 12.862 16.0083 12.2553 17.359 12.1084L16.8103 7.06452Z" fill="#CAD6E2"/>
<path d="M28.8842 16.4082C28.533 14.007 27.3977 11.7893 25.6549 10.1005C23.9122 8.41172 21.6599 7.34663 19.2488 7.07112L18.9991 9.2569C20.9279 9.47731 22.7297 10.3294 24.1239 11.6804C25.5181 13.0314 26.4264 14.8056 26.7074 16.7265L28.8842 16.4082Z" fill="#48A7F3"/>
<path opacity="0.5" d="M28.8842 16.4082C28.533 14.007 27.3977 11.7893 25.6549 10.1005C23.9122 8.41172 21.6599 7.34663 19.2488 7.07112L18.4875 13.7341C19.4286 13.8417 20.3077 14.2574 20.988 14.9166C21.6682 15.5758 22.1114 16.4414 22.2484 17.3787L28.8842 16.4082Z" fill="#48A7F3"/>
<path opacity="0.5" d="M28.8842 16.4082C28.533 14.007 27.3977 11.7893 25.6549 10.1005C23.9122 8.41172 21.6599 7.34663 19.2488 7.07112L18 18L28.8842 16.4082Z" fill="#48A7F3"/>
<path d="M19.4098 28.9093C21.8208 28.5977 24.0607 27.4962 25.7795 25.7769C27.4982 24.0575 28.599 21.8173 28.9098 19.4061L26.7278 19.1249C26.4792 21.0538 25.5986 22.846 24.2236 24.2215C22.8486 25.597 21.0566 26.4782 19.1278 26.7274L19.4098 28.9093Z" fill="#A2AEBA"/>
<path opacity="0.5" d="M19.4098 28.9093C21.8208 28.5977 24.0607 27.4962 25.7795 25.7769C27.4982 24.0575 28.599 21.8173 28.9098 19.4061L24.4487 18.8311C24.265 20.2563 23.6143 21.5806 22.5984 22.5968C21.5824 23.6131 20.2585 24.2642 18.8333 24.4484L19.4098 28.9093Z" fill="#A2AEBA"/>
<path d="M7.0644 19.1885C7.33064 21.6383 8.41174 23.9277 10.1344 25.6897C11.857 27.4517 14.1214 28.5843 16.5645 28.9059L16.8516 26.7247C14.8971 26.4675 13.0856 25.5614 11.7075 24.1518C10.3294 22.7421 9.46451 20.9106 9.25152 18.9508L7.0644 19.1885Z" fill="#50C587"/>
<path opacity="0.5" d="M7.0644 19.1885C7.33064 21.6383 8.41174 23.9277 10.1344 25.6897C11.857 27.4517 14.1214 28.5843 16.5645 28.9059L17.142 24.5183C15.6818 24.3261 14.3284 23.6492 13.2988 22.5961C12.2692 21.5429 11.6231 20.1746 11.4639 18.7104L7.0644 19.1885Z" fill="#50C587"/>
<path opacity="0.5" d="M7.0644 19.1885C7.33064 21.6383 8.41174 23.9277 10.1344 25.6897C11.857 27.4517 14.1214 28.5843 16.5645 28.9059L17.4898 21.8757C16.6216 21.7614 15.8169 21.3589 15.2048 20.7327C14.5926 20.1065 14.2084 19.2929 14.1138 18.4224L7.0644 19.1885Z" fill="#50C587"/>
<path opacity="0.5" d="M7.0644 19.1885C7.33064 21.6383 8.41174 23.9277 10.1344 25.6897C11.857 27.4517 14.1214 28.5843 16.5645 28.9059L17.4898 21.8757C16.6216 21.7614 15.8169 21.3589 15.2048 20.7327C14.5926 20.1065 14.2084 19.2929 14.1138 18.4224L7.0644 19.1885Z" fill="#50C587"/>
</svg>
