<svg width="36" height="36" viewBox="0 0 36 36" fill="none" xmlns="http://www.w3.org/2000/svg">
<path d="M18 30L29.5 22.5L32 24L18 33L4 24L6.5 22.5L18 30Z" fill="#B9C6D3"/>
<path d="M18 25L24.5 20.5L27 22L18 28L9 22L11.5 20.5L18 25Z" fill="#D5E0EB"/>
<path fill-rule="evenodd" clip-rule="evenodd" d="M18 22C18 22 24 12.2167 24 8.9375C24 5.65831 21.3137 3 18 3C14.6863 3 12 5.65831 12 8.9375C12 12.2167 18 22 18 22ZM18 12C19.6569 12 21 10.6569 21 9C21 7.34315 19.6569 6 18 6C16.3431 6 15 7.34315 15 9C15 10.6569 16.3431 12 18 12Z" fill="#50C587"/>
</svg>
