<svg width="36" height="36" viewBox="0 0 36 36" fill="none" xmlns="http://www.w3.org/2000/svg">
<path d="M15.0024 16H11C10.4472 16 10 15.5519 10 15C10 14.4481 10.4481 14 11 14H15.0024C15.5552 14 16.0024 14.4481 16.0024 15C16.0024 15.5519 15.556 16 15.0024 16Z" fill="#50C587"/>
<path d="M25.0024 24H14C13.4472 24 13 23.5519 13 23C13 22.4481 13.4481 22 14 22H25.0024C25.5552 22 26.0024 22.4481 26.0024 23C26.0024 23.5519 25.556 24 25.0024 24Z" fill="#50C587"/>
<path d="M31.0024 20H11C10.4472 20 10 19.5519 10 19C10 18.4481 10.4481 18 11 18H31.0024C31.5552 18 32.0024 18.4481 32.0024 19C32.0024 19.5519 31.556 20 31.0024 20Z" fill="#48A7F3"/>
<path d="M31.0024 16H21C20.4472 16 20 15.5519 20 15C20 14.4481 20.4481 14 21 14H31.0024C31.5552 14 32.0024 14.4481 32.0024 15C32.0024 15.5519 31.556 16 31.0024 16Z" fill="#50C587"/>
<path d="M24.0024 28H17C16.4472 28 16 27.5519 16 27C16 26.4481 16.4481 26 17 26H24.0024C24.5552 26 25.0024 26.4481 25.0024 27C25.0024 27.5519 24.556 28 24.0024 28Z" fill="#48A7F3"/>
<path d="M31.0024 28H28C27.4472 28 27 27.5519 27 27C27 26.4481 27.4481 26 28 26H31.0024C31.5552 26 32.0024 26.4481 32.0024 27C32.0024 27.5519 31.556 28 31.0024 28Z" fill="#48A7F3"/>
<path d="M32 7H9V11H32V7Z" fill="#A2AEBA"/>
<path d="M8 7H4V11H8V7Z" fill="#CAD6E2"/>
<path d="M8 12H4V29H8V12Z" fill="#A2AEBA"/>
</svg>
