<svg width="36" height="36" viewBox="0 0 36 36" fill="none" xmlns="http://www.w3.org/2000/svg">
<path d="M18.0024 14H11C10.4472 14 10 13.5519 10 13C10 12.4481 10.4481 12 11 12H18.0024C18.5552 12 19.0024 12.4481 19.0024 13C19.0024 13.5519 18.5552 14 18.0024 14Z" fill="#50C587"/>
<path d="M21.6982 19H14.6958C14.143 19 13.6958 18.5519 13.6958 18C13.6958 17.4481 14.1439 17 14.6958 17H21.6982C22.251 17 22.6982 17.4481 22.6982 18C22.6982 18.5519 22.2518 19 21.6982 19Z" fill="#50C587"/>
<path d="M19.8734 24H9.86938C9.31662 24 8.86938 23.5528 8.86938 23C8.86938 22.4472 9.31744 22 9.86938 22H19.8734C20.4262 22 20.8734 22.4472 20.8734 23C20.8734 23.5528 20.4262 24 19.8734 24Z" fill="#48A7F3"/>
<path d="M26.0016 14H22C21.4472 14 21 13.5519 21 13C21 12.4481 21.4472 12 22 12H26.0016C26.5544 12 27.0016 12.4481 27.0016 13C27.0016 13.5519 26.5544 14 26.0016 14Z" fill="#48A7F3"/>
<path d="M11.0008 19H8C7.44724 19 7 18.5519 7 18C7 17.4481 7.44805 17 8 17H11.0008C11.5536 17 12.0008 17.4481 12.0008 18C12.0008 18.5519 11.5536 19 11.0008 19Z" fill="#CAD6E2"/>
<path d="M26.0008 24H24C23.4472 24 23 23.5528 23 23C23 22.4472 23.4472 22 24 22H26.0008C26.5536 22 27.0008 22.4472 27.0008 23C27.0016 23.5528 26.5536 24 26.0008 24Z" fill="#CAD6E2"/>
<path d="M28.0008 19H25C24.4472 19 24 18.5519 24 18C24 17.4481 24.4472 17 25 17H28.0008C28.5536 17 29.0008 17.4481 29.0008 18C29.0008 18.5519 28.5544 19 28.0008 19Z" fill="#A2AEBA"/>
</svg>
