<svg class="hero-container-background" width="1440" height="1108" viewBox="0 0 1538 1108" fill="none" xmlns="http://www.w3.org/2000/svg">
<path opacity="1" fill-rule="evenodd" clip-rule="evenodd" d="M0 38.4172V0H1.06806V38.4172H96.0566V0H97.1247V38.4172H192.117V0H193.185V38.4172H288.174V0H289.242V38.4172H384.234V0H385.302V38.4172H480.291V0H481.359V38.4172H576.35V0H577.418V38.4172H672.408V0H673.476V38.4172H768.465V0H769.533V38.4172H864.525V0H865.593V38.4172H960.582V0H961.65V38.4172H1056.64V0H1057.71V38.4172H1152.7V0H1153.77V38.4172H1248.76V0H1249.83V38.4172H1344.82V0H1345.88V38.4172H1440.87V0H1441.94V38.4172H1536.93V0H1538L1538 38.4172V39.4854V135.53V136.598V232.643V233.711V329.756V330.824V426.869V427.937V523.981V525.049V621.094V622.162V718.207V719.275V815.32V816.388V912.433V913.501V1009.55V1010.61L1538 1107.73H1536.93V1010.61H1441.94V1107.73H1440.87V1010.61H1345.88V1107.73H1344.82V1010.61H1249.83V1107.73H1248.76V1010.61H1153.77V1107.73H1152.7V1010.61H1057.71V1107.73H1056.64V1010.61H961.65V1107.73H960.582V1010.61H865.593V1107.73H864.525V1010.61H769.533V1107.73H768.465V1010.61H673.476V1107.73H672.408V1010.61H577.418V1107.73H576.35V1010.61H481.359V1107.73H480.291V1010.61H385.302V1107.73H384.234V1010.61H289.242V1107.73H288.174V1010.61H193.185V1107.73H192.117V1010.61H97.1247V1107.73H96.0566V1010.61H1.06806V1107.73H0V1010.61V1009.55V913.501V912.433V816.388V815.32V719.275V718.207V622.162V621.094V525.049V523.981V427.937V426.869V330.824V329.756V233.711V232.643V136.598V135.53V39.4854V38.4172ZM1536.93 1009.55H1441.94V913.501H1536.93V1009.55ZM1536.93 912.433H1441.94V816.388H1536.93V912.433ZM1536.93 815.32H1441.94V719.275H1536.93V815.32ZM1536.93 718.207H1441.94V622.162H1536.93V718.207ZM1536.93 621.094H1441.94V525.049H1536.93V621.094ZM1536.93 523.981H1441.94V427.937H1536.93V523.981ZM1536.93 426.869H1441.94V330.824H1536.93V426.869ZM1536.93 329.756H1441.94V233.711H1536.93V329.756ZM1536.93 232.643H1441.94V136.598H1536.93V232.643ZM1536.93 135.53H1441.94V39.4854H1536.93V135.53ZM1440.87 135.53V39.4854H1345.88V135.53H1440.87ZM1440.87 232.643V136.598H1345.88V232.643H1440.87ZM1440.87 329.756V233.711H1345.88V329.756H1440.87ZM1440.87 426.869V330.824H1345.88V426.869H1440.87ZM1440.87 523.981V427.937H1345.88V523.981H1440.87ZM1440.87 621.094V525.049H1345.88V621.094H1440.87ZM1440.87 718.207V622.162H1345.88V718.207H1440.87ZM1440.87 815.32V719.275H1345.88V815.32H1440.87ZM1440.87 912.433V816.388H1345.88V912.433H1440.87ZM1440.87 1009.55V913.501H1345.88V1009.55H1440.87ZM1344.82 1009.55H1249.83V913.501H1344.82V1009.55ZM1344.82 912.433H1249.83V816.388H1344.82V912.433ZM1344.82 815.32H1249.83V719.275H1344.82V815.32ZM1344.82 718.207H1249.83V622.162H1344.82V718.207ZM1344.82 621.094H1249.83V525.049H1344.82V621.094ZM1344.82 523.981H1249.83V427.937H1344.82V523.981ZM1344.82 426.869H1249.83V330.824H1344.82V426.869ZM1344.82 329.756H1249.83V233.711H1344.82V329.756ZM1344.82 232.643H1249.83V136.598H1344.82V232.643ZM1344.82 135.53H1249.83V39.4854H1344.82V135.53ZM1248.76 135.53V39.4854H1153.77V135.53H1248.76ZM1248.76 232.643V136.598H1153.77V232.643H1248.76ZM1248.76 329.756V233.711H1153.77V329.756H1248.76ZM1248.76 426.869V330.824H1153.77V426.869H1248.76ZM1248.76 523.981V427.937H1153.77V523.981H1248.76ZM1248.76 621.094V525.049H1153.77V621.094H1248.76ZM1248.76 718.207V622.162H1153.77V718.207H1248.76ZM1248.76 815.32V719.275H1153.77V815.32H1248.76ZM1248.76 912.433V816.388H1153.77V912.433H1248.76ZM1248.76 1009.55V913.501H1153.77V1009.55H1248.76ZM1152.7 1009.55H1057.71V913.501H1152.7V1009.55ZM1152.7 912.433H1057.71V816.388H1152.7V912.433ZM1152.7 815.32H1057.71V719.275H1152.7V815.32ZM1152.7 718.207H1057.71V622.162H1152.7V718.207ZM1152.7 621.094H1057.71V525.049H1152.7V621.094ZM1152.7 523.981H1057.71V427.937H1152.7V523.981ZM1152.7 426.869H1057.71V330.824H1152.7V426.869ZM1152.7 329.756H1057.71V233.711H1152.7V329.756ZM1152.7 232.643H1057.71V136.598H1152.7V232.643ZM1152.7 135.53H1057.71V39.4854H1152.7V135.53ZM1056.64 135.53V39.4854H961.65V135.53H1056.64ZM1056.64 232.643V136.598H961.65V232.643H1056.64ZM1056.64 329.756V233.711H961.65V329.756H1056.64ZM1056.64 426.869V330.824H961.65V426.869H1056.64ZM1056.64 523.981V427.937H961.65V523.981H1056.64ZM1056.64 621.094V525.049H961.65V621.094H1056.64ZM1056.64 718.207V622.162H961.65V718.207H1056.64ZM1056.64 815.32V719.275H961.65V815.32H1056.64ZM1056.64 912.433V816.388H961.65V912.433H1056.64ZM1056.64 1009.55V913.501H961.65V1009.55H1056.64ZM960.582 1009.55H865.593V913.501H960.582V1009.55ZM960.582 912.433H865.593V816.388H960.582V912.433ZM960.582 815.32H865.593V719.275H960.582V815.32ZM960.582 718.207H865.593V622.162H960.582V718.207ZM960.582 621.094H865.593V525.049H960.582V621.094ZM960.582 523.981H865.593V427.937H960.582V523.981ZM960.582 426.869H865.593V330.824H960.582V426.869ZM960.582 329.756H865.593V233.711H960.582V329.756ZM960.582 232.643H865.593V136.598H960.582V232.643ZM960.582 135.53H865.593V39.4854H960.582V135.53ZM864.525 135.53V39.4854H769.533V135.53H864.525ZM864.525 232.643V136.598H769.533V232.643H864.525ZM864.525 329.756V233.711H769.533V329.756H864.525ZM864.525 426.869V330.824H769.533V426.869H864.525ZM864.525 523.981V427.937H769.533V523.981H864.525ZM864.525 621.094V525.049H769.533V621.094H864.525ZM864.525 718.207V622.162H769.533V718.207H864.525ZM864.525 815.32V719.275H769.533V815.32H864.525ZM864.525 912.433V816.388H769.533V912.433H864.525ZM864.525 1009.55V913.501H769.533V1009.55H864.525ZM768.465 1009.55H673.476V913.501H768.465V1009.55ZM768.465 912.433H673.476V816.388H768.465V912.433ZM768.465 815.32H673.476V719.275H768.465V815.32ZM768.465 718.207H673.476V622.162H768.465V718.207ZM768.465 621.094H673.476V525.049H768.465V621.094ZM768.465 523.981H673.476V427.937H768.465V523.981ZM768.465 426.869H673.476V330.824H768.465V426.869ZM768.465 329.756H673.476V233.711H768.465V329.756ZM768.465 232.643H673.476V136.598H768.465V232.643ZM768.465 135.53H673.476V39.4854H768.465V135.53ZM672.408 135.53V39.4854H577.418V135.53H672.408ZM672.408 232.643V136.598H577.418V232.643H672.408ZM672.408 329.756V233.711H577.418V329.756H672.408ZM672.408 426.869V330.824H577.418V426.869H672.408ZM672.408 523.981V427.937H577.418V523.981H672.408ZM672.408 621.094V525.049H577.418V621.094H672.408ZM672.408 718.207V622.162H577.418V718.207H672.408ZM672.408 815.32V719.275H577.418V815.32H672.408ZM672.408 912.433V816.388H577.418V912.433H672.408ZM672.408 1009.55V913.501H577.418V1009.55H672.408ZM576.35 1009.55H481.359V913.501H576.35V1009.55ZM576.35 912.433H481.359V816.388H576.35V912.433ZM576.35 815.32H481.359V719.275H576.35V815.32ZM576.35 718.207H481.359V622.162H576.35V718.207ZM576.35 621.094H481.359V525.049H576.35V621.094ZM576.35 523.981H481.359V427.937H576.35V523.981ZM576.35 426.869H481.359V330.824H576.35V426.869ZM576.35 329.756H481.359V233.711H576.35V329.756ZM576.35 232.643H481.359V136.598H576.35V232.643ZM576.35 135.53H481.359V39.4854H576.35V135.53ZM480.291 135.53V39.4854H385.302V135.53H480.291ZM480.291 232.643V136.598H385.302V232.643H480.291ZM480.291 329.756V233.711H385.302V329.756H480.291ZM480.291 426.869V330.824H385.302V426.869H480.291ZM480.291 523.981V427.937H385.302V523.981H480.291ZM480.291 621.094V525.049H385.302V621.094H480.291ZM480.291 718.207V622.162H385.302V718.207H480.291ZM480.291 815.32V719.275H385.302V815.32H480.291ZM480.291 912.433V816.388H385.302V912.433H480.291ZM480.291 1009.55V913.501H385.302V1009.55H480.291ZM384.234 1009.55H289.242V913.501H384.234V1009.55ZM384.234 912.433H289.242V816.388H384.234V912.433ZM384.234 815.32H289.242V719.275H384.234V815.32ZM384.234 718.207H289.242V622.162H384.234V718.207ZM384.234 621.094H289.242V525.049H384.234V621.094ZM384.234 523.981H289.242V427.937H384.234V523.981ZM384.234 426.869H289.242V330.824H384.234V426.869ZM384.234 329.756H289.242V233.711H384.234V329.756ZM384.234 232.643H289.242V136.598H384.234V232.643ZM384.234 135.53H289.242V39.4854H384.234V135.53ZM288.174 135.53V39.4854H193.185V135.53H288.174ZM288.174 232.643V136.598H193.185V232.643H288.174ZM288.174 329.756V233.711H193.185V329.756H288.174ZM288.174 426.869V330.824H193.185V426.869H288.174ZM288.174 523.981V427.937H193.185V523.981H288.174ZM288.174 621.094V525.049H193.185V621.094H288.174ZM288.174 718.207V622.162H193.185V718.207H288.174ZM288.174 815.32V719.275H193.185V815.32H288.174ZM288.174 912.433V816.388H193.185V912.433H288.174ZM288.174 1009.55V913.501H193.185V1009.55H288.174ZM192.117 1009.55H97.1247V913.501H192.117V1009.55ZM192.117 912.433H97.1247V816.388H192.117V912.433ZM192.117 815.32H97.1247V719.275H192.117V815.32ZM192.117 718.207H97.1247V622.162H192.117V718.207ZM192.117 621.094H97.1247V525.049H192.117V621.094ZM192.117 523.981H97.1247V427.937H192.117V523.981ZM192.117 426.869H97.1247V330.824H192.117V426.869ZM192.117 329.756H97.1247V233.711H192.117V329.756ZM192.117 232.643H97.1247V136.598H192.117V232.643ZM192.117 135.53H97.1247V39.4854H192.117V135.53ZM96.0566 135.53V39.4854H1.06806V135.53H96.0566ZM96.0566 232.643V136.598H1.06806V232.643H96.0566ZM96.0566 329.756V233.711H1.06806V329.756H96.0566ZM96.0566 426.869V330.824H1.06806V426.869H96.0566ZM96.0566 523.981V427.937H1.06806V523.981H96.0566ZM96.0566 621.094V525.049H1.06806V621.094H96.0566ZM96.0566 718.207V622.162H1.06806V718.207H96.0566ZM96.0566 815.32V719.275H1.06806V815.32H96.0566ZM96.0566 912.433V816.388H1.06806V912.433H96.0566ZM96.0566 1009.55V913.501H1.06806V1009.55H96.0566Z" fill="url(#paint0_radial_789_296)"/>
<defs>
<radialGradient id="paint0_radial_789_296" cx="0" cy="0" r="1" gradientUnits="userSpaceOnUse" gradientTransform="translate(745.5 513.5) rotate(36.8757) scale(990.7 551.81)">
<stop stop-color="#f5f6f7"/>
<stop offset="1" stop-color="#DEE5EE" stop-opacity="0"/>
</radialGradient>
</defs>
</svg>
