<svg width="36" height="36" viewBox="0 0 36 36" fill="none" xmlns="http://www.w3.org/2000/svg">
<path d="M5.09159 19.0731C5.25062 19.0731 5.39262 19.0404 5.51757 18.975C5.64253 18.9097 5.74192 18.8176 5.81576 18.6988C5.89244 18.5799 5.93362 18.4418 5.9393 18.2843H7C6.99432 18.6111 6.90628 18.9037 6.73589 19.1622C6.5655 19.4207 6.3383 19.6257 6.05431 19.7772C5.77316 19.9257 5.45793 20 5.10863 20C4.75364 20 4.44409 19.9376 4.17998 19.8128C3.91587 19.6881 3.69578 19.5143 3.5197 19.2914C3.34647 19.0686 3.21583 18.8102 3.1278 18.516C3.0426 18.2219 3 17.907 3 17.5713V17.4287C3 17.093 3.0426 16.7781 3.1278 16.484C3.21583 16.1898 3.34647 15.9314 3.5197 15.7086C3.69578 15.4857 3.91587 15.3119 4.17998 15.1872C4.44409 15.0624 4.75222 15 5.10437 15C5.47639 15 5.80298 15.0758 6.08413 15.2273C6.36812 15.3788 6.58963 15.5927 6.74867 15.869C6.91054 16.1453 6.99432 16.4706 7 16.8449H5.9393C5.93362 16.6726 5.8967 16.5181 5.82854 16.3815C5.76038 16.2448 5.66383 16.1349 5.53887 16.0517C5.41392 15.9685 5.26198 15.9269 5.08307 15.9269C4.89279 15.9269 4.73376 15.9685 4.60596 16.0517C4.48101 16.1349 4.38303 16.2493 4.31203 16.3948C4.24388 16.5374 4.1956 16.6979 4.1672 16.8761C4.14164 17.0514 4.12886 17.2356 4.12886 17.4287V17.5713C4.12886 17.7674 4.14164 17.9545 4.1672 18.1328C4.1956 18.3111 4.24388 18.4715 4.31203 18.6141C4.38303 18.7537 4.48101 18.8651 4.60596 18.9483C4.73376 19.0315 4.89563 19.0731 5.09159 19.0731Z" fill="#A2AEBA"/>
<path d="M31.0916 19.0731C31.2506 19.0731 31.3926 19.0404 31.5176 18.975C31.6425 18.9097 31.7419 18.8176 31.8158 18.6988C31.8924 18.5799 31.9336 18.4418 31.9393 18.2843H33C32.9943 18.6111 32.9063 18.9037 32.7359 19.1622C32.5655 19.4207 32.3383 19.6257 32.0543 19.7772C31.7732 19.9257 31.4579 20 31.1086 20C30.7536 20 30.4441 19.9376 30.18 19.8128C29.9159 19.6881 29.6958 19.5143 29.5197 19.2914C29.3465 19.0686 29.2158 18.8102 29.1278 18.516C29.0426 18.2219 29 17.907 29 17.5713V17.4287C29 17.093 29.0426 16.7781 29.1278 16.484C29.2158 16.1898 29.3465 15.9314 29.5197 15.7086C29.6958 15.4857 29.9159 15.3119 30.18 15.1872C30.4441 15.0624 30.7522 15 31.1044 15C31.4764 15 31.803 15.0758 32.0841 15.2273C32.3681 15.3788 32.5896 15.5927 32.7487 15.869C32.9105 16.1453 32.9943 16.4706 33 16.8449H31.9393C31.9336 16.6726 31.8967 16.5181 31.8285 16.3815C31.7604 16.2448 31.6638 16.1349 31.5389 16.0517C31.4139 15.9685 31.262 15.9269 31.0831 15.9269C30.8928 15.9269 30.7338 15.9685 30.606 16.0517C30.481 16.1349 30.383 16.2493 30.312 16.3948C30.2439 16.5374 30.1956 16.6979 30.1672 16.8761C30.1416 17.0514 30.1289 17.2356 30.1289 17.4287V17.5713C30.1289 17.7674 30.1416 17.9545 30.1672 18.1328C30.1956 18.3111 30.2439 18.4715 30.312 18.6141C30.383 18.7537 30.481 18.8651 30.606 18.9483C30.7338 19.0315 30.8956 19.0731 31.0916 19.0731Z" fill="#A2AEBA"/>
<path d="M19.7242 11.5179L16.9472 20H15L18.6401 10H19.8848L19.7242 11.5179ZM22.0461 20L19.2558 11.5179L19.0885 10H20.3398L24 20H22.0461ZM21.919 16.2843V17.7747H16.6929V16.2843H21.919Z" fill="#A2AEBA"/>
<path d="M27.9906 5V20H24.954V5H27.9906ZM33 5V8.21746H20V5H33Z" fill="#50C587"/>
<path d="M14 15.8691V18.8991C13.891 19.0452 13.7189 19.2037 13.4838 19.3747C13.2521 19.5458 12.9489 19.6936 12.5741 19.8183C12.1993 19.9394 11.7394 20 11.1942 20C10.7206 20 10.2879 19.9181 9.89608 19.7542C9.50426 19.5867 9.16695 19.3427 8.88416 19.022C8.60136 18.7014 8.3833 18.3095 8.22998 17.8464C8.07666 17.3832 8 16.8542 8 16.2592V15.7462C8 15.1512 8.07155 14.6221 8.21465 14.159C8.36116 13.6958 8.56899 13.3039 8.83816 12.9833C9.11073 12.6627 9.43612 12.4186 9.81431 12.2512C10.1959 12.0837 10.6218 12 11.092 12C11.7223 12 12.2402 12.1087 12.6457 12.326C13.0545 12.5433 13.368 12.8426 13.586 13.2238C13.8041 13.6014 13.9404 14.0361 13.9949 14.5277H12.6252C12.5877 14.257 12.5128 14.02 12.4003 13.817C12.2879 13.6103 12.1278 13.45 11.9199 13.336C11.7155 13.2184 11.4497 13.1597 11.1227 13.1597C10.8467 13.1597 10.6031 13.2167 10.3918 13.3307C10.1806 13.4447 10.0034 13.6103 9.86031 13.8277C9.71721 14.045 9.60818 14.314 9.53322 14.6346C9.46167 14.9552 9.42589 15.3222 9.42589 15.7355V16.2592C9.42589 16.676 9.46678 17.0465 9.54855 17.3707C9.63032 17.6914 9.74787 17.9621 9.90119 18.183C10.0579 18.4004 10.2504 18.566 10.4787 18.68C10.7104 18.7905 10.9727 18.8457 11.2658 18.8457C11.5315 18.8457 11.7513 18.8225 11.925 18.7762C12.1022 18.7263 12.2436 18.6676 12.3492 18.5999C12.4549 18.5322 12.5366 18.4663 12.5945 18.4021V16.9432H11.1175V15.8691H14Z" fill="#48A7F3"/>
<path d="M3 24L18.5 24L34 24" stroke="#A2AEBA"/>
<path d="M11 26H3V27H11V26Z" fill="#CAD6E2"/>
<path d="M11 28H3V29H11V28Z" fill="#CAD6E2"/>
<path d="M29 26H13V27H29V26Z" fill="#CAD6E2"/>
<path d="M29 28H13V29H29V28Z" fill="#CAD6E2"/>
<path d="M34 26H30V27H34V26Z" fill="#CAD6E2"/>
<path d="M34 28H30V29H34V28Z" fill="#CAD6E2"/>
<path d="M11 30H3V31H11V30Z" fill="#CAD6E2"/>
<path d="M29 30H13V31H29V30Z" fill="#CAD6E2"/>
<path d="M34 30H30V31H34V30Z" fill="#CAD6E2"/>
</svg>
