<svg width="36" height="36" viewBox="0 0 36 36" fill="none" xmlns="http://www.w3.org/2000/svg">
<path d="M8.50758 23.3837C9.13339 22.5289 9.43579 21.7568 9.5615 20.9309C9.64868 20.3603 9.65491 19.7521 9.62572 19.0695L9.96742 19.087V19.0851C10.1897 19.1011 10.4173 19.1081 10.6403 19.1194L10.661 19.1202C10.6882 19.8255 10.6773 20.466 10.5823 21.0886C10.4313 22.0785 10.0748 22.9957 9.33966 24L8.50758 23.3837ZM6.68229 18.5546L8.99407 20.8731L8.79908 21.8037L5.81556 18.8115C5.40653 18.9715 5.00917 19.1881 4.6262 19.4793L4 18.6565C5.92103 17.1955 7.98646 17.3025 10.0554 17.4094C10.2889 17.4215 10.5224 17.4336 10.71 17.4418C11.5292 17.477 12.3423 17.4836 13.1226 17.3536L11.061 15.2861L11.2556 14.3552L14.0235 17.1308C14.5731 16.9454 15.1098 16.6628 15.6289 16.2389L11.7495 12.3486C11.0494 13.1128 10.7232 13.9496 10.5886 14.8392C10.4948 15.4578 10.4917 16.112 10.5212 16.7892L10.1239 16.7689C10.1013 16.7666 10.0787 16.7654 10.0554 16.7654C9.86546 16.7557 9.67592 16.7459 9.486 16.7373C9.45798 16.0375 9.46615 15.3525 9.56773 14.6815C9.73508 13.5749 10.1523 12.5308 11.0626 11.571C12.034 10.5464 13.0735 10.0101 14.1496 9.74161C15.0047 9.5281 15.8664 9.48751 16.7296 9.5039C16.7416 9.70843 16.7556 9.91842 16.7708 10.1351C16.7806 10.2713 16.7899 10.4067 16.7988 10.5418C16.1423 10.5262 15.4931 10.5425 14.8654 10.6487L16.9713 12.7607L16.7763 13.6913L13.9659 10.8728C13.404 11.064 12.8548 11.3571 12.3247 11.7994L16.2096 15.6956C16.9378 14.9192 17.274 14.0675 17.4114 13.1612C17.5562 12.2065 17.4854 11.1663 17.4099 10.0886C17.3246 8.87198 17.2713 7.87041 17.4177 6.9114C17.5687 5.92194 17.9252 5.00429 18.6603 4L19.492 4.61671C18.8666 5.47151 18.5642 6.24356 18.4381 7.06909C18.3077 7.92506 18.3587 8.86612 18.4389 10.0141C18.5187 11.1534 18.5934 12.2533 18.4323 13.3189C18.2645 14.4254 17.8477 15.4692 16.9374 16.4294C15.966 17.4539 14.9265 17.9902 13.8504 18.2588C12.796 18.5219 11.732 18.5226 10.6672 18.477C10.415 18.466 10.2079 18.4555 10.0013 18.4446C8.87536 18.3864 7.75061 18.3283 6.68229 18.5546ZM21.2274 9.46409L18.995 7.22521L19.19 6.29469L22.1058 9.21897C22.5421 9.05621 22.9663 8.8306 23.3738 8.52069L24 9.34387C22.4436 10.5269 20.7935 10.6819 19.1231 10.6409C19.1091 10.4176 19.0935 10.1936 19.0779 9.9676C19.069 9.84309 19.0608 9.72131 19.053 9.60148C19.7909 9.62178 20.521 9.60304 21.2274 9.46409Z" fill="#50C587"/>
<path d="M16.5076 31.3837C17.1334 30.5289 17.4358 29.7568 17.5615 28.9309C17.6487 28.3603 17.6549 27.7521 17.6257 27.0695L17.9674 27.087V27.0851C18.1897 27.1011 18.4173 27.1081 18.6403 27.1194L18.661 27.1202C18.6882 27.8255 18.6773 28.466 18.5823 29.0886C18.4313 30.0785 18.0748 30.9957 17.3397 32L16.5076 31.3837ZM14.6823 26.5546L16.9941 28.8731L16.7991 29.8037L13.8156 26.8115C13.4065 26.9715 13.0092 27.1881 12.6262 27.4793L12 26.6565C13.921 25.1955 15.9865 25.3025 18.0554 25.4094C18.2889 25.4215 18.5224 25.4336 18.71 25.4418C19.5292 25.477 20.3423 25.4836 21.1226 25.3536L19.061 23.2861L19.2556 22.3552L22.0235 25.1308C22.5731 24.9454 23.1098 24.6628 23.6289 24.2389L19.7495 20.3486C19.0494 21.1128 18.7232 21.9496 18.5886 22.8392C18.4948 23.4578 18.4917 24.112 18.5212 24.7892L18.1239 24.7689C18.1013 24.7666 18.0787 24.7654 18.0554 24.7654C17.8655 24.7557 17.6759 24.7459 17.486 24.7373C17.458 24.0375 17.4662 23.3525 17.5677 22.6815C17.7351 21.5749 18.1523 20.5308 19.0626 19.571C20.034 18.5464 21.0735 18.0101 22.1496 17.7416C23.0047 17.5281 23.8664 17.4875 24.7296 17.5039C24.7416 17.7084 24.7556 17.9184 24.7708 18.1351C24.7806 18.2713 24.7899 18.4067 24.7988 18.5418C24.1423 18.5262 23.4931 18.5425 22.8654 18.6487L24.9713 20.7607L24.7763 21.6913L21.9659 18.8728C21.404 19.064 20.8548 19.3571 20.3247 19.7994L24.2096 23.6956C24.9378 22.9192 25.274 22.0675 25.4114 21.1612C25.5562 20.2065 25.4854 19.1663 25.4099 18.0886C25.3246 16.872 25.2713 15.8704 25.4177 14.9114C25.5687 13.9219 25.9252 13.0043 26.6603 12L27.492 12.6167C26.8666 13.4715 26.5642 14.2436 26.4381 15.0691C26.3077 15.9251 26.3587 16.8661 26.4389 18.0141C26.5187 19.1534 26.5934 20.2533 26.4323 21.3189C26.2645 22.4254 25.8477 23.4692 24.9374 24.4294C23.966 25.4539 22.9265 25.9902 21.8504 26.2588C20.796 26.5219 19.732 26.5226 18.6672 26.477C18.415 26.466 18.2079 26.4555 18.0013 26.4446C16.8754 26.3864 15.7506 26.3283 14.6823 26.5546ZM29.2274 17.4641L26.995 15.2252L27.19 14.2947L30.1058 17.219C30.5421 17.0562 30.9663 16.8306 31.3738 16.5207L32 17.3439C30.4436 18.5269 28.7935 18.6819 27.1231 18.6409C27.1091 18.4176 27.0935 18.1936 27.0779 17.9676C27.069 17.8431 27.0608 17.7213 27.053 17.6015C27.7909 17.6218 28.521 17.603 29.2274 17.4641Z" fill="#50C587" fill-opacity="0.5"/>
</svg>
