<svg width="36" height="36" viewBox="0 0 36 36" fill="none" xmlns="http://www.w3.org/2000/svg">
<path d="M10 10.3527V13.7615C9.92731 13.9259 9.81261 14.1042 9.65588 14.2966C9.50142 14.489 9.29926 14.6553 9.0494 14.7956C8.79955 14.9319 8.4929 15 8.12947 15C7.81374 15 7.52527 14.9078 7.26405 14.7234C7.00284 14.5351 6.77797 14.2605 6.58944 13.8998C6.40091 13.5391 6.25554 13.0982 6.15332 12.5772C6.05111 12.0561 6 11.4609 6 10.7916V10.2144C6 9.54509 6.0477 8.9499 6.1431 8.42886C6.24077 7.90782 6.37933 7.46693 6.55877 7.10621C6.74049 6.74549 6.95741 6.47094 7.20954 6.28257C7.46394 6.09419 7.74787 6 8.06133 6C8.48154 6 8.8268 6.12224 9.0971 6.36673C9.36968 6.61122 9.57865 6.9479 9.72402 7.37675C9.86939 7.8016 9.96025 8.29058 9.99659 8.84369H9.08348C9.05849 8.53908 9.00852 8.27255 8.93356 8.04409C8.8586 7.81162 8.75185 7.63126 8.61329 7.50301C8.477 7.37074 8.29983 7.30461 8.08177 7.30461C7.89779 7.30461 7.73538 7.36874 7.59455 7.49699C7.45372 7.62525 7.3356 7.81162 7.2402 8.05611C7.1448 8.3006 7.07212 8.60321 7.02215 8.96393C6.97445 9.32465 6.9506 9.73747 6.9506 10.2024V10.7916C6.9506 11.2605 6.97785 11.6774 7.03237 12.0421C7.08688 12.4028 7.16525 12.7074 7.26746 12.9559C7.37195 13.2004 7.50028 13.3868 7.65247 13.515C7.80693 13.6393 7.98183 13.7014 8.17717 13.7014C8.35434 13.7014 8.50085 13.6754 8.61669 13.6232C8.73481 13.5671 8.82907 13.501 8.89949 13.4248C8.9699 13.3487 9.02442 13.2745 9.06303 13.2024V11.5611H8.07836V10.3527H10Z" fill="#48A7F3"/>
<path d="M14.3486 11V15H12.6332V11H14.3486ZM16 11V12.2628H11V11H16Z" fill="#50C587"/>
<path d="M24.688 8V15H23.2864V8H24.688ZM27 8V9.20994H21V8H27Z" fill="#50C587"/>
<path d="M12.324 9.42514L13.1661 7H13.622L13.651 7.51099L12.7509 10H12.2689L12.324 9.42514ZM11.7927 7L12.4837 9.4169V10H11.9582L11 7H11.7927ZM14.525 9.40659L15.2044 7H16L15.0418 10H14.5163L14.525 9.40659ZM13.8397 7L14.6818 9.43338L14.7311 10H14.2491L13.3519 7.50893L13.3868 7H13.8397Z" fill="#A2AEBA"/>
<path d="M17.0592 29.6168L17.7329 28H18.0976L18.1208 28.3407L17.4007 30H17.0151L17.0592 29.6168ZM16.6341 28L17.187 29.6113V30H16.7666L16 28H16.6341ZM18.82 29.6044L19.3635 28H20L19.2334 30H18.813L18.82 29.6044ZM18.2718 28L18.9454 29.6223L18.9849 30H18.5993L17.8815 28.3393L17.9094 28H18.2718Z" fill="#A2AEBA" stroke="#A2AEBA" stroke-width="0.25"/>
<path d="M16.8787 9L17.5 11.6044L18.1236 9H19L17.915 12.8448V15H17.0873V12.8448L16 9H16.8787Z" fill="#A2AEBA"/>
<path d="M27.1716 24L28 26.6044L28.8315 24H30L28.5533 27.8448V30H27.4498V27.8448L26 24H27.1716Z" fill="#50C587"/>
<path d="M21.1396 13.7275C21.1396 13.6637 21.118 13.609 21.0747 13.5635C21.0337 13.5156 20.9608 13.4723 20.856 13.4336C20.7511 13.3926 20.6042 13.3516 20.415 13.3105C20.235 13.2718 20.0653 13.2205 19.9058 13.1567C19.7485 13.0929 19.6107 13.0155 19.4922 12.9243C19.3737 12.8332 19.2803 12.7249 19.2119 12.5996C19.1458 12.4743 19.1128 12.3307 19.1128 12.1689C19.1128 12.0117 19.1458 11.8636 19.2119 11.7246C19.2803 11.5833 19.3794 11.4591 19.5093 11.3521C19.6414 11.2427 19.8021 11.1572 19.9912 11.0957C20.1803 11.0319 20.3957 11 20.6372 11C20.9699 11 21.257 11.0513 21.4985 11.1538C21.7401 11.2541 21.9258 11.3953 22.0557 11.5776C22.1878 11.7576 22.2539 11.9661 22.2539 12.2031H21.1021C21.1021 12.1097 21.0861 12.0299 21.0542 11.9639C21.0246 11.8978 20.9756 11.8477 20.9072 11.8135C20.8389 11.777 20.7477 11.7588 20.6338 11.7588C20.554 11.7588 20.4811 11.7736 20.415 11.8032C20.3512 11.8328 20.3 11.8739 20.2612 11.9263C20.2225 11.9787 20.2031 12.0402 20.2031 12.1108C20.2031 12.161 20.2145 12.2065 20.2373 12.2476C20.2624 12.2863 20.3 12.3228 20.3501 12.3569C20.4002 12.3888 20.464 12.4185 20.5415 12.4458C20.619 12.4709 20.7124 12.4937 20.8218 12.5142C21.0701 12.5597 21.3026 12.6247 21.519 12.709C21.7355 12.7933 21.911 12.9129 22.0454 13.0679C22.1821 13.2228 22.2505 13.4313 22.2505 13.6934C22.2505 13.8574 22.2129 14.009 22.1377 14.1479C22.0625 14.2847 21.9543 14.4054 21.813 14.5103C21.6717 14.6128 21.502 14.6925 21.3037 14.7495C21.1055 14.8065 20.8822 14.835 20.6338 14.835C20.2806 14.835 19.9821 14.7723 19.7383 14.647C19.4945 14.5194 19.3099 14.3599 19.1846 14.1685C19.0615 13.9748 19 13.7788 19 13.5806H20.0732C20.0778 13.6945 20.1051 13.7879 20.1553 13.8608C20.2077 13.9338 20.2772 13.9873 20.3638 14.0215C20.4504 14.0557 20.5506 14.0728 20.6646 14.0728C20.7694 14.0728 20.856 14.0579 20.9243 14.0283C20.995 13.9987 21.0485 13.9588 21.085 13.9087C21.1214 13.8563 21.1396 13.7959 21.1396 13.7275Z" fill="#A2AEBA"/>
<path d="M29.3151 10.1337C29.3151 10.0838 29.3018 10.041 29.2752 10.0053C29.25 9.96791 29.2052 9.93405 29.1408 9.90374C29.0763 9.87166 28.986 9.83957 28.8697 9.80749C28.7591 9.77718 28.6548 9.73708 28.5567 9.68717C28.4601 9.63725 28.3754 9.57665 28.3025 9.50535C28.2297 9.43405 28.1723 9.34938 28.1303 9.25134C28.0896 9.1533 28.0693 9.041 28.0693 8.91444C28.0693 8.79144 28.0896 8.67558 28.1303 8.56684C28.1723 8.45633 28.2332 8.35918 28.313 8.2754C28.3943 8.18984 28.493 8.12299 28.6092 8.07487C28.7255 8.02496 28.8578 8 29.0063 8C29.2108 8 29.3873 8.04011 29.5357 8.12032C29.6842 8.19875 29.7983 8.30927 29.8782 8.45187C29.9594 8.59269 30 8.75579 30 8.94118H29.292C29.292 8.86809 29.2822 8.8057 29.2626 8.75401C29.2444 8.70232 29.2143 8.6631 29.1723 8.63636C29.1303 8.60784 29.0742 8.59358 29.0042 8.59358C28.9552 8.59358 28.9104 8.60517 28.8697 8.62834C28.8305 8.65152 28.799 8.6836 28.7752 8.7246C28.7514 8.7656 28.7395 8.81373 28.7395 8.86898C28.7395 8.9082 28.7465 8.94385 28.7605 8.97594C28.7759 9.00624 28.799 9.03476 28.8298 9.0615C28.8606 9.08645 28.8999 9.10963 28.9475 9.13102C28.9951 9.15062 29.0525 9.16845 29.1197 9.18449C29.2724 9.22014 29.4153 9.27094 29.5483 9.3369C29.6814 9.40285 29.7892 9.49643 29.8718 9.61765C29.9559 9.73886 29.9979 9.90196 29.9979 10.107C29.9979 10.2353 29.9748 10.3538 29.9286 10.4626C29.8824 10.5695 29.8158 10.664 29.729 10.746C29.6422 10.8262 29.5378 10.8886 29.416 10.9332C29.2941 10.9777 29.1569 11 29.0042 11C28.7871 11 28.6036 10.951 28.4538 10.8529C28.3039 10.7531 28.1905 10.6283 28.1134 10.4786C28.0378 10.3271 28 10.1738 28 10.0187H28.6597C28.6625 10.1078 28.6793 10.1809 28.7101 10.238C28.7423 10.295 28.785 10.3369 28.8382 10.3636C28.8915 10.3904 28.9531 10.4037 29.0231 10.4037C29.0875 10.4037 29.1408 10.3922 29.1828 10.369C29.2262 10.3458 29.2591 10.3146 29.2815 10.2754C29.3039 10.2344 29.3151 10.1872 29.3151 10.1337Z" fill="#A2AEBA"/>
<path d="M29.2694 12.784V15H28.5V12.0544H29.2192L29.2694 12.784ZM30 12.0327L29.9863 12.8848C29.9559 12.8811 29.9148 12.8766 29.863 12.8711C29.8113 12.8657 29.7679 12.863 29.7329 12.863C29.6431 12.863 29.5654 12.8757 29.5 12.9011C29.4361 12.9247 29.3828 12.961 29.3402 13.01C29.2991 13.0572 29.2686 13.1171 29.2489 13.1897C29.2306 13.2623 29.2222 13.3466 29.2237 13.4428L29.0845 13.3339C29.0845 13.1361 29.1005 12.9564 29.1324 12.7949C29.1659 12.6316 29.2131 12.4909 29.274 12.373C29.3349 12.2532 29.4087 12.1615 29.4954 12.098C29.5822 12.0327 29.6796 12 29.7877 12C29.8257 12 29.863 12.0027 29.8995 12.0082C29.9376 12.0136 29.9711 12.0218 30 12.0327Z" fill="#A2AEBA"/>
<path d="M25.2694 22.784V25H24.5V22.0544H25.2192L25.2694 22.784ZM26 22.0327L25.9863 22.8848C25.9559 22.8811 25.9148 22.8766 25.863 22.8711C25.8113 22.8657 25.7679 22.863 25.7329 22.863C25.6431 22.863 25.5654 22.8757 25.5 22.9011C25.4361 22.9247 25.3828 22.961 25.3402 23.01C25.2991 23.0572 25.2686 23.1171 25.2489 23.1897C25.2306 23.2623 25.2222 23.3466 25.2237 23.4428L25.0845 23.3339C25.0845 23.1361 25.1005 22.9564 25.1324 22.7949C25.1659 22.6316 25.2131 22.4909 25.274 22.373C25.3349 22.2532 25.4087 22.1615 25.4954 22.098C25.5822 22.0327 25.6796 22 25.7877 22C25.8257 22 25.863 22.0027 25.8995 22.0082C25.9376 22.0136 25.9711 22.0218 26 22.0327Z" fill="#48A7F3"/>
<path d="M26.9727 13.8449C26.9727 13.7784 26.9527 13.7213 26.9128 13.6738C26.875 13.6239 26.8078 13.5787 26.7111 13.5383C26.6145 13.4955 26.479 13.4528 26.3046 13.41C26.1387 13.3696 25.9821 13.3161 25.8351 13.2496C25.6901 13.183 25.563 13.1022 25.4538 13.0071C25.3445 12.9121 25.2584 12.7992 25.1954 12.6684C25.1345 12.5377 25.104 12.388 25.104 12.2193C25.104 12.0553 25.1345 11.9008 25.1954 11.7558C25.2584 11.6084 25.3498 11.4789 25.4695 11.3672C25.5914 11.2531 25.7395 11.164 25.9139 11.0998C26.0882 11.0333 26.2868 11 26.5095 11C26.8162 11 27.0809 11.0535 27.3036 11.1604C27.5263 11.265 27.6975 11.4124 27.8172 11.6025C27.9391 11.7903 28 12.0077 28 12.2549H26.938C26.938 12.1575 26.9233 12.0743 26.8939 12.0053C26.8666 11.9364 26.8214 11.8841 26.7584 11.8485C26.6954 11.8105 26.6113 11.7914 26.5063 11.7914C26.4328 11.7914 26.3655 11.8069 26.3046 11.8378C26.2458 11.8687 26.1985 11.9115 26.1628 11.9661C26.1271 12.0208 26.1092 12.085 26.1092 12.1586C26.1092 12.2109 26.1197 12.2585 26.1408 12.3012C26.1639 12.3417 26.1985 12.3797 26.2447 12.4153C26.291 12.4486 26.3498 12.4795 26.4212 12.508C26.4926 12.5342 26.5788 12.5579 26.6796 12.5793C26.9086 12.6269 27.1229 12.6946 27.3225 12.7825C27.5221 12.8705 27.6838 12.9952 27.8078 13.1569C27.9338 13.3185 27.9968 13.5359 27.9968 13.8093C27.9968 13.9804 27.9622 14.1384 27.8929 14.2834C27.8235 14.426 27.7237 14.552 27.5935 14.6613C27.4632 14.7683 27.3067 14.8515 27.1239 14.9109C26.9412 14.9703 26.7353 15 26.5063 15C26.1807 15 25.9055 14.9346 25.6807 14.8039C25.4559 14.6708 25.2857 14.5045 25.1702 14.3048C25.0567 14.1028 25 13.8984 25 13.6916H25.9895C25.9937 13.8105 26.0189 13.9079 26.0651 13.984C26.1134 14.06 26.1775 14.1159 26.2574 14.1515C26.3372 14.1872 26.4296 14.205 26.5347 14.205C26.6313 14.205 26.7111 14.1895 26.7742 14.1586C26.8393 14.1277 26.8887 14.0862 26.9223 14.0339C26.9559 13.9792 26.9727 13.9162 26.9727 13.8449Z" fill="#48A7F3"/>
<path d="M7 21H8.46547C8.75192 21 9.00085 21.0458 9.21228 21.1374C9.4237 21.2289 9.58653 21.3645 9.70077 21.544C9.81671 21.7234 9.87468 21.9451 9.87468 22.2088C9.87468 22.4377 9.84143 22.6291 9.77494 22.783C9.70844 22.9368 9.61552 23.0641 9.49616 23.1648C9.37852 23.2637 9.24126 23.3452 9.0844 23.4093L8.79028 23.5879H7.5601L7.55499 22.8434H8.46547C8.57971 22.8434 8.67434 22.8214 8.74936 22.7775C8.82438 22.7335 8.88065 22.6712 8.91816 22.5907C8.95737 22.5082 8.97698 22.4103 8.97698 22.2967C8.97698 22.1813 8.95737 22.0824 8.91816 22C8.87894 21.9176 8.82097 21.8544 8.74425 21.8104C8.66922 21.7665 8.5763 21.7445 8.46547 21.7445H7.8977V25H7V21ZM9.03836 25L8.21483 23.2308L9.16624 23.2253L10 24.9588V25H9.03836Z" fill="#A2AEBA"/>
<path d="M12.6245 22.2143L11.0818 29H10L12.0223 21H12.7138L12.6245 22.2143ZM13.9145 29L12.3643 22.2143L12.2714 21H12.9665L15 29H13.9145ZM13.8439 26.0275V27.2198H10.9405V26.0275H13.8439Z" fill="#48A7F3"/>
<path d="M16.9727 25.2674C16.9727 25.1676 16.9527 25.082 16.9128 25.0107C16.875 24.9358 16.8078 24.8681 16.7111 24.8075C16.6145 24.7433 16.479 24.6791 16.3046 24.615C16.1387 24.5544 15.9821 24.4742 15.8351 24.3743C15.6901 24.2745 15.563 24.1533 15.4538 24.0107C15.3445 23.8681 15.2584 23.6988 15.1954 23.5027C15.1345 23.3066 15.104 23.082 15.104 22.8289C15.104 22.5829 15.1345 22.3512 15.1954 22.1337C15.2584 21.9127 15.3498 21.7184 15.4695 21.5508C15.5914 21.3797 15.7395 21.246 15.9139 21.1497C16.0882 21.0499 16.2868 21 16.5095 21C16.8162 21 17.0809 21.0802 17.3036 21.2406C17.5263 21.3975 17.6975 21.6185 17.8172 21.9037C17.9391 22.1854 18 22.5116 18 22.8824H16.938C16.938 22.7362 16.9233 22.6114 16.8939 22.508C16.8666 22.4046 16.8214 22.3262 16.7584 22.2727C16.6954 22.2157 16.6113 22.1872 16.5063 22.1872C16.4328 22.1872 16.3655 22.2103 16.3046 22.2567C16.2458 22.303 16.1985 22.3672 16.1628 22.4492C16.1271 22.5312 16.1092 22.6275 16.1092 22.738C16.1092 22.8164 16.1197 22.8877 16.1408 22.9519C16.1639 23.0125 16.1985 23.0695 16.2447 23.123C16.291 23.1729 16.3498 23.2193 16.4212 23.262C16.4926 23.3012 16.5788 23.3369 16.6796 23.369C16.9086 23.4403 17.1229 23.5419 17.3225 23.6738C17.5221 23.8057 17.6838 23.9929 17.8078 24.2353C17.9338 24.4777 17.9968 24.8039 17.9968 25.2139C17.9968 25.4706 17.9622 25.7077 17.8929 25.9251C17.8235 26.139 17.7237 26.328 17.5935 26.492C17.4632 26.6524 17.3067 26.7772 17.1239 26.8663C16.9412 26.9554 16.7353 27 16.5063 27C16.1807 27 15.9055 26.902 15.6807 26.7059C15.4559 26.5062 15.2857 26.2567 15.1702 25.9572C15.0567 25.6542 15 25.3476 15 25.0374H15.9895C15.9937 25.2157 16.0189 25.3619 16.0651 25.4759C16.1134 25.59 16.1775 25.6738 16.2574 25.7273C16.3372 25.7807 16.4296 25.8075 16.5347 25.8075C16.6313 25.8075 16.7111 25.7843 16.7742 25.738C16.8393 25.6916 16.8887 25.6292 16.9223 25.5508C16.9559 25.4688 16.9727 25.3743 16.9727 25.2674Z" fill="#A2AEBA"/>
<path d="M25.3151 28.8449C25.3151 28.7784 25.3018 28.7213 25.2752 28.6738C25.25 28.6239 25.2052 28.5787 25.1408 28.5383C25.0763 28.4955 24.986 28.4528 24.8697 28.41C24.7591 28.3696 24.6548 28.3161 24.5567 28.2496C24.4601 28.183 24.3754 28.1022 24.3025 28.0071C24.2297 27.9121 24.1723 27.7992 24.1303 27.6684C24.0896 27.5377 24.0693 27.388 24.0693 27.2193C24.0693 27.0553 24.0896 26.9008 24.1303 26.7558C24.1723 26.6084 24.2332 26.4789 24.313 26.3672C24.3943 26.2531 24.493 26.164 24.6092 26.0998C24.7255 26.0333 24.8578 26 25.0063 26C25.2108 26 25.3873 26.0535 25.5357 26.1604C25.6842 26.265 25.7983 26.4124 25.8782 26.6025C25.9594 26.7903 26 27.0077 26 27.2549H25.292C25.292 27.1575 25.2822 27.0743 25.2626 27.0053C25.2444 26.9364 25.2143 26.8841 25.1723 26.8485C25.1303 26.8105 25.0742 26.7914 25.0042 26.7914C24.9552 26.7914 24.9104 26.8069 24.8697 26.8378C24.8305 26.8687 24.799 26.9115 24.7752 26.9661C24.7514 27.0208 24.7395 27.085 24.7395 27.1586C24.7395 27.2109 24.7465 27.2585 24.7605 27.3012C24.7759 27.3417 24.799 27.3797 24.8298 27.4153C24.8606 27.4486 24.8999 27.4795 24.9475 27.508C24.9951 27.5342 25.0525 27.5579 25.1197 27.5793C25.2724 27.6269 25.4153 27.6946 25.5483 27.7825C25.6814 27.8705 25.7892 27.9952 25.8718 28.1569C25.9559 28.3185 25.9979 28.5359 25.9979 28.8093C25.9979 28.9804 25.9748 29.1384 25.9286 29.2834C25.8824 29.426 25.8158 29.552 25.729 29.6613C25.6422 29.7683 25.5378 29.8515 25.416 29.9109C25.2941 29.9703 25.1569 30 25.0042 30C24.7871 30 24.6036 29.9346 24.4538 29.8039C24.3039 29.6708 24.1905 29.5045 24.1134 29.3048C24.0378 29.1028 24 28.8984 24 28.6916H24.6597C24.6625 28.8105 24.6793 28.9079 24.7101 28.984C24.7423 29.06 24.785 29.1159 24.8382 29.1515C24.8915 29.1872 24.9531 29.205 25.0231 29.205C25.0875 29.205 25.1408 29.1895 25.1828 29.1586C25.2262 29.1277 25.2591 29.0862 25.2815 29.0339C25.3039 28.9792 25.3151 28.9162 25.3151 28.8449Z" fill="#A2AEBA"/>
<path d="M22.3878 26.8707L23.9714 28.2933L23.2531 29L21.6939 27.5866L22.3878 26.8707ZM24 24.2841V24.6305C24 25.1386 23.9401 25.5958 23.8204 26.0023C23.7007 26.4057 23.5293 26.749 23.3061 27.0323C23.0857 27.3156 22.8231 27.5327 22.5184 27.6836C22.2136 27.8345 21.8762 27.9099 21.5061 27.9099C21.1388 27.9099 20.8014 27.8345 20.4939 27.6836C20.1891 27.5327 19.9252 27.3156 19.702 27.0323C19.4789 26.749 19.3061 26.4057 19.1837 26.0023C19.0612 25.5958 19 25.1386 19 24.6305V24.2841C19 23.7729 19.0599 23.3156 19.1796 22.9122C19.302 22.5089 19.4735 22.1655 19.6939 21.8822C19.917 21.5958 20.181 21.3772 20.4857 21.2263C20.7932 21.0754 21.1306 21 21.498 21C21.868 21 22.2054 21.0754 22.5102 21.2263C22.8177 21.3772 23.0816 21.5958 23.302 21.8822C23.5252 22.1655 23.6966 22.5089 23.8163 22.9122C23.9388 23.3156 24 23.7729 24 24.2841ZM22.8653 24.6305V24.2748C22.8653 23.9084 22.8354 23.5866 22.7755 23.3095C22.7156 23.0293 22.6259 22.7937 22.5061 22.6028C22.3891 22.4119 22.2463 22.2687 22.0776 22.1732C21.9088 22.0747 21.7156 22.0254 21.498 22.0254C21.283 22.0254 21.0912 22.0747 20.9224 22.1732C20.7537 22.2687 20.6109 22.4119 20.4939 22.6028C20.3769 22.7937 20.2871 23.0293 20.2245 23.3095C20.1646 23.5866 20.1347 23.9084 20.1347 24.2748V24.6305C20.1347 24.9938 20.1646 25.3156 20.2245 25.5958C20.2871 25.8761 20.3769 26.1132 20.4939 26.3072C20.6136 26.4981 20.7578 26.6428 20.9265 26.7413C21.098 26.8399 21.2912 26.8891 21.5061 26.8891C21.7238 26.8891 21.917 26.8399 22.0857 26.7413C22.2544 26.6428 22.3959 26.4981 22.5102 26.3072C22.6272 26.1132 22.7156 25.8761 22.7755 25.5958C22.8354 25.3156 22.8653 24.9938 22.8653 24.6305Z" fill="#50C587"/>
<path d="M7.86311 26V30H7V26H7.86311ZM10 26L8.61311 28.0275L7.80164 29.0192L7.64426 28.1346L8.16311 27.2555L8.93525 26H10ZM8.97951 30L8.05492 28.1978L8.72623 27.6456L10 30H8.97951Z" fill="#50C587"/>
<path d="M32 17H4V4H32V17ZM5.07692 15.7H30.9231V5.3H5.07692V15.7Z" fill="#CAD6E2"/>
<path d="M32 32H4V19H32V32ZM5.07692 30.7H30.9231V20.3H5.07692V30.7Z" fill="#CAD6E2"/>
</svg>
