<svg width="36" height="36" viewBox="0 0 36 36" fill="none" xmlns="http://www.w3.org/2000/svg">
<path d="M30.3738 29.2175V25.6595C30.3738 25.3981 30.3404 25.1723 30.2735 24.9822C30.2066 24.792 30.1045 24.6447 29.9673 24.5401C29.83 24.4355 29.6558 24.3832 29.4446 24.3832C29.258 24.3832 29.0943 24.426 28.9535 24.5116C28.8163 24.5971 28.7107 24.7184 28.6367 24.8752C28.5628 25.0273 28.5259 25.2032 28.5259 25.4029H27.1267C27.1267 25.0844 27.183 24.7825 27.2957 24.4973C27.4083 24.2074 27.5685 23.9507 27.7761 23.7273C27.9873 23.4991 28.239 23.3209 28.5312 23.1925C28.8268 23.0642 29.1577 23 29.5238 23C29.9567 23 30.3421 23.0998 30.68 23.2995C31.0215 23.4944 31.289 23.7891 31.4826 24.1836C31.6797 24.5781 31.7782 25.0749 31.7782 25.6738V29.0392C31.7782 29.4242 31.7958 29.7546 31.831 30.0303C31.8698 30.3012 31.9261 30.5365 32 30.7362V30.8574H30.5797C30.5128 30.6625 30.4618 30.4153 30.4266 30.1159C30.3914 29.8116 30.3738 29.5122 30.3738 29.2175ZM30.5692 26.1586L30.5797 27.2781H29.698C29.4798 27.2781 29.2879 27.309 29.1225 27.3708C28.9571 27.4278 28.8215 27.5134 28.7159 27.6275C28.6103 27.7368 28.5312 27.8699 28.4784 28.0267C28.4256 28.1788 28.3992 28.3523 28.3992 28.5472C28.3992 28.7374 28.4308 28.9085 28.4942 29.0606C28.5611 29.2127 28.6561 29.3339 28.7793 29.4242C28.906 29.5098 29.0539 29.5526 29.2228 29.5526C29.4692 29.5526 29.6839 29.486 29.8669 29.3529C30.05 29.2151 30.1925 29.0487 30.2946 28.8538C30.3967 28.6589 30.4512 28.4736 30.4583 28.2977L30.8596 29.1105C30.8103 29.3054 30.7364 29.5122 30.6378 29.7308C30.5392 29.9495 30.4125 30.1539 30.2577 30.344C30.1028 30.5342 29.9162 30.691 29.698 30.8146C29.4798 30.9382 29.2263 31 28.9377 31C28.5681 31 28.2372 30.9002 27.9451 30.7005C27.6529 30.5009 27.4224 30.2276 27.2534 29.8806C27.0845 29.5336 27 29.139 27 28.697C27 28.2882 27.0563 27.9269 27.169 27.6132C27.2816 27.2995 27.4488 27.0357 27.6705 26.8217C27.8923 26.6031 28.1668 26.4391 28.4942 26.3298C28.8251 26.2157 29.2034 26.1586 29.6294 26.1586H30.5692Z" fill="#CAD6E2"/>
<path d="M8.26982 19.1571H10V27.3953C10 28.1649 9.84621 28.8168 9.53862 29.3508C9.23584 29.8901 8.8105 30.2984 8.26262 30.5759C7.71473 30.8586 7.07793 31 6.35221 31C6.03982 31 5.701 30.9529 5.33574 30.8586C4.97528 30.7644 4.62685 30.6152 4.29042 30.411C3.95881 30.212 3.68246 29.9529 3.46138 29.6335L4.31926 28.4084C4.57878 28.7382 4.87195 28.9869 5.19876 29.1545C5.52558 29.3272 5.87882 29.4136 6.2585 29.4136C6.64298 29.4136 6.96979 29.3351 7.23893 29.178C7.51287 29.0262 7.72194 28.801 7.86612 28.5026C8.0151 28.2094 8.0896 27.8482 8.0896 27.4188V21.0969L8.26982 19.1571ZM3 23.5079V23.3429C3 22.6937 3.07209 22.1047 3.21627 21.5759C3.36045 21.0419 3.56711 20.5838 3.83625 20.2016C4.1102 19.8194 4.43941 19.5236 4.82389 19.3141C5.21318 19.1047 5.65053 19 6.13594 19C6.65019 19 7.08273 19.1021 7.43357 19.3063C7.78922 19.5105 8.08239 19.801 8.31308 20.178C8.54858 20.555 8.7312 21.0026 8.86097 21.5209C8.99554 22.034 9.09887 22.5995 9.17096 23.2173V23.6649C9.10367 24.267 8.99554 24.8194 8.84655 25.322C8.70237 25.8246 8.51013 26.2644 8.26982 26.6414C8.02952 27.0131 7.73155 27.301 7.3759 27.5052C7.02025 27.7094 6.60213 27.8115 6.12152 27.8115C5.64092 27.8115 5.20838 27.7042 4.82389 27.4895C4.43941 27.2749 4.1102 26.9738 3.83625 26.5864C3.56711 26.199 3.36045 25.7435 3.21627 25.2199C3.07209 24.6963 3 24.1257 3 23.5079ZM4.90319 23.3429V23.5079C4.90319 23.8743 4.93683 24.2173 5.00412 24.5366C5.0714 24.856 5.17473 25.1387 5.31411 25.3848C5.45348 25.6257 5.62891 25.8141 5.84037 25.9503C6.05184 26.0864 6.30415 26.1544 6.59732 26.1544C6.99142 26.1544 7.31342 26.0654 7.56334 25.8874C7.81806 25.7042 8.0103 25.4555 8.14006 25.1414C8.27463 24.822 8.36114 24.4634 8.39959 24.0654V22.8325C8.37556 22.5183 8.32269 22.2277 8.24099 21.9607C8.16409 21.6937 8.05596 21.4634 7.91658 21.2696C7.77721 21.0759 7.59938 20.9241 7.38311 20.8141C7.16684 20.7042 6.90972 20.6492 6.61174 20.6492C6.32338 20.6492 6.07106 20.7199 5.85479 20.8613C5.63852 20.9974 5.46069 21.1885 5.32132 21.4346C5.18194 21.6806 5.07621 21.966 5.00412 22.2906C4.93683 22.6152 4.90319 22.966 4.90319 23.3429Z" fill="#A2AEBA"/>
<path d="M30.7642 13.1178H32V19.2965C32 19.8737 31.8901 20.3626 31.6704 20.7631C31.4542 21.1675 31.1504 21.4738 30.759 21.6819C30.3677 21.894 29.9128 22 29.3944 22C29.1713 22 28.9293 21.9647 28.6684 21.894C28.4109 21.8233 28.162 21.7114 27.9217 21.5582C27.6849 21.409 27.4875 21.2147 27.3296 20.9751L27.9423 20.0563C28.1277 20.3037 28.3371 20.4902 28.5705 20.6158C28.804 20.7454 29.0563 20.8102 29.3275 20.8102C29.6021 20.8102 29.8356 20.7513 30.0278 20.6335C30.2235 20.5196 30.3728 20.3508 30.4758 20.127C30.5822 19.9071 30.6354 19.6361 30.6354 19.3141V14.5726L30.7642 13.1178ZM27 16.3809V16.2572C27 15.7703 27.0515 15.3285 27.1545 14.9319C27.2575 14.5314 27.4051 14.1878 27.5973 13.9012C27.793 13.6145 28.0281 13.3927 28.3028 13.2356C28.5808 13.0785 28.8932 13 29.24 13C29.6073 13 29.9162 13.0766 30.1668 13.2297C30.4209 13.3829 30.6303 13.6008 30.7951 13.8835C30.9633 14.1662 31.0937 14.502 31.1864 14.8907C31.2825 15.2755 31.3563 15.6996 31.4078 16.163V16.4987C31.3598 16.9503 31.2825 17.3645 31.1761 17.7415C31.0731 18.1185 30.9358 18.4483 30.7642 18.731C30.5925 19.0098 30.3797 19.2258 30.1256 19.3789C29.8716 19.5321 29.5729 19.6086 29.2297 19.6086C28.8864 19.6086 28.5774 19.5281 28.3028 19.3671C28.0281 19.2062 27.793 18.9804 27.5973 18.6898C27.4051 18.3992 27.2575 18.0576 27.1545 17.6649C27.0515 17.2723 27 16.8442 27 16.3809ZM28.3594 16.2572V16.3809C28.3594 16.6558 28.3835 16.913 28.4315 17.1525C28.4796 17.392 28.5534 17.6041 28.6529 17.7886C28.7525 17.9692 28.8778 18.1106 29.0288 18.2127C29.1799 18.3148 29.3601 18.3658 29.5695 18.3658C29.851 18.3658 30.081 18.2991 30.2595 18.1656C30.4415 18.0281 30.5788 17.8416 30.6715 17.606C30.7676 17.3665 30.8294 17.0975 30.8568 16.7991V15.8743C30.8397 15.6387 30.8019 15.4208 30.7436 15.2205C30.6886 15.0203 30.6114 14.8475 30.5118 14.7022C30.4123 14.5569 30.2853 14.4431 30.1308 14.3606C29.9763 14.2781 29.7927 14.2369 29.5798 14.2369C29.3738 14.2369 29.1936 14.2899 29.0391 14.3959C28.8847 14.498 28.7576 14.6414 28.6581 14.8259C28.5585 15.0105 28.483 15.2245 28.4315 15.4679C28.3835 15.7114 28.3594 15.9745 28.3594 16.2572Z" fill="#48A7F3"/>
<path d="M21.7559 5H25V22.0339C25 23.995 24.7169 25.645 24.1506 26.9837C23.5844 28.3107 22.8137 29.3148 21.8385 29.9959C20.8633 30.6653 19.7544 31 18.5118 31C17.2535 31 16.1328 30.6653 15.1497 29.9959C14.1667 29.3148 13.3959 28.3107 12.8376 26.9837C12.2792 25.645 12 23.995 12 22.0339V5H15.2441V22.0339C15.2441 23.2317 15.3778 24.2123 15.6452 24.9756C15.9126 25.7272 16.2901 26.285 16.7777 26.649C17.2653 27.0131 17.8433 27.1951 18.5118 27.1951C19.1881 27.1951 19.7662 27.0131 20.2459 26.649C20.7335 26.285 21.1071 25.7272 21.3666 24.9756C21.6261 24.2123 21.7559 23.2317 21.7559 22.0339V5Z" fill="#50C587"/>
<path d="M6.66028 15.59C6.93859 15.59 7.18708 15.505 7.40575 15.3351C7.62442 15.1652 7.79837 14.9257 7.92758 14.6168C8.06177 14.3078 8.13383 13.9486 8.14377 13.5392H10C9.99006 14.3889 9.836 15.1497 9.53781 15.8217C9.23962 16.4938 8.84203 17.0267 8.34505 17.4207C7.85303 17.8069 7.30138 18 6.6901 18C6.06887 18 5.52716 17.8378 5.06496 17.5134C4.60277 17.1889 4.21761 16.7371 3.90948 16.1578C3.60632 15.5784 3.37771 14.9064 3.22364 14.1417C3.07455 13.377 3 12.5582 3 11.6854V11.3146C3 10.4418 3.07455 9.62299 3.22364 8.85829C3.37771 8.09358 3.60632 7.42157 3.90948 6.84225C4.21761 6.26292 4.60277 5.81105 5.06496 5.48663C5.52716 5.16221 6.06638 5 6.68264 5C7.33369 5 7.90522 5.19697 8.39723 5.59091C8.89421 5.98485 9.28186 6.541 9.56017 7.25936C9.84345 7.97772 9.99006 8.82353 10 9.79679H8.14377C8.13383 9.34878 8.06922 8.94712 7.94995 8.5918C7.83067 8.23648 7.6617 7.95068 7.44302 7.7344C7.22435 7.51812 6.95847 7.40998 6.64537 7.40998C6.31239 7.40998 6.03408 7.51812 5.81044 7.7344C5.59176 7.95068 5.42031 8.24807 5.29606 8.62656C5.17678 8.99733 5.0923 9.41444 5.0426 9.8779C4.99787 10.3336 4.97551 10.8125 4.97551 11.3146V11.6854C4.97551 12.1952 4.99787 12.6818 5.0426 13.1453C5.0923 13.6087 5.17678 14.0258 5.29606 14.3966C5.42031 14.7597 5.59176 15.0493 5.81044 15.2656C6.03408 15.4819 6.31736 15.59 6.66028 15.59Z" fill="#48A7F3"/>
</svg>
