<?xml version="1.0" standalone="no"?>
<!DOCTYPE svg PUBLIC "-//W3C//DTD SVG 20010904//EN"
 "http://www.w3.org/TR/2001/REC-SVG-20010904/DTD/svg10.dtd">
<svg version="1.0" xmlns="http://www.w3.org/2000/svg"
 width="624.000000pt" height="624.000000pt" viewBox="0 0 624.000000 624.000000"
 preserveAspectRatio="xMidYMid meet">
<metadata>
Created by potrace 1.11, written by Peter Selinger 2001-2013
</metadata>
<g transform="translate(0.000000,624.000000) scale(0.100000,-0.100000)"
fill="#000000" stroke="none">
<path d="M495 6148 c-22 -5 -47 -12 -55 -15 -8 -3 -20 -7 -25 -8 -6 -2 -42
-18 -80 -36 -101 -49 -219 -168 -268 -271 -20 -42 -39 -87 -41 -100 -3 -12 -5
-23 -6 -23 -7 0 -12 -56 -15 -139 -2 -75 2 -117 17 -170 21 -78 77 -188 117
-233 199 -219 302 -413 349 -658 8 -41 7 -283 -1 -320 -4 -16 -9 -43 -13 -60
-8 -43 -53 -174 -73 -215 -53 -106 -138 -241 -170 -270 -10 -9 -96 -114 -122
-150 -74 -101 -113 -238 -105 -374 2 -50 5 -91 6 -91 2 0 4 -9 5 -20 8 -60 99
-235 140 -270 17 -15 135 -162 135 -170 0 -3 8 -15 19 -26 28 -31 118 -216
140 -289 40 -136 45 -174 46 -310 0 -173 -25 -287 -95 -437 -36 -78 -129 -230
-161 -263 -27 -29 -105 -125 -130 -160 -105 -150 -135 -352 -79 -532 13 -43
27 -78 32 -78 4 0 8 -6 8 -13 0 -39 114 -171 197 -228 52 -36 159 -86 200 -94
15 -2 39 -7 53 -10 37 -7 159 -7 205 0 110 19 241 85 322 163 64 63 93 98 93
111 0 5 3 11 7 13 12 5 50 86 68 143 46 148 30 318 -45 466 -13 24 -26 46 -29
49 -4 3 -31 37 -61 75 -30 39 -59 75 -65 82 -19 24 -31 38 -70 93 -22 30 -43
56 -47 58 -5 2 -8 8 -8 14 0 5 -13 29 -30 53 -55 79 -116 221 -137 315 -27
124 -23 281 11 439 17 76 101 281 118 289 5 2 8 10 8 18 0 8 5 14 10 14 6 0
10 5 10 10 0 20 85 125 160 198 41 41 111 98 156 128 81 54 220 124 246 124 8
0 18 4 23 9 12 10 127 37 206 48 95 12 342 5 369 -12 4 -2 18 -6 33 -9 15 -4
38 -8 52 -11 13 -3 37 -10 52 -17 16 -6 33 -12 38 -13 22 -5 150 -68 189 -93
77 -50 157 -114 224 -180 37 -37 85 -76 107 -87 22 -11 42 -22 45 -25 11 -11
139 -51 181 -56 96 -12 182 -5 276 22 29 8 56 14 59 13 4 0 10 4 13 9 3 5 25
19 48 30 60 31 153 111 188 163 16 24 33 46 36 49 15 12 50 94 69 161 42 153
16 359 -62 471 -10 14 -18 31 -18 36 0 6 -3 12 -7 14 -5 2 -21 21 -37 43 -16
22 -71 92 -123 156 -107 134 -191 264 -217 335 -10 27 -20 56 -23 64 -44 114
-47 369 -7 502 3 9 7 25 9 35 8 40 58 168 87 221 136 252 366 445 638 536 119
40 312 70 370 57 3 -1 35 -3 72 -5 255 -15 570 -164 724 -342 354 -408 396
-942 108 -1374 -24 -36 -60 -83 -80 -105 -57 -62 -126 -148 -132 -165 -3 -8
-11 -22 -19 -32 -8 -9 -16 -22 -17 -30 -2 -7 -8 -25 -14 -40 -33 -80 -47 -246
-28 -337 25 -119 106 -260 188 -329 17 -14 35 -30 42 -36 23 -22 96 -66 109
-66 7 0 17 -4 23 -9 14 -13 103 -40 154 -46 95 -12 129 -11 211 5 167 35 298
120 390 255 59 87 80 138 106 265 4 23 3 142 -2 170 -32 181 -112 310 -262
420 -81 60 -191 254 -229 405 -4 17 -9 37 -11 45 -14 50 -29 207 -27 274 4
118 15 199 39 286 1 3 5 19 10 35 35 135 133 290 226 357 114 84 196 198 235
324 23 78 28 250 8 324 -17 64 -73 190 -85 190 -4 0 -10 8 -13 18 -18 55 -185
186 -276 217 -3 1 -12 5 -20 8 -43 20 -154 35 -235 32 -168 -6 -294 -64 -435
-201 -126 -121 -252 -198 -416 -253 -115 -38 -197 -52 -314 -54 -85 -1 -125 2
-236 18 -61 8 -221 68 -304 112 -106 57 -123 69 -224 165 -44 43 -92 85 -106
95 -14 9 -27 19 -30 22 -8 9 -90 48 -137 65 -65 24 -91 28 -193 30 -171 4
-314 -52 -439 -172 -140 -136 -270 -219 -428 -276 -40 -14 -73 -23 -73 -20 0
2 -8 0 -17 -5 -10 -5 -35 -12 -55 -15 -21 -3 -54 -9 -75 -12 -171 -27 -414 9
-583 89 -36 16 -68 29 -72 29 -5 -1 -8 2 -8 8 0 6 -5 10 -11 10 -22 0 -137 87
-212 159 -116 113 -208 167 -336 196 -62 15 -198 16 -256 3z m1335 -708 c8 5
18 6 22 4 4 -3 39 -7 76 -9 54 -4 203 -36 267 -58 71 -25 174 -78 255 -132 69
-46 206 -175 250 -234 14 -19 30 -39 35 -45 6 -7 16 -23 24 -36 124 -213 171
-374 170 -590 0 -119 1 -117 -16 -200 -54 -285 -207 -526 -443 -701 -32 -23
-168 -103 -180 -105 -3 0 -18 -6 -35 -13 -63 -28 -112 -45 -125 -43 -3 0 -12
-4 -21 -9 -9 -5 -32 -11 -50 -13 -19 -3 -56 -9 -82 -14 -48 -10 -277 -9 -332
1 -16 3 -52 11 -80 17 -27 6 -57 13 -65 15 -65 14 -226 92 -324 158 -70 47
-266 239 -266 261 0 2 -16 28 -35 56 -86 128 -144 294 -164 466 -11 103 -2
296 18 362 1 1 1 3 1 5 -1 11 37 125 61 179 31 74 101 200 128 228 9 10 23 27
32 39 18 24 96 106 131 137 165 147 399 247 633 270 33 3 61 7 64 9 2 2 11 0
20 -5 10 -5 23 -5 31 0z"/>
<path d="M2888 1315 c-211 -60 -358 -200 -429 -405 -17 -49 -23 -92 -25 -175
-2 -96 1 -120 24 -191 43 -128 109 -224 213 -307 52 -42 175 -101 234 -112 22
-5 47 -10 55 -11 8 -2 47 -4 85 -4 128 -2 242 31 350 103 63 42 157 134 179
177 52 100 66 131 79 180 23 91 20 241 -7 325 -1 6 -7 24 -11 40 -12 44 -82
157 -125 203 -74 78 -211 163 -285 176 -13 3 -29 8 -35 11 -6 4 -59 8 -118 10
-87 2 -122 -2 -184 -20z"/>
</g>
</svg>
