<?xml version="1.0" encoding="UTF-8"?>
<svg xmlns="http://www.w3.org/2000/svg" viewBox="0 0 500 900" width="500" height="900" font-family="sans-serif" font-size="15">
  <style>
    text { fill: #222; }
    .label { font-size: 15px; }
    .io { font-size: 13px; fill: #444; }
    .myworkflow { fill: #729fcf; fill-opacity: 0.18; stroke: #3465a4; stroke-width: 1; }
    .workflow1 { fill: #afd095; stroke: #ff4000; stroke-width: 2.5; }
    .workflow2 { fill: #ffe994; stroke: #ff4000; stroke-width: 2.5; }
    .base { fill: #dee7e5; stroke: #ff4000; stroke-width: 2.5; }
    .to { fill: #dee7e5; stroke: #3465a4; stroke-width: 1; }
    .arrow { fill: none; stroke: #3465a4; stroke-width: 1.4; }
    .head { fill: #3465a4; stroke: none; }
  </style>

  <!-- myworkflow outer -->
  <rect x="10" y="10" width="480" height="880" rx="4" class="myworkflow"/>
  <text x="22" y="34" class="label">myworkflow</text>

  <!-- ====== workflow1 ====== -->
  <rect x="30" y="50" width="440" height="390" rx="4" class="workflow1"/>
  <text x="42" y="76" class="label">workflow1</text>

  <!-- script1 #1 (base match) -->
  <rect x="120" y="90" width="240" height="50" rx="4" class="base"/>
  <text x="240" y="121" text-anchor="middle" class="label">script1</text>
  <text x="368" y="121" class="io">Output1</text>

  <!-- script2 #1 (to match) -->
  <rect x="120" y="180" width="240" height="50" rx="4" class="to"/>
  <text x="240" y="211" text-anchor="middle" class="label">script2</text>
  <text x="112" y="211" text-anchor="end" class="io">Input1</text>

  <!-- arrow 1: Output1 → Input1 -->
  <path d="M 360,115 H 400 V 160 H 80 V 205 H 118" class="arrow"/>
  <path d="M 120,205 l -8,-5 v 10 z" class="head"/>

  <!-- script1 #2 (base match) -->
  <rect x="120" y="280" width="240" height="50" rx="4" class="base"/>
  <text x="240" y="311" text-anchor="middle" class="label">script1</text>
  <text x="368" y="311" class="io">Output1</text>

  <!-- script2 #2 (to match) -->
  <rect x="120" y="370" width="240" height="50" rx="4" class="to"/>
  <text x="240" y="401" text-anchor="middle" class="label">script2</text>
  <text x="112" y="401" text-anchor="end" class="io">Input1</text>

  <!-- arrow 2 -->
  <path d="M 360,305 H 400 V 350 H 80 V 395 H 118" class="arrow"/>
  <path d="M 120,395 l -8,-5 v 10 z" class="head"/>

  <!-- ====== workflow2 ====== -->
  <rect x="30" y="470" width="440" height="390" rx="4" class="workflow2"/>
  <text x="42" y="496" class="label">workflow2</text>

  <!-- script1 #1 (base match) -->
  <rect x="120" y="510" width="240" height="50" rx="4" class="base"/>
  <text x="240" y="541" text-anchor="middle" class="label">script1</text>
  <text x="368" y="541" class="io">Output1</text>

  <!-- script2 #1 (to match) -->
  <rect x="120" y="600" width="240" height="50" rx="4" class="to"/>
  <text x="240" y="631" text-anchor="middle" class="label">script2</text>
  <text x="112" y="631" text-anchor="end" class="io">Input1</text>

  <!-- arrow 3 -->
  <path d="M 360,535 H 400 V 580 H 80 V 625 H 118" class="arrow"/>
  <path d="M 120,625 l -8,-5 v 10 z" class="head"/>

  <!-- script1 #2 (base match) -->
  <rect x="120" y="700" width="240" height="50" rx="4" class="base"/>
  <text x="240" y="731" text-anchor="middle" class="label">script1</text>
  <text x="368" y="731" class="io">Output1</text>

  <!-- script2 #2 (to match) -->
  <rect x="120" y="790" width="240" height="50" rx="4" class="to"/>
  <text x="240" y="821" text-anchor="middle" class="label">script2</text>
  <text x="112" y="821" text-anchor="end" class="io">Input1</text>

  <!-- arrow 4 -->
  <path d="M 360,725 H 400 V 770 H 80 V 815 H 118" class="arrow"/>
  <path d="M 120,815 l -8,-5 v 10 z" class="head"/>
</svg>
