<svg width="24" height="24" viewBox="0 0 24 24" fill="none" xmlns="http://www.w3.org/2000/svg">
<path d="M5 5.5L5 16.5C5 17.3438 5.65625 18 6.5 18H19.5C19.75 18 20 18.25 20 18.5C20 18.7812 19.75 19 19.5 19H6.5C5.09375 19 4 17.9062 4 16.5L4 5.5C4 5.25 4.21875 5 4.5 5C4.75 5 5 5.25 5 5.5ZM18.8438 8.875L14.3438 13.375C14.1562 13.5625 13.8125 13.5625 13.625 13.375L11 10.7188L7.84375 13.875C7.65625 14.0625 7.3125 14.0625 7.125 13.875C6.9375 13.6875 6.9375 13.3438 7.125 13.1562L10.625 9.65625C10.8125 9.46875 11.1562 9.46875 11.3438 9.65625L14 12.3125L18.125 8.15625C18.3125 7.96875 18.6562 7.96875 18.8438 8.15625C19.0312 8.34375 19.0312 8.6875 18.8438 8.875Z" fill="#40607F"/>
<circle cx="18.1111" cy="8.83958" r="1.5" fill="#40607F"/>
<circle cx="11" cy="10" r="1.5" fill="#40607F"/>
<circle cx="14" cy="13" r="1.5" fill="#40607F"/>
<circle cx="7" cy="14" r="1.5" fill="#40607F"/>
</svg>
