<svg width="24" height="24" viewBox="0 0 24 24" fill="none" xmlns="http://www.w3.org/2000/svg">
<path d="M5 5.5L5 16.5C5 17.3438 5.65625 18 6.5 18H19.5C19.75 18 20 18.25 20 18.5C20 18.7813 19.75 19 19.5 19H6.5C5.09375 19 4 17.9063 4 16.5L4 5.5C4 5.25 4.21875 5 4.5 5C4.75 5 5 5.25 5 5.5ZM15.5 7C15.2188 7 15 6.78125 15 6.5C15 6.25 15.2188 6 15.5 6L18.5 6C18.75 6 19 6.25 19 6.5V9.5C19 9.78125 18.75 10 18.5 10C18.2188 10 18 9.78125 18 9.5V7.71875L13.3438 12.375C13.1562 12.5625 12.8125 12.5625 12.625 12.375L10.5 10.2188L7.84375 12.875C7.65625 13.0625 7.3125 13.0625 7.125 12.875C6.9375 12.6875 6.9375 12.3438 7.125 12.1563L10.125 9.15625C10.2188 9.0625 10.3438 9 10.5 9C10.625 9 10.75 9.0625 10.8438 9.15625L13 11.3125L17.2812 7L15.5 7ZM15.5 16C15.2188 16 15 15.7813 15 15.5C15 15.25 15.2188 15 15.5 15H17.2812L15.125 12.875L15.8438 12.1563L18 14.3125V12.5C18 12.25 18.2188 12 18.5 12C18.75 12 19 12.25 19 12.5V15.5C19 15.7813 18.75 16 18.5 16H15.5Z" fill="#40607F"/>
</svg>
