<?xml version="1.0" encoding="UTF-8" standalone="no"?><svg xmlns="http://www.w3.org/2000/svg" xmlns:xlink="http://www.w3.org/1999/xlink" contentStyleType="text/css" height="500.3241px" preserveAspectRatio="none" style="width:248px;height:500px;background:#FFFFFF;" version="1.1" viewBox="0 0 248 500" width="248.0456px" zoomAndPan="magnify"><defs/><g><ellipse cx="123.5995" cy="16.9314" fill="#222222" rx="8.4657" ry="8.4657" style="stroke:#222222;stroke-width:0.8465720446037647;"/><rect fill="#F1F1F1" height="28.757" rx="10.5822" ry="10.5822" style="stroke:#181818;stroke-width:0.42328602230188234;" width="76.1915" x="85.5038" y="42.3286"/><text fill="#000000" font-family="sans-serif" font-size="10.1589" lengthAdjust="spacing" textLength="59.26" x="93.9695" y="60.224">Developers</text><rect fill="#F1F1F1" height="28.757" rx="10.5822" ry="10.5822" style="stroke:#181818;stroke-width:0.42328602230188234;" width="138.8378" x="54.1806" y="88.017"/><text fill="#000000" font-family="sans-serif" font-size="10.1589" lengthAdjust="spacing" textLength="121.9064" x="62.6463" y="105.9124">Commit and push code</text><rect fill="#F1F1F1" height="28.757" rx="10.5822" ry="10.5822" style="stroke:#181818;stroke-width:0.42328602230188234;" width="228.5745" x="9.3123" y="133.7055"/><text fill="#000000" font-family="sans-serif" font-size="10.1589" lengthAdjust="spacing" textLength="211.643" x="17.778" y="151.6009">GitHub Actions 'Tools Package' job start</text><rect fill="#F1F1F1" height="28.757" rx="10.5822" ry="10.5822" style="stroke:#181818;stroke-width:0.42328602230188234;" width="153.2295" x="46.9847" y="179.3939"/><text fill="#000000" font-family="sans-serif" font-size="10.1589" lengthAdjust="spacing" textLength="136.2981" x="55.4505" y="197.2893">Install npm dependencies</text><rect fill="#F1F1F1" height="28.757" rx="10.5822" ry="10.5822" style="stroke:#181818;stroke-width:0.42328602230188234;" width="198.9444" x="24.1273" y="225.0823"/><text fill="#000000" font-family="sans-serif" font-size="10.1589" lengthAdjust="spacing" textLength="182.013" x="32.593" y="242.9778">Build npm package datagrok-tools</text><rect fill="#F1F1F1" height="28.757" rx="10.5822" ry="10.5822" style="stroke:#181818;stroke-width:0.42328602230188234;" width="138.8378" x="54.1806" y="352.7229"/><text fill="#000000" font-family="sans-serif" font-size="10.1589" lengthAdjust="spacing" textLength="121.9064" x="62.6463" y="370.6183">Publish to NPM registry</text><polygon fill="#F1F1F1" points="49.5245,311.7468,197.6746,311.7468,207.8334,321.9057,197.6746,332.0646,49.5245,332.0646,39.3656,321.9057,49.5245,311.7468" style="stroke:#181818;stroke-width:0.42328602230188234;"/><text fill="#000000" font-family="sans-serif" font-size="9.3123" lengthAdjust="spacing" textLength="12.6986" x="126.9858" y="340.7085">No</text><text fill="#000000" font-family="sans-serif" font-size="9.3123" lengthAdjust="spacing" textLength="148.1501" x="49.5245" y="325.1295">Version already exists in NPM?</text><text fill="#000000" font-family="sans-serif" font-size="9.3123" lengthAdjust="spacing" textLength="17.778" x="207.8334" y="319.7095">Yes</text><polygon fill="#F1F1F1" points="123.5995,398.4114,133.7584,408.5702,123.5995,418.7291,113.4407,408.5702,123.5995,398.4114" style="stroke:#181818;stroke-width:0.42328602230188234;"/><polygon fill="#F1F1F1" points="85.9271,270.7708,161.272,270.7708,171.4308,280.9296,161.272,291.0885,85.9271,291.0885,75.7682,280.9296,85.9271,270.7708" style="stroke:#181818;stroke-width:0.42328602230188234;"/><text fill="#000000" font-family="sans-serif" font-size="9.3123" lengthAdjust="spacing" textLength="17.778" x="126.9858" y="299.7324">Yes</text><text fill="#000000" font-family="sans-serif" font-size="9.3123" lengthAdjust="spacing" textLength="75.3449" x="85.9271" y="284.1535">Branch Master?</text><text fill="#000000" font-family="sans-serif" font-size="9.3123" lengthAdjust="spacing" textLength="12.6986" x="171.4308" y="278.7334">No</text><polygon fill="#F1F1F1" points="123.5995,435.6605,133.7584,445.8194,123.5995,455.9783,113.4407,445.8194,123.5995,435.6605" style="stroke:#181818;stroke-width:0.42328602230188234;"/><ellipse cx="123.5995" cy="482.222" fill="none" rx="9.3123" ry="9.3123" style="stroke:#222222;stroke-width:0.8465720446037647;"/><ellipse cx="123.5995" cy="482.222" fill="#222222" rx="5.0794" ry="5.0794" style="stroke:#111111;stroke-width:0.8465720446037647;"/><line style="stroke:#181818;stroke-width:0.8465720446037647;" x1="123.5995" x2="123.5995" y1="25.3972" y2="42.3286"/><polygon fill="#181818" points="120.2132,33.8629,123.5995,42.3286,126.9858,33.8629,123.5995,37.2492" style="stroke:#181818;stroke-width:0.8465720446037647;"/><line style="stroke:#181818;stroke-width:0.8465720446037647;" x1="123.5995" x2="123.5995" y1="71.0856" y2="88.017"/><polygon fill="#181818" points="120.2132,79.5513,123.5995,88.017,126.9858,79.5513,123.5995,82.9376" style="stroke:#181818;stroke-width:0.8465720446037647;"/><line style="stroke:#181818;stroke-width:0.8465720446037647;" x1="123.5995" x2="123.5995" y1="116.774" y2="133.7055"/><polygon fill="#181818" points="120.2132,125.2398,123.5995,133.7055,126.9858,125.2398,123.5995,128.626" style="stroke:#181818;stroke-width:0.8465720446037647;"/><line style="stroke:#181818;stroke-width:0.8465720446037647;" x1="123.5995" x2="123.5995" y1="162.4625" y2="179.3939"/><polygon fill="#181818" points="120.2132,170.9282,123.5995,179.3939,126.9858,170.9282,123.5995,174.3145" style="stroke:#181818;stroke-width:0.8465720446037647;"/><line style="stroke:#181818;stroke-width:0.8465720446037647;" x1="123.5995" x2="123.5995" y1="208.1509" y2="225.0823"/><polygon fill="#181818" points="120.2132,216.6166,123.5995,225.0823,126.9858,216.6166,123.5995,220.0029" style="stroke:#181818;stroke-width:0.8465720446037647;"/><line style="stroke:#181818;stroke-width:0.8465720446037647;" x1="123.5995" x2="123.5995" y1="332.0646" y2="352.7229"/><polygon fill="#181818" points="120.2132,344.2572,123.5995,352.7229,126.9858,344.2572,123.5995,347.6435" style="stroke:#181818;stroke-width:0.8465720446037647;"/><line style="stroke:#181818;stroke-width:0.8465720446037647;" x1="207.8334" x2="217.9923" y1="321.9057" y2="321.9057"/><polygon fill="#181818" points="214.606,358.6357,217.9923,367.1014,221.3786,358.6357,217.9923,362.022" style="stroke:#181818;stroke-width:0.8465720446037647;"/><line style="stroke:#181818;stroke-width:0.8465720446037647;" x1="217.9923" x2="217.9923" y1="321.9057" y2="408.5702"/><line style="stroke:#181818;stroke-width:0.8465720446037647;" x1="217.9923" x2="133.7584" y1="408.5702" y2="408.5702"/><polygon fill="#181818" points="142.2241,405.1839,133.7584,408.5702,142.2241,411.9565,138.8378,408.5702" style="stroke:#181818;stroke-width:0.8465720446037647;"/><line style="stroke:#181818;stroke-width:0.8465720446037647;" x1="123.5995" x2="123.5995" y1="381.4799" y2="398.4114"/><polygon fill="#181818" points="120.2132,389.9456,123.5995,398.4114,126.9858,389.9456,123.5995,393.3319" style="stroke:#181818;stroke-width:0.8465720446037647;"/><line style="stroke:#181818;stroke-width:0.8465720446037647;" x1="123.5995" x2="123.5995" y1="291.0885" y2="311.7468"/><polygon fill="#181818" points="120.2132,303.2811,123.5995,311.7468,126.9858,303.2811,123.5995,306.6674" style="stroke:#181818;stroke-width:0.8465720446037647;"/><line style="stroke:#181818;stroke-width:0.8465720446037647;" x1="171.4308" x2="226.458" y1="280.9296" y2="280.9296"/><polygon fill="#181818" points="223.0717,358.6357,226.458,367.1014,229.8443,358.6357,226.458,362.022" style="stroke:#181818;stroke-width:0.8465720446037647;"/><line style="stroke:#181818;stroke-width:0.8465720446037647;" x1="226.458" x2="226.458" y1="280.9296" y2="445.8194"/><line style="stroke:#181818;stroke-width:0.8465720446037647;" x1="226.458" x2="133.7584" y1="445.8194" y2="445.8194"/><polygon fill="#181818" points="142.2241,442.4331,133.7584,445.8194,142.2241,449.2057,138.8378,445.8194" style="stroke:#181818;stroke-width:0.8465720446037647;"/><line style="stroke:#181818;stroke-width:0.8465720446037647;" x1="123.5995" x2="123.5995" y1="418.7291" y2="435.6605"/><polygon fill="#181818" points="120.2132,427.1948,123.5995,435.6605,126.9858,427.1948,123.5995,430.5811" style="stroke:#181818;stroke-width:0.8465720446037647;"/><line style="stroke:#181818;stroke-width:0.8465720446037647;" x1="123.5995" x2="123.5995" y1="253.8393" y2="270.7708"/><polygon fill="#181818" points="120.2132,262.3051,123.5995,270.7708,126.9858,262.3051,123.5995,265.6913" style="stroke:#181818;stroke-width:0.8465720446037647;"/><line style="stroke:#181818;stroke-width:0.8465720446037647;" x1="123.5995" x2="123.5995" y1="455.9783" y2="472.9097"/><polygon fill="#181818" points="120.2132,464.444,123.5995,472.9097,126.9858,464.444,123.5995,467.8303" style="stroke:#181818;stroke-width:0.8465720446037647;"/><!--SRC=[LOynJyGm38Nt_0flro8XTK52xO2uGmA6EtL0I8nkucl3fN4KkuZxzwIzYSts-zxJirWC18zDS_VGD4OKivhsXNueSA8idMaFFCzU0QE3jCW4bXsLywlNjsM0PwkUey3kWpa8z6WlED8Eldc0BQsWxx5C8K1CCpXA51r5wsaDtoy-k4r8DoSuL1mpN-vr3UoCFqErpnZj14SKfVnKWquKeVeYgJVvinGj9G139dHNe5ylAk0ZdFhZVvo2K7NYshJzCWHVtb5UASWq5bE-TgRKy-SDX8syxQAS_W00]--></g></svg>