<svg width="36" height="36" viewBox="0 0 36 36" fill="none" xmlns="http://www.w3.org/2000/svg">
<path opacity="0.4" d="M26.6315 16.3566V24.8588L24.5534 22.7994L19.595 17.9053L21.5268 16.0379L22.0317 14.4396C24.1426 17.226 24.2089 16.5466 24.2089 16.5466C24.2089 16.5466 25.2515 14.9902 26.589 16.3277L26.6315 16.3566Z" fill="#A2AEBA"/>
<path opacity="0.9" d="M17.8564 19.7728L25.1943 26.9922C25.1435 26.9974 25.0919 27 25.0398 27H10.715L17.8564 19.7728Z" fill="#48A7F3"/>
<path d="M20.7541 13.4622L9 25.4082V10.9604C9 10.0807 9.71286 9.36853 10.5919 9.36853H20.0954C19.6871 10.0698 21.2004 10.5199 21.2004 11.3899C21.2004 12.2657 20.3414 12.7577 20.7541 13.4622Z" fill="#50C587"/>
<path d="M26.6315 24.8589V25.4076C26.6315 26.2344 26.001 26.9138 25.1941 26.9917L17.8621 19.7562L19.6368 17.9576L23.733 21.9998L23.959 22.2232L26.6315 24.8589Z" fill="#F2F2F2"/>
<path d="M13.1587 15.8976C11.7601 15.8976 10.6222 14.7597 10.6222 13.361C10.6222 11.9623 11.7601 10.8245 13.1587 10.8245C13.8355 10.8245 14.4724 11.0885 14.9522 11.5676L14.3642 12.1555C14.0422 11.8335 13.614 11.6558 13.1587 11.6558C12.2186 11.6558 11.4535 12.4208 11.4535 13.361C11.4535 14.3012 12.2186 15.0662 13.1587 15.0662C13.9553 15.0662 14.6263 14.5169 14.8124 13.777H13.1587V12.945H15.6953V13.361C15.6953 14.7597 14.5574 15.8976 13.1587 15.8976Z" fill="white"/>
<path opacity="0.9" d="M21.5811 15.9877L19.637 17.9576L17.8622 19.7561L10.7149 27H10.5926C9.71359 27 9.00073 26.2871 9.00073 25.4081L20.1038 14.0912C20.3118 14.4474 21.7414 14.1511 22.0325 14.4396L22.5663 15.1261C22.8265 15.4036 21.357 15.6928 21.5811 15.9877Z" fill="#3397DB"/>
<path d="M20.0954 9.36847C20.919 7.95241 22.4529 7 24.2096 7C26.8363 7 28.9652 9.12892 28.9652 11.7556C28.9652 12.4144 28.8313 13.0416 28.5891 13.6121C28.347 14.1827 27.9967 14.6959 27.564 15.1261C27.2034 15.5092 26.8801 15.9143 26.5897 16.3277C24.6861 19.0394 24.2096 22.1356 24.2096 22.1356C24.2096 22.1356 23.6919 18.7741 21.581 15.9877C21.3569 15.6928 21.1154 15.4036 20.8546 15.1261H20.8552C20.5648 14.8376 20.3117 14.5118 20.1037 14.1556C19.691 13.4512 19.454 12.6308 19.454 11.7556C19.454 10.8856 19.6871 10.0697 20.0954 9.36847Z" fill="#2F965B"/>
<path d="M24.2096 9.22424C25.607 9.22424 26.7404 10.3576 26.7404 11.7556C26.7404 13.1537 25.6076 14.2864 24.2096 14.2864C22.8122 14.2864 21.6782 13.1537 21.6782 11.7556C21.6782 10.3576 22.8116 9.22424 24.2096 9.22424Z" fill="#50C587"/>
</svg>
