<svg width="36" height="36" viewBox="0 0 36 36" fill="none" xmlns="http://www.w3.org/2000/svg">
<path d="M18 28.8L25.464 24.7938L28 25.8264L18 31.1889L8 25.8264L10.5509 24.7938L18 28.8Z" fill="#A2AEBA"/>
<path d="M18 18.3299L27.0189 21.9604L18 26.4569L8.98112 21.9604L18 18.3299Z" fill="#CAD6E2"/>
<path fill-rule="evenodd" clip-rule="evenodd" d="M18 22C18 22 24 15.2167 24 11.9375C24 8.65831 21.3137 6 18 6C14.6863 6 12 8.65831 12 11.9375C12 15.2167 18 22 18 22ZM18 15C19.6569 15 21 13.6569 21 12C21 10.3431 19.6569 9 18 9C16.3431 9 15 10.3431 15 12C15 13.6569 16.3431 15 18 15Z" fill="#50C587"/>
</svg>
