<svg width="36" height="36" viewBox="0 0 36 36" fill="none" xmlns="http://www.w3.org/2000/svg">
<path d="M4.5746 9C4.9555 9.45578 12.1926 11.9474 14.6831 14.9859C17.2029 18.0245 18.287 20.7288 17.9354 23.3419C17.5838 25.9551 16.0309 25.8943 15.3863 26.8666C14.7124 27.8086 13.7748 28.9936 12.0168 28.8721C9.67281 28.7201 7.27021 27.5047 5.54151 23.3115C3.81281 19.1183 3.93001 15.1682 4.07651 12.9805C4.19371 10.7624 4.5746 9 4.5746 9Z" fill="#50C587"/>
<path d="M5 9.99403L16 26.3303L15.4946 26.8926L5 9.99403Z" fill="white"/>
<path d="M27.9838 6C27.6453 6.55377 19.8396 10.5488 17.5099 14.2868C15.1603 18.0445 14.5031 20.9914 15.3594 23.7602C16.2156 26.5291 17.8285 26.4104 18.7445 27.3202C19.6604 28.2299 20.9149 29.3375 22.9261 28.9024C25.5545 28.3091 28.0833 26.5686 29.3378 21.7034C30.5923 16.8381 29.7759 12.5661 29.2383 10.2126C28.7006 7.85909 27.9838 6 27.9838 6Z" fill="#CAD6E2"/>
<path d="M28 6L18 26.4379L18.5895 27L28 6Z" fill="#A2AEBA"/>
</svg>
