<svg width="36" height="36" viewBox="0 0 36 36" fill="none" xmlns="http://www.w3.org/2000/svg">
<path d="M31 28H5V9H31V28ZM6 27H30V10H6V27Z" fill="#CAD6E2"/>
<path d="M11 12H7V13H11V12Z" fill="#A2AEBA"/>
<path d="M19 12H12V13H19V12Z" fill="#50C587"/>
<path d="M26 12H20V13H26V12Z" fill="#48A7F3"/>
<path d="M29 12H27V13H29V12Z" fill="#A2AEBA"/>
<path d="M11 14H7V15H11V14Z" fill="#A2AEBA"/>
<path d="M19 14H12V15H19V14Z" fill="#50C587"/>
<path d="M26 14H20V15H26V14Z" fill="#48A7F3"/>
<path d="M29 14H27V15H29V14Z" fill="#A2AEBA"/>
<path d="M11 16H7V17H11V16Z" fill="#A2AEBA"/>
<path d="M19 16H12V17H19V16Z" fill="#50C587"/>
<path d="M26 16H20V17H26V16Z" fill="#48A7F3"/>
<path d="M29 16H27V17H29V16Z" fill="#A2AEBA"/>
<path d="M11 18H7V19H11V18Z" fill="#A2AEBA"/>
<path d="M19 18H12V19H19V18Z" fill="#50C587"/>
<path d="M26 18H20V19H26V18Z" fill="#48A7F3"/>
<path d="M29 18H27V19H29V18Z" fill="#A2AEBA"/>
<path d="M11 20H7V21H11V20Z" fill="#A2AEBA"/>
<path d="M19 20H12V21H19V20Z" fill="#50C587"/>
<path d="M26 20H20V21H26V20Z" fill="#48A7F3"/>
<path d="M29 20H27V21H29V20Z" fill="#A2AEBA"/>
<path d="M11 22H7V23H11V22Z" fill="#A2AEBA"/>
<path d="M19 22H12V23H19V22Z" fill="#50C587"/>
<path d="M26 22H20V23H26V22Z" fill="#48A7F3"/>
<path d="M29 22H27V23H29V22Z" fill="#A2AEBA"/>
<path d="M11 24H7V25H11V24Z" fill="#A2AEBA"/>
<path d="M19 24H12V25H19V24Z" fill="#50C587"/>
<path d="M26 24H20V25H26V24Z" fill="#48A7F3"/>
<path d="M29 24H27V25H29V24Z" fill="#A2AEBA"/>
</svg>
