<?xml version="1.0" encoding="UTF-8" standalone="no"?><svg xmlns="http://www.w3.org/2000/svg" xmlns:xlink="http://www.w3.org/1999/xlink" contentStyleType="text/css" height="500.2188px" preserveAspectRatio="none" style="width:511px;height:500px;background:#FFFFFF;" version="1.1" viewBox="0 0 511 500" width="511.7239px" zoomAndPan="magnify"><defs/><g><ellipse cx="359.6261" cy="10.0044" fill="#222222" rx="5.0022" ry="5.0022" style="stroke:#222222;stroke-width:0.5002188457450134;"/><rect fill="#F1F1F1" height="16.9918" rx="6.2527" ry="6.2527" style="stroke:#181818;stroke-width:0.2501094228725067;" width="45.0197" x="337.1162" y="25.0109"/><text fill="#000000" font-family="sans-serif" font-size="6.0026" lengthAdjust="spacing" textLength="35.0153" x="342.1184" y="35.5849">Developers</text><rect fill="#F1F1F1" height="16.9918" rx="6.2527" ry="6.2527" style="stroke:#181818;stroke-width:0.2501094228725067;" width="82.0359" x="318.6081" y="52.0071"/><text fill="#000000" font-family="sans-serif" font-size="6.0026" lengthAdjust="spacing" textLength="72.0315" x="323.6103" y="62.5811">Commit and push code</text><rect fill="#F1F1F1" height="16.9918" rx="6.2527" ry="6.2527" style="stroke:#181818;stroke-width:0.2501094228725067;" width="120.0525" x="299.5998" y="79.0033"/><text fill="#000000" font-family="sans-serif" font-size="6.0026" lengthAdjust="spacing" textLength="110.0481" x="304.602" y="89.5773">GitHub Actions 'Packages' job start</text><rect fill="#F1F1F1" height="16.9918" rx="6.2527" ry="6.2527" style="stroke:#181818;stroke-width:0.2501094228725067;" width="90.5396" x="314.3563" y="105.9995"/><text fill="#000000" font-family="sans-serif" font-size="6.0026" lengthAdjust="spacing" textLength="80.5352" x="319.3585" y="116.5735">Install npm dependencies</text><rect fill="#F1F1F1" height="16.9918" rx="6.2527" ry="6.2527" style="stroke:#181818;stroke-width:0.2501094228725067;" width="69.5304" x="324.8609" y="132.9957"/><text fill="#000000" font-family="sans-serif" font-size="6.0026" lengthAdjust="spacing" textLength="59.526" x="329.8631" y="143.5696">Build npm package</text><rect fill="#F1F1F1" height="16.9918" rx="6.2527" ry="6.2527" style="stroke:#181818;stroke-width:0.2501094228725067;" width="246.6079" x="236.3221" y="159.9919"/><text fill="#000000" font-family="sans-serif" font-size="6.0026" lengthAdjust="spacing" textLength="236.6035" x="241.3243" y="170.5658">Create test stand with latest Datagrok image (or bleeding-edge if required)</text><rect fill="#F1F1F1" height="16.9918" rx="6.2527" ry="6.2527" style="stroke:#181818;stroke-width:0.2501094228725067;" width="152.5667" x="283.3427" y="186.9881"/><text fill="#000000" font-family="sans-serif" font-size="6.0026" lengthAdjust="spacing" textLength="142.5624" x="288.3449" y="197.562">Publish package grok dependencies to stand</text><rect fill="#F1F1F1" height="16.9918" rx="6.2527" ry="6.2527" style="stroke:#181818;stroke-width:0.2501094228725067;" width="90.0394" x="314.6064" y="213.9842"/><text fill="#000000" font-family="sans-serif" font-size="6.0026" lengthAdjust="spacing" textLength="80.035" x="319.6086" y="224.5582">Publish package to stand</text><rect fill="#F1F1F1" height="16.9918" rx="6.2527" ry="6.2527" style="stroke:#181818;stroke-width:0.2501094228725067;" width="52.523" x="333.3646" y="240.9804"/><text fill="#000000" font-family="sans-serif" font-size="6.0026" lengthAdjust="spacing" textLength="42.5186" x="338.3668" y="251.5544">Test package</text><polygon fill="#F1F1F1" points="338.6169,267.9766,380.6353,267.9766,386.6379,273.9792,380.6353,279.9819,338.6169,279.9819,332.6143,273.9792,338.6169,267.9766" style="stroke:#181818;stroke-width:0.2501094228725067;"/><text fill="#000000" font-family="sans-serif" font-size="5.5024" lengthAdjust="spacing" textLength="42.0184" x="338.6169" y="275.8841">Tests passed?</text><text fill="#000000" font-family="sans-serif" font-size="5.5024" lengthAdjust="spacing" textLength="10.5046" x="322.1097" y="272.6816">Yes</text><text fill="#000000" font-family="sans-serif" font-size="5.5024" lengthAdjust="spacing" textLength="7.5033" x="386.6379" y="272.6816">No</text><rect fill="#F1F1F1" height="16.9918" rx="6.2527" ry="6.2527" style="stroke:#181818;stroke-width:0.2501094228725067;" width="109.5479" x="194.7727" y="284.9841"/><text fill="#000000" font-family="sans-serif" font-size="6.0026" lengthAdjust="spacing" textLength="99.5436" x="199.7749" y="295.558">Build Docker image for package</text><polygon fill="#F1F1F1" points="227.2869,311.9802,271.8064,311.9802,277.809,317.9829,271.8064,323.9855,227.2869,323.9855,221.2843,317.9829,227.2869,311.9802" style="stroke:#181818;stroke-width:0.2501094228725067;"/><text fill="#000000" font-family="sans-serif" font-size="5.5024" lengthAdjust="spacing" textLength="44.5195" x="227.2869" y="319.8878">Branch Master?</text><text fill="#000000" font-family="sans-serif" font-size="5.5024" lengthAdjust="spacing" textLength="10.5046" x="210.7797" y="316.6852">Yes</text><text fill="#000000" font-family="sans-serif" font-size="5.5024" lengthAdjust="spacing" textLength="7.5033" x="277.809" y="316.6852">No</text><polygon fill="#F1F1F1" points="90.1644,328.9877,177.7027,328.9877,183.7054,334.9903,177.7027,340.9929,90.1644,340.9929,84.1618,334.9903,90.1644,328.9877" style="stroke:#181818;stroke-width:0.2501094228725067;"/><text fill="#000000" font-family="sans-serif" font-size="5.5024" lengthAdjust="spacing" textLength="87.5383" x="90.1644" y="336.8952">Version already exists in NPM?</text><text fill="#000000" font-family="sans-serif" font-size="5.5024" lengthAdjust="spacing" textLength="10.5046" x="73.6572" y="333.6926">Yes</text><text fill="#000000" font-family="sans-serif" font-size="5.5024" lengthAdjust="spacing" textLength="7.5033" x="183.7054" y="333.6926">No</text><rect fill="#F1F1F1" height="16.9918" rx="6.2527" ry="6.2527" style="stroke:#181818;stroke-width:0.2501094228725067;" width="106.0464" x="5.5024" y="345.9951"/><text fill="#000000" font-family="sans-serif" font-size="6.0026" lengthAdjust="spacing" textLength="96.042" x="10.5046" y="356.5691">Save docker image to artifacts</text><rect fill="#F1F1F1" height="16.9918" rx="6.2527" ry="6.2527" style="stroke:#181818;stroke-width:0.2501094228725067;" width="82.0359" x="168.3236" y="345.9951"/><text fill="#000000" font-family="sans-serif" font-size="6.0026" lengthAdjust="spacing" textLength="72.0315" x="173.3258" y="356.5691">Publish to NPM registry</text><rect fill="#F1F1F1" height="16.9918" rx="6.2527" ry="6.2527" style="stroke:#181818;stroke-width:0.2501094228725067;" width="164.0718" x="127.3057" y="372.9913"/><text fill="#000000" font-family="sans-serif" font-size="6.0026" lengthAdjust="spacing" textLength="154.0674" x="132.3079" y="383.5653">Publish Docker image for package to Docker Hub</text><rect fill="#F1F1F1" height="16.9918" rx="6.2527" ry="6.2527" style="stroke:#181818;stroke-width:0.2501094228725067;" width="144.5632" x="137.06" y="399.9875"/><text fill="#000000" font-family="sans-serif" font-size="6.0026" lengthAdjust="spacing" textLength="134.5589" x="142.0622" y="410.5615">Upgrade package version in Meta package</text><rect fill="#F1F1F1" height="16.9918" rx="6.2527" ry="6.2527" style="stroke:#181818;stroke-width:0.2501094228725067;" width="175.5768" x="121.5532" y="426.9837"/><text fill="#000000" font-family="sans-serif" font-size="6.0026" lengthAdjust="spacing" textLength="165.5724" x="126.5554" y="437.5576">Publish new version of Meta package to NPM registry</text><polygon fill="#F1F1F1" points="133.9336,446.9768,139.9362,452.9794,133.9336,458.9821,127.931,452.9794,133.9336,446.9768" style="stroke:#181818;stroke-width:0.2501094228725067;"/><rect fill="#F1F1F1" height="16.9918" rx="6.2527" ry="6.2527" style="stroke:#181818;stroke-width:0.2501094228725067;" width="106.0464" x="312.1366" y="328.9877"/><text fill="#000000" font-family="sans-serif" font-size="6.0026" lengthAdjust="spacing" textLength="96.042" x="317.1387" y="339.5616">Save docker image to artifacts</text><polygon fill="#F1F1F1" points="249.5467,461.9834,255.5493,467.986,249.5467,473.9886,243.5441,467.986,249.5467,461.9834" style="stroke:#181818;stroke-width:0.2501094228725067;"/><rect fill="#F1F1F1" height="16.9918" rx="6.2527" ry="6.2527" style="stroke:#181818;stroke-width:0.2501094228725067;" width="73.032" x="433.1895" y="284.9841"/><text fill="#000000" font-family="sans-serif" font-size="6.0026" lengthAdjust="spacing" textLength="63.0276" x="438.1917" y="295.558">Notify the developer</text><ellipse cx="469.7055" cy="316.9824" fill="none" rx="5.0022" ry="5.0022" style="stroke:#222222;stroke-width:0.7503282686175201;"/><line style="stroke:#222222;stroke-width:1.2505471143625335;" x1="466.6105" x2="472.8004" y1="313.8875" y2="320.0774"/><line style="stroke:#222222;stroke-width:1.2505471143625335;" x1="472.8004" x2="466.6105" y1="313.8875" y2="320.0774"/><ellipse cx="359.6261" cy="489.4954" fill="none" rx="5.5024" ry="5.5024" style="stroke:#222222;stroke-width:0.5002188457450134;"/><ellipse cx="359.6261" cy="489.4954" fill="#222222" rx="3.0013" ry="3.0013" style="stroke:#111111;stroke-width:0.5002188457450134;"/><line style="stroke:#181818;stroke-width:0.5002188457450134;" x1="359.6261" x2="359.6261" y1="15.0066" y2="25.0109"/><polygon fill="#181818" points="357.6252,20.0088,359.6261,25.0109,361.627,20.0088,359.6261,22.0096" style="stroke:#181818;stroke-width:0.5002188457450134;"/><line style="stroke:#181818;stroke-width:0.5002188457450134;" x1="359.6261" x2="359.6261" y1="42.0028" y2="52.0071"/><polygon fill="#181818" points="357.6252,47.0049,359.6261,52.0071,361.627,47.0049,359.6261,49.0058" style="stroke:#181818;stroke-width:0.5002188457450134;"/><line style="stroke:#181818;stroke-width:0.5002188457450134;" x1="359.6261" x2="359.6261" y1="68.9989" y2="79.0033"/><polygon fill="#181818" points="357.6252,74.0011,359.6261,79.0033,361.627,74.0011,359.6261,76.002" style="stroke:#181818;stroke-width:0.5002188457450134;"/><line style="stroke:#181818;stroke-width:0.5002188457450134;" x1="359.6261" x2="359.6261" y1="95.9951" y2="105.9995"/><polygon fill="#181818" points="357.6252,100.9973,359.6261,105.9995,361.627,100.9973,359.6261,102.9982" style="stroke:#181818;stroke-width:0.5002188457450134;"/><line style="stroke:#181818;stroke-width:0.5002188457450134;" x1="359.6261" x2="359.6261" y1="122.9913" y2="132.9957"/><polygon fill="#181818" points="357.6252,127.9935,359.6261,132.9957,361.627,127.9935,359.6261,129.9944" style="stroke:#181818;stroke-width:0.5002188457450134;"/><line style="stroke:#181818;stroke-width:0.5002188457450134;" x1="359.6261" x2="359.6261" y1="149.9875" y2="159.9919"/><polygon fill="#181818" points="357.6252,154.9897,359.6261,159.9919,361.627,154.9897,359.6261,156.9906" style="stroke:#181818;stroke-width:0.5002188457450134;"/><line style="stroke:#181818;stroke-width:0.5002188457450134;" x1="359.6261" x2="359.6261" y1="176.9837" y2="186.9881"/><polygon fill="#181818" points="357.6252,181.9859,359.6261,186.9881,361.627,181.9859,359.6261,183.9867" style="stroke:#181818;stroke-width:0.5002188457450134;"/><line style="stroke:#181818;stroke-width:0.5002188457450134;" x1="359.6261" x2="359.6261" y1="203.9799" y2="213.9842"/><polygon fill="#181818" points="357.6252,208.9821,359.6261,213.9842,361.627,208.9821,359.6261,210.9829" style="stroke:#181818;stroke-width:0.5002188457450134;"/><line style="stroke:#181818;stroke-width:0.5002188457450134;" x1="359.6261" x2="359.6261" y1="230.9761" y2="240.9804"/><polygon fill="#181818" points="357.6252,235.9782,359.6261,240.9804,361.627,235.9782,359.6261,237.9791" style="stroke:#181818;stroke-width:0.5002188457450134;"/><line style="stroke:#181818;stroke-width:0.5002188457450134;" x1="209.3416" x2="209.3416" y1="362.9869" y2="372.9913"/><polygon fill="#181818" points="207.3407,367.9891,209.3416,372.9913,211.3425,367.9891,209.3416,369.99" style="stroke:#181818;stroke-width:0.5002188457450134;"/><line style="stroke:#181818;stroke-width:0.5002188457450134;" x1="209.3416" x2="209.3416" y1="389.9831" y2="399.9875"/><polygon fill="#181818" points="207.3407,394.9853,209.3416,399.9875,211.3425,394.9853,209.3416,396.9862" style="stroke:#181818;stroke-width:0.5002188457450134;"/><line style="stroke:#181818;stroke-width:0.5002188457450134;" x1="209.3416" x2="209.3416" y1="416.9793" y2="426.9837"/><polygon fill="#181818" points="207.3407,421.9815,209.3416,426.9837,211.3425,421.9815,209.3416,423.9824" style="stroke:#181818;stroke-width:0.5002188457450134;"/><line style="stroke:#181818;stroke-width:0.5002188457450134;" x1="84.1618" x2="58.5256" y1="334.9903" y2="334.9903"/><line style="stroke:#181818;stroke-width:0.5002188457450134;" x1="58.5256" x2="58.5256" y1="334.9903" y2="345.9951"/><polygon fill="#181818" points="56.5247,340.9929,58.5256,345.9951,60.5265,340.9929,58.5256,342.9938" style="stroke:#181818;stroke-width:0.5002188457450134;"/><line style="stroke:#181818;stroke-width:0.5002188457450134;" x1="183.7054" x2="209.3416" y1="334.9903" y2="334.9903"/><line style="stroke:#181818;stroke-width:0.5002188457450134;" x1="209.3416" x2="209.3416" y1="334.9903" y2="345.9951"/><polygon fill="#181818" points="207.3407,340.9929,209.3416,345.9951,211.3425,340.9929,209.3416,342.9938" style="stroke:#181818;stroke-width:0.5002188457450134;"/><line style="stroke:#181818;stroke-width:0.5002188457450134;" x1="58.5256" x2="58.5256" y1="362.9869" y2="452.9794"/><line style="stroke:#181818;stroke-width:0.5002188457450134;" x1="58.5256" x2="127.931" y1="452.9794" y2="452.9794"/><polygon fill="#181818" points="122.9288,450.9786,127.931,452.9794,122.9288,454.9803,124.9297,452.9794" style="stroke:#181818;stroke-width:0.5002188457450134;"/><line style="stroke:#181818;stroke-width:0.5002188457450134;" x1="209.3416" x2="209.3416" y1="443.9755" y2="452.9794"/><line style="stroke:#181818;stroke-width:0.5002188457450134;" x1="209.3416" x2="139.9362" y1="452.9794" y2="452.9794"/><polygon fill="#181818" points="144.9384,450.9786,139.9362,452.9794,144.9384,454.9803,142.9375,452.9794" style="stroke:#181818;stroke-width:0.5002188457450134;"/><line style="stroke:#181818;stroke-width:0.5002188457450134;" x1="221.2843" x2="133.9336" y1="317.9829" y2="317.9829"/><line style="stroke:#181818;stroke-width:0.5002188457450134;" x1="133.9336" x2="133.9336" y1="317.9829" y2="328.9877"/><polygon fill="#181818" points="131.9327,323.9855,133.9336,328.9877,135.9345,323.9855,133.9336,325.9864" style="stroke:#181818;stroke-width:0.5002188457450134;"/><line style="stroke:#181818;stroke-width:0.5002188457450134;" x1="277.809" x2="365.1598" y1="317.9829" y2="317.9829"/><line style="stroke:#181818;stroke-width:0.5002188457450134;" x1="365.1598" x2="365.1598" y1="317.9829" y2="328.9877"/><polygon fill="#181818" points="363.1589,323.9855,365.1598,328.9877,367.1606,323.9855,365.1598,325.9864" style="stroke:#181818;stroke-width:0.5002188457450134;"/><line style="stroke:#181818;stroke-width:0.5002188457450134;" x1="133.9336" x2="133.9336" y1="458.9821" y2="467.986"/><line style="stroke:#181818;stroke-width:0.5002188457450134;" x1="133.9336" x2="243.5441" y1="467.986" y2="467.986"/><polygon fill="#181818" points="238.5419,465.9851,243.5441,467.986,238.5419,469.9869,240.5427,467.986" style="stroke:#181818;stroke-width:0.5002188457450134;"/><line style="stroke:#181818;stroke-width:0.5002188457450134;" x1="365.1598" x2="365.1598" y1="345.9795" y2="467.986"/><line style="stroke:#181818;stroke-width:0.5002188457450134;" x1="365.1598" x2="255.5493" y1="467.986" y2="467.986"/><polygon fill="#181818" points="260.5515,465.9851,255.5493,467.986,260.5515,469.9869,258.5506,467.986" style="stroke:#181818;stroke-width:0.5002188457450134;"/><line style="stroke:#181818;stroke-width:0.5002188457450134;" x1="249.5467" x2="249.5467" y1="301.9759" y2="311.9802"/><polygon fill="#181818" points="247.5458,306.9781,249.5467,311.9802,251.5476,306.9781,249.5467,308.9789" style="stroke:#181818;stroke-width:0.5002188457450134;"/><line style="stroke:#181818;stroke-width:0.5002188457450134;" x1="469.7055" x2="469.7055" y1="301.9759" y2="311.9802"/><polygon fill="#181818" points="467.7046,306.9781,469.7055,311.9802,471.7064,306.9781,469.7055,308.9789" style="stroke:#181818;stroke-width:0.5002188457450134;"/><line style="stroke:#181818;stroke-width:0.5002188457450134;" x1="332.6143" x2="249.5467" y1="273.9792" y2="273.9792"/><line style="stroke:#181818;stroke-width:0.5002188457450134;" x1="249.5467" x2="249.5467" y1="273.9792" y2="284.9841"/><polygon fill="#181818" points="247.5458,279.9819,249.5467,284.9841,251.5476,279.9819,249.5467,281.9827" style="stroke:#181818;stroke-width:0.5002188457450134;"/><line style="stroke:#181818;stroke-width:0.5002188457450134;" x1="386.6379" x2="469.7055" y1="273.9792" y2="273.9792"/><line style="stroke:#181818;stroke-width:0.5002188457450134;" x1="469.7055" x2="469.7055" y1="273.9792" y2="284.9841"/><polygon fill="#181818" points="467.7046,279.9819,469.7055,284.9841,471.7064,279.9819,469.7055,281.9827" style="stroke:#181818;stroke-width:0.5002188457450134;"/><line style="stroke:#181818;stroke-width:0.5002188457450134;" x1="249.5467" x2="249.5467" y1="473.9886" y2="476.4897"/><line style="stroke:#181818;stroke-width:0.5002188457450134;" x1="249.5467" x2="359.6261" y1="476.4897" y2="476.4897"/><line style="stroke:#181818;stroke-width:0.5002188457450134;" x1="359.6261" x2="359.6261" y1="476.4897" y2="483.993"/><polygon fill="#181818" points="357.6252,478.9908,359.6261,483.993,361.627,478.9908,359.6261,480.9917" style="stroke:#181818;stroke-width:0.5002188457450134;"/><line style="stroke:#181818;stroke-width:0.5002188457450134;" x1="359.6261" x2="359.6261" y1="257.9722" y2="267.9766"/><polygon fill="#181818" points="357.6252,262.9744,359.6261,267.9766,361.627,262.9744,359.6261,264.9753" style="stroke:#181818;stroke-width:0.5002188457450134;"/><!--SRC=[XL9DJyCm3BtlL_X6YuIq2n8Q1yIO11msJU93ukWsRXkM9YLnD_RlSRfkT0F4hVBp-_1BGuw6u6eyFhySZqU1qVDeCgCr6TUG3zUZoPshQys0La7JXWfofqZ6zveVsWnkSzRE1ZXROhx2ai8PlBiCEY7PUhJoPGpOfWP53Lb5DjSKTQUjDge3cXqrUdb29c0A72N4SgEv0eFTP8QCfNShqBMiG-8yP8P8QLjUa9A9Bi3JHwizgLJKbcrcj2JkzQ7Z3bC0kvtDByi3w3cQ7qAAIH8dGKOXaBf9WIkoaBnHIFTdpLo-8jy7BIJe4NtgqUOLp34m-MD-X5-bU2aLq4WTQWlqgQETjh1Opa_idd1De8Pk4bowrmNcB3MJ2PGiNFfzeE0Y8qMLekgtWzF_2XqfFIPFBeINflIew82l-y2IS4wCWmVTIrlQ7BPSSRJrCv2yZowwvB2B_k-HfuI54smRYvBtxl_bRgrV3UoQBm00]--></g></svg>