<?xml version="1.0" encoding="UTF-8" standalone="no"?><svg xmlns="http://www.w3.org/2000/svg" xmlns:xlink="http://www.w3.org/1999/xlink" contentStyleType="text/css" height="700.3064px" preserveAspectRatio="none" style="width:716px;height:700px;background:#FFFFFF;" version="1.1" viewBox="0 0 716 700" width="716.4134px" zoomAndPan="magnify"><defs/><g><ellipse cx="503.4765" cy="14.0061" fill="#222222" rx="7.0031" ry="7.0031" style="stroke:#222222;stroke-width:0.7003063840430187;"/><rect fill="#F1F1F1" height="23.7885" rx="8.7538" ry="8.7538" style="stroke:#181818;stroke-width:0.35015319202150935;" width="63.0276" x="471.9627" y="35.0153"/><text fill="#000000" font-family="sans-serif" font-size="8.4037" lengthAdjust="spacing" textLength="49.0214" x="478.9658" y="49.8189">Developers</text><rect fill="#F1F1F1" height="23.7885" rx="8.7538" ry="8.7538" style="stroke:#181818;stroke-width:0.35015319202150935;" width="114.8502" x="446.0514" y="72.81"/><text fill="#000000" font-family="sans-serif" font-size="8.4037" lengthAdjust="spacing" textLength="100.8441" x="453.0545" y="87.6135">Commit and push code</text><rect fill="#F1F1F1" height="23.7885" rx="8.7538" ry="8.7538" style="stroke:#181818;stroke-width:0.35015319202150935;" width="168.0735" x="419.4398" y="110.6046"/><text fill="#000000" font-family="sans-serif" font-size="8.4037" lengthAdjust="spacing" textLength="154.0674" x="426.4428" y="125.4082">GitHub Actions 'Packages' job start</text><rect fill="#F1F1F1" height="23.7885" rx="8.7538" ry="8.7538" style="stroke:#181818;stroke-width:0.35015319202150935;" width="126.7555" x="440.0988" y="148.3993"/><text fill="#000000" font-family="sans-serif" font-size="8.4037" lengthAdjust="spacing" textLength="112.7493" x="447.1019" y="163.2028">Install npm dependencies</text><rect fill="#F1F1F1" height="23.7885" rx="8.7538" ry="8.7538" style="stroke:#181818;stroke-width:0.35015319202150935;" width="97.3426" x="454.8052" y="186.194"/><text fill="#000000" font-family="sans-serif" font-size="8.4037" lengthAdjust="spacing" textLength="83.3365" x="461.8083" y="200.9975">Build npm package</text><rect fill="#F1F1F1" height="23.7885" rx="8.7538" ry="8.7538" style="stroke:#181818;stroke-width:0.35015319202150935;" width="345.251" x="330.851" y="223.9886"/><text fill="#000000" font-family="sans-serif" font-size="8.4037" lengthAdjust="spacing" textLength="331.2449" x="337.8541" y="238.7922">Create test stand with latest Datagrok image (or bleeding-edge if required)</text><rect fill="#F1F1F1" height="23.7885" rx="8.7538" ry="8.7538" style="stroke:#181818;stroke-width:0.35015319202150935;" width="213.5934" x="396.6798" y="261.7833"/><text fill="#000000" font-family="sans-serif" font-size="8.4037" lengthAdjust="spacing" textLength="199.5873" x="403.6829" y="276.5868">Publish package grok dependencies to stand</text><rect fill="#F1F1F1" height="23.7885" rx="8.7538" ry="8.7538" style="stroke:#181818;stroke-width:0.35015319202150935;" width="126.0551" x="440.4489" y="299.5779"/><text fill="#000000" font-family="sans-serif" font-size="8.4037" lengthAdjust="spacing" textLength="112.049" x="447.452" y="314.3815">Publish package to stand</text><rect fill="#F1F1F1" height="23.7885" rx="8.7538" ry="8.7538" style="stroke:#181818;stroke-width:0.35015319202150935;" width="73.5322" x="466.7104" y="337.3726"/><text fill="#000000" font-family="sans-serif" font-size="8.4037" lengthAdjust="spacing" textLength="59.526" x="473.7135" y="352.1761">Test package</text><polygon fill="#F1F1F1" points="474.0637,375.1673,532.8894,375.1673,541.2931,383.5709,532.8894,391.9746,474.0637,391.9746,465.66,383.5709,474.0637,375.1673" style="stroke:#181818;stroke-width:0.35015319202150935;"/><text fill="#000000" font-family="sans-serif" font-size="7.7034" lengthAdjust="spacing" textLength="58.8257" x="474.0637" y="386.2378">Tests passed?</text><text fill="#000000" font-family="sans-serif" font-size="7.7034" lengthAdjust="spacing" textLength="14.7064" x="450.9535" y="381.7542">Yes</text><text fill="#000000" font-family="sans-serif" font-size="7.7034" lengthAdjust="spacing" textLength="10.5046" x="541.2931" y="381.7542">No</text><rect fill="#F1F1F1" height="23.7885" rx="8.7538" ry="8.7538" style="stroke:#181818;stroke-width:0.35015319202150935;" width="153.3671" x="272.6818" y="398.9777"/><text fill="#000000" font-family="sans-serif" font-size="8.4037" lengthAdjust="spacing" textLength="139.361" x="279.6849" y="413.7812">Build Docker image for package</text><polygon fill="#F1F1F1" points="318.2017,436.7723,380.529,436.7723,388.9327,445.176,380.529,453.5797,318.2017,453.5797,309.798,445.176,318.2017,436.7723" style="stroke:#181818;stroke-width:0.35015319202150935;"/><text fill="#000000" font-family="sans-serif" font-size="7.7034" lengthAdjust="spacing" textLength="62.3273" x="318.2017" y="447.8429">Branch Master?</text><text fill="#000000" font-family="sans-serif" font-size="7.7034" lengthAdjust="spacing" textLength="14.7064" x="295.0916" y="443.3593">Yes</text><text fill="#000000" font-family="sans-serif" font-size="7.7034" lengthAdjust="spacing" textLength="10.5046" x="388.9327" y="443.3593">No</text><polygon fill="#F1F1F1" points="126.2302,460.5828,248.7838,460.5828,257.1875,468.9864,248.7838,477.3901,126.2302,477.3901,117.8265,468.9864,126.2302,460.5828" style="stroke:#181818;stroke-width:0.35015319202150935;"/><text fill="#000000" font-family="sans-serif" font-size="7.7034" lengthAdjust="spacing" textLength="122.5536" x="126.2302" y="471.6533">Version already exists in NPM?</text><text fill="#000000" font-family="sans-serif" font-size="7.7034" lengthAdjust="spacing" textLength="14.7064" x="103.1201" y="467.1697">Yes</text><text fill="#000000" font-family="sans-serif" font-size="7.7034" lengthAdjust="spacing" textLength="10.5046" x="257.1875" y="467.1697">No</text><rect fill="#F1F1F1" height="23.7885" rx="8.7538" ry="8.7538" style="stroke:#181818;stroke-width:0.35015319202150935;" width="148.465" x="7.7034" y="484.3932"/><text fill="#000000" font-family="sans-serif" font-size="8.4037" lengthAdjust="spacing" textLength="134.4588" x="14.7064" y="499.1967">Save docker image to artifacts</text><rect fill="#F1F1F1" height="23.7885" rx="8.7538" ry="8.7538" style="stroke:#181818;stroke-width:0.35015319202150935;" width="114.8502" x="235.6531" y="484.3932"/><text fill="#000000" font-family="sans-serif" font-size="8.4037" lengthAdjust="spacing" textLength="100.8441" x="242.6562" y="499.1967">Publish to NPM registry</text><rect fill="#F1F1F1" height="23.7885" rx="8.7538" ry="8.7538" style="stroke:#181818;stroke-width:0.35015319202150935;" width="229.7005" x="178.228" y="522.1878"/><text fill="#000000" font-family="sans-serif" font-size="8.4037" lengthAdjust="spacing" textLength="215.6944" x="185.231" y="536.9914">Publish Docker image for package to Docker Hub</text><rect fill="#F1F1F1" height="23.7885" rx="8.7538" ry="8.7538" style="stroke:#181818;stroke-width:0.35015319202150935;" width="202.3885" x="191.8839" y="559.9825"/><text fill="#000000" font-family="sans-serif" font-size="8.4037" lengthAdjust="spacing" textLength="188.3824" x="198.887" y="574.786">Upgrade package version in Meta package</text><rect fill="#F1F1F1" height="23.7885" rx="8.7538" ry="8.7538" style="stroke:#181818;stroke-width:0.35015319202150935;" width="245.8075" x="170.1745" y="597.7772"/><text fill="#000000" font-family="sans-serif" font-size="8.4037" lengthAdjust="spacing" textLength="231.8014" x="177.1775" y="612.5807">Publish new version of Meta package to NPM registry</text><polygon fill="#F1F1F1" points="187.507,625.7675,195.9107,634.1712,187.507,642.5749,179.1034,634.1712,187.507,625.7675" style="stroke:#181818;stroke-width:0.35015319202150935;"/><rect fill="#F1F1F1" height="23.7885" rx="8.7538" ry="8.7538" style="stroke:#181818;stroke-width:0.35015319202150935;" width="148.465" x="436.9912" y="460.5828"/><text fill="#000000" font-family="sans-serif" font-size="8.4037" lengthAdjust="spacing" textLength="134.4588" x="443.9942" y="475.3863">Save docker image to artifacts</text><polygon fill="#F1F1F1" points="349.3653,646.7767,357.769,655.1804,349.3653,663.5841,340.9617,655.1804,349.3653,646.7767" style="stroke:#181818;stroke-width:0.35015319202150935;"/><rect fill="#F1F1F1" height="23.7885" rx="8.7538" ry="8.7538" style="stroke:#181818;stroke-width:0.35015319202150935;" width="102.2447" x="606.4653" y="398.9777"/><text fill="#000000" font-family="sans-serif" font-size="8.4037" lengthAdjust="spacing" textLength="88.2386" x="613.4684" y="413.7812">Notify the developer</text><ellipse cx="657.5877" cy="443.7754" fill="none" rx="7.0031" ry="7.0031" style="stroke:#222222;stroke-width:1.0504595760645281;"/><line style="stroke:#222222;stroke-width:1.7507659601075467;" x1="653.2548" x2="661.9206" y1="439.4425" y2="448.1083"/><line style="stroke:#222222;stroke-width:1.7507659601075467;" x1="661.9206" x2="653.2548" y1="439.4425" y2="448.1083"/><ellipse cx="503.4765" cy="685.2936" fill="none" rx="7.7034" ry="7.7034" style="stroke:#222222;stroke-width:0.7003063840430187;"/><ellipse cx="503.4765" cy="685.2936" fill="#222222" rx="4.2018" ry="4.2018" style="stroke:#111111;stroke-width:0.7003063840430187;"/><line style="stroke:#181818;stroke-width:0.7003063840430187;" x1="503.4765" x2="503.4765" y1="21.0092" y2="35.0153"/><polygon fill="#181818" points="500.6753,28.0123,503.4765,35.0153,506.2777,28.0123,503.4765,30.8135" style="stroke:#181818;stroke-width:0.7003063840430187;"/><line style="stroke:#181818;stroke-width:0.7003063840430187;" x1="503.4765" x2="503.4765" y1="58.8039" y2="72.81"/><polygon fill="#181818" points="500.6753,65.8069,503.4765,72.81,506.2777,65.8069,503.4765,68.6081" style="stroke:#181818;stroke-width:0.7003063840430187;"/><line style="stroke:#181818;stroke-width:0.7003063840430187;" x1="503.4765" x2="503.4765" y1="96.5985" y2="110.6046"/><polygon fill="#181818" points="500.6753,103.6016,503.4765,110.6046,506.2777,103.6016,503.4765,106.4028" style="stroke:#181818;stroke-width:0.7003063840430187;"/><line style="stroke:#181818;stroke-width:0.7003063840430187;" x1="503.4765" x2="503.4765" y1="134.3932" y2="148.3993"/><polygon fill="#181818" points="500.6753,141.3962,503.4765,148.3993,506.2777,141.3962,503.4765,144.1975" style="stroke:#181818;stroke-width:0.7003063840430187;"/><line style="stroke:#181818;stroke-width:0.7003063840430187;" x1="503.4765" x2="503.4765" y1="172.1878" y2="186.194"/><polygon fill="#181818" points="500.6753,179.1909,503.4765,186.194,506.2777,179.1909,503.4765,181.9921" style="stroke:#181818;stroke-width:0.7003063840430187;"/><line style="stroke:#181818;stroke-width:0.7003063840430187;" x1="503.4765" x2="503.4765" y1="209.9825" y2="223.9886"/><polygon fill="#181818" points="500.6753,216.9856,503.4765,223.9886,506.2777,216.9856,503.4765,219.7868" style="stroke:#181818;stroke-width:0.7003063840430187;"/><line style="stroke:#181818;stroke-width:0.7003063840430187;" x1="503.4765" x2="503.4765" y1="247.7772" y2="261.7833"/><polygon fill="#181818" points="500.6753,254.7802,503.4765,261.7833,506.2777,254.7802,503.4765,257.5814" style="stroke:#181818;stroke-width:0.7003063840430187;"/><line style="stroke:#181818;stroke-width:0.7003063840430187;" x1="503.4765" x2="503.4765" y1="285.5718" y2="299.5779"/><polygon fill="#181818" points="500.6753,292.5749,503.4765,299.5779,506.2777,292.5749,503.4765,295.3761" style="stroke:#181818;stroke-width:0.7003063840430187;"/><line style="stroke:#181818;stroke-width:0.7003063840430187;" x1="503.4765" x2="503.4765" y1="323.3665" y2="337.3726"/><polygon fill="#181818" points="500.6753,330.3695,503.4765,337.3726,506.2777,330.3695,503.4765,333.1708" style="stroke:#181818;stroke-width:0.7003063840430187;"/><line style="stroke:#181818;stroke-width:0.7003063840430187;" x1="293.0782" x2="293.0782" y1="508.1817" y2="522.1878"/><polygon fill="#181818" points="290.277,515.1848,293.0782,522.1878,295.8794,515.1848,293.0782,517.986" style="stroke:#181818;stroke-width:0.7003063840430187;"/><line style="stroke:#181818;stroke-width:0.7003063840430187;" x1="293.0782" x2="293.0782" y1="545.9764" y2="559.9825"/><polygon fill="#181818" points="290.277,552.9794,293.0782,559.9825,295.8794,552.9794,293.0782,555.7807" style="stroke:#181818;stroke-width:0.7003063840430187;"/><line style="stroke:#181818;stroke-width:0.7003063840430187;" x1="293.0782" x2="293.0782" y1="583.771" y2="597.7772"/><polygon fill="#181818" points="290.277,590.7741,293.0782,597.7772,295.8794,590.7741,293.0782,593.5753" style="stroke:#181818;stroke-width:0.7003063840430187;"/><line style="stroke:#181818;stroke-width:0.7003063840430187;" x1="117.8265" x2="81.9358" y1="468.9864" y2="468.9864"/><line style="stroke:#181818;stroke-width:0.7003063840430187;" x1="81.9358" x2="81.9358" y1="468.9864" y2="484.3932"/><polygon fill="#181818" points="79.1346,477.3901,81.9358,484.3932,84.7371,477.3901,81.9358,480.1913" style="stroke:#181818;stroke-width:0.7003063840430187;"/><line style="stroke:#181818;stroke-width:0.7003063840430187;" x1="257.1875" x2="293.0782" y1="468.9864" y2="468.9864"/><line style="stroke:#181818;stroke-width:0.7003063840430187;" x1="293.0782" x2="293.0782" y1="468.9864" y2="484.3932"/><polygon fill="#181818" points="290.277,477.3901,293.0782,484.3932,295.8794,477.3901,293.0782,480.1913" style="stroke:#181818;stroke-width:0.7003063840430187;"/><line style="stroke:#181818;stroke-width:0.7003063840430187;" x1="81.9358" x2="81.9358" y1="508.1817" y2="634.1712"/><line style="stroke:#181818;stroke-width:0.7003063840430187;" x1="81.9358" x2="179.1034" y1="634.1712" y2="634.1712"/><polygon fill="#181818" points="172.1003,631.37,179.1034,634.1712,172.1003,636.9724,174.9015,634.1712" style="stroke:#181818;stroke-width:0.7003063840430187;"/><line style="stroke:#181818;stroke-width:0.7003063840430187;" x1="293.0782" x2="293.0782" y1="621.5657" y2="634.1712"/><line style="stroke:#181818;stroke-width:0.7003063840430187;" x1="293.0782" x2="195.9107" y1="634.1712" y2="634.1712"/><polygon fill="#181818" points="202.9138,631.37,195.9107,634.1712,202.9138,636.9724,200.1125,634.1712" style="stroke:#181818;stroke-width:0.7003063840430187;"/><line style="stroke:#181818;stroke-width:0.7003063840430187;" x1="309.798" x2="187.507" y1="445.176" y2="445.176"/><line style="stroke:#181818;stroke-width:0.7003063840430187;" x1="187.507" x2="187.507" y1="445.176" y2="460.5828"/><polygon fill="#181818" points="184.7058,453.5797,187.507,460.5828,190.3083,453.5797,187.507,456.3809" style="stroke:#181818;stroke-width:0.7003063840430187;"/><line style="stroke:#181818;stroke-width:0.7003063840430187;" x1="388.9327" x2="511.2237" y1="445.176" y2="445.176"/><line style="stroke:#181818;stroke-width:0.7003063840430187;" x1="511.2237" x2="511.2237" y1="445.176" y2="460.5828"/><polygon fill="#181818" points="508.4224,453.5797,511.2237,460.5828,514.0249,453.5797,511.2237,456.3809" style="stroke:#181818;stroke-width:0.7003063840430187;"/><line style="stroke:#181818;stroke-width:0.7003063840430187;" x1="187.507" x2="187.507" y1="642.5749" y2="655.1804"/><line style="stroke:#181818;stroke-width:0.7003063840430187;" x1="187.507" x2="340.9617" y1="655.1804" y2="655.1804"/><polygon fill="#181818" points="333.9586,652.3792,340.9617,655.1804,333.9586,657.9816,336.7598,655.1804" style="stroke:#181818;stroke-width:0.7003063840430187;"/><line style="stroke:#181818;stroke-width:0.7003063840430187;" x1="511.2237" x2="511.2237" y1="484.3713" y2="655.1804"/><line style="stroke:#181818;stroke-width:0.7003063840430187;" x1="511.2237" x2="357.769" y1="655.1804" y2="655.1804"/><polygon fill="#181818" points="364.7721,652.3792,357.769,655.1804,364.7721,657.9816,361.9709,655.1804" style="stroke:#181818;stroke-width:0.7003063840430187;"/><line style="stroke:#181818;stroke-width:0.7003063840430187;" x1="349.3653" x2="349.3653" y1="422.7662" y2="436.7723"/><polygon fill="#181818" points="346.5641,429.7693,349.3653,436.7723,352.1666,429.7693,349.3653,432.5705" style="stroke:#181818;stroke-width:0.7003063840430187;"/><line style="stroke:#181818;stroke-width:0.7003063840430187;" x1="657.5877" x2="657.5877" y1="422.7662" y2="436.7723"/><polygon fill="#181818" points="654.7865,429.7693,657.5877,436.7723,660.3889,429.7693,657.5877,432.5705" style="stroke:#181818;stroke-width:0.7003063840430187;"/><line style="stroke:#181818;stroke-width:0.7003063840430187;" x1="465.66" x2="349.3653" y1="383.5709" y2="383.5709"/><line style="stroke:#181818;stroke-width:0.7003063840430187;" x1="349.3653" x2="349.3653" y1="383.5709" y2="398.9777"/><polygon fill="#181818" points="346.5641,391.9746,349.3653,398.9777,352.1666,391.9746,349.3653,394.7758" style="stroke:#181818;stroke-width:0.7003063840430187;"/><line style="stroke:#181818;stroke-width:0.7003063840430187;" x1="541.2931" x2="657.5877" y1="383.5709" y2="383.5709"/><line style="stroke:#181818;stroke-width:0.7003063840430187;" x1="657.5877" x2="657.5877" y1="383.5709" y2="398.9777"/><polygon fill="#181818" points="654.7865,391.9746,657.5877,398.9777,660.3889,391.9746,657.5877,394.7758" style="stroke:#181818;stroke-width:0.7003063840430187;"/><line style="stroke:#181818;stroke-width:0.7003063840430187;" x1="349.3653" x2="349.3653" y1="663.5841" y2="667.0856"/><line style="stroke:#181818;stroke-width:0.7003063840430187;" x1="349.3653" x2="503.4765" y1="667.0856" y2="667.0856"/><line style="stroke:#181818;stroke-width:0.7003063840430187;" x1="503.4765" x2="503.4765" y1="667.0856" y2="677.5902"/><polygon fill="#181818" points="500.6753,670.5871,503.4765,677.5902,506.2777,670.5871,503.4765,673.3884" style="stroke:#181818;stroke-width:0.7003063840430187;"/><line style="stroke:#181818;stroke-width:0.7003063840430187;" x1="503.4765" x2="503.4765" y1="361.1611" y2="375.1673"/><polygon fill="#181818" points="500.6753,368.1642,503.4765,375.1673,506.2777,368.1642,503.4765,370.9654" style="stroke:#181818;stroke-width:0.7003063840430187;"/><!--SRC=[XL9DJyCm3BtlL_X6YuIq6sWS46CISDWqYG-9ezkuRLYQbCJTsB_7wRhH3H2toi_lmoyDEHg2g_7u_78y7WL6pwF9ZDPaN4C-N8ycTwwkDGDQ1KqRAiYT8XdVQtveCxZDMJiRu6o9-GfB2cVmxZBeX6JhqSgNCM2R6XGrP1NPN5FKdRRQg0veTjJevGcPW2bmb13BZUOA37QJ6JAMtgr0rx8EYVEG6IAbRNb1IYQw04yVhVQaKb5RjfdHahZNXuuxJ07iTZQ_B0-WvsX-22acIPm46OL0wYO5hiX2yaOXtPyrS_cAV1-qaA17zAb7crSmny3aZ_aHVfNYfLH08tMeBT2dZdRQmc8vFx5xmZM16hf9SEbU5vYpr4mcKB9mwVU1WekC55MAgjyEJlyhTAJqc3ov45wQqgEY0xxk0ql2EJ4E7dGlRMbps7B5qTRFGF8-kkYImoxwlqUU4XPEi6qiIjwx_vUxjNuri6k-0000]--></g></svg>
