<?xml version="1.0" encoding="UTF-8" standalone="no"?><svg xmlns="http://www.w3.org/2000/svg" xmlns:xlink="http://www.w3.org/1999/xlink" contentStyleType="text/css" height="500.3241px" preserveAspectRatio="none" style="width:231px;height:500px;background:#FFFFFF;" version="1.1" viewBox="0 0 231 500" width="231.9607px" zoomAndPan="magnify"><defs/><g><ellipse cx="107.5146" cy="16.9314" fill="#222222" rx="8.4657" ry="8.4657" style="stroke:#222222;stroke-width:0.8465720446037647;"/><rect fill="#F1F1F1" height="28.757" rx="10.5822" ry="10.5822" style="stroke:#181818;stroke-width:0.42328602230188234;" width="76.1915" x="69.4189" y="42.3286"/><text fill="#000000" font-family="sans-serif" font-size="10.1589" lengthAdjust="spacing" textLength="59.26" x="77.8846" y="60.224">Developers</text><rect fill="#F1F1F1" height="28.757" rx="10.5822" ry="10.5822" style="stroke:#181818;stroke-width:0.42328602230188234;" width="138.8378" x="38.0957" y="88.017"/><text fill="#000000" font-family="sans-serif" font-size="10.1589" lengthAdjust="spacing" textLength="121.9064" x="46.5615" y="105.9124">Commit and push code</text><rect fill="#F1F1F1" height="28.757" rx="10.5822" ry="10.5822" style="stroke:#181818;stroke-width:0.42328602230188234;" width="196.4047" x="9.3123" y="133.7055"/><text fill="#000000" font-family="sans-serif" font-size="10.1589" lengthAdjust="spacing" textLength="179.4733" x="17.778" y="151.6009">GitHub Actions 'Libraries' job start</text><rect fill="#F1F1F1" height="28.757" rx="10.5822" ry="10.5822" style="stroke:#181818;stroke-width:0.42328602230188234;" width="153.2295" x="30.8999" y="179.3939"/><text fill="#000000" font-family="sans-serif" font-size="10.1589" lengthAdjust="spacing" textLength="136.2981" x="39.3656" y="197.2893">Install npm dependencies</text><rect fill="#F1F1F1" height="28.757" rx="10.5822" ry="10.5822" style="stroke:#181818;stroke-width:0.42328602230188234;" width="104.1284" x="55.4505" y="225.0823"/><text fill="#000000" font-family="sans-serif" font-size="10.1589" lengthAdjust="spacing" textLength="87.1969" x="63.9162" y="242.9778">Build npm library</text><rect fill="#F1F1F1" height="28.757" rx="10.5822" ry="10.5822" style="stroke:#181818;stroke-width:0.42328602230188234;" width="138.8378" x="38.0957" y="352.7229"/><text fill="#000000" font-family="sans-serif" font-size="10.1589" lengthAdjust="spacing" textLength="121.9064" x="46.5615" y="370.6183">Publish to NPM registry</text><polygon fill="#F1F1F1" points="33.4396,311.7468,181.5897,311.7468,191.7486,321.9057,181.5897,332.0646,33.4396,332.0646,23.2807,321.9057,33.4396,311.7468" style="stroke:#181818;stroke-width:0.42328602230188234;"/><text fill="#000000" font-family="sans-serif" font-size="9.3123" lengthAdjust="spacing" textLength="12.6986" x="110.9009" y="340.7085">No</text><text fill="#000000" font-family="sans-serif" font-size="9.3123" lengthAdjust="spacing" textLength="148.1501" x="33.4396" y="325.1295">Version already exists in NPM?</text><text fill="#000000" font-family="sans-serif" font-size="9.3123" lengthAdjust="spacing" textLength="17.778" x="191.7486" y="319.7095">Yes</text><polygon fill="#F1F1F1" points="107.5146,398.4114,117.6735,408.5702,107.5146,418.7291,97.3558,408.5702,107.5146,398.4114" style="stroke:#181818;stroke-width:0.42328602230188234;"/><polygon fill="#F1F1F1" points="69.8422,270.7708,145.1871,270.7708,155.346,280.9296,145.1871,291.0885,69.8422,291.0885,59.6833,280.9296,69.8422,270.7708" style="stroke:#181818;stroke-width:0.42328602230188234;"/><text fill="#000000" font-family="sans-serif" font-size="9.3123" lengthAdjust="spacing" textLength="17.778" x="110.9009" y="299.7324">Yes</text><text fill="#000000" font-family="sans-serif" font-size="9.3123" lengthAdjust="spacing" textLength="75.3449" x="69.8422" y="284.1535">Branch Master?</text><text fill="#000000" font-family="sans-serif" font-size="9.3123" lengthAdjust="spacing" textLength="12.6986" x="155.346" y="278.7334">No</text><polygon fill="#F1F1F1" points="107.5146,435.6605,117.6735,445.8194,107.5146,455.9783,97.3558,445.8194,107.5146,435.6605" style="stroke:#181818;stroke-width:0.42328602230188234;"/><ellipse cx="107.5146" cy="482.222" fill="none" rx="9.3123" ry="9.3123" style="stroke:#222222;stroke-width:0.8465720446037647;"/><ellipse cx="107.5146" cy="482.222" fill="#222222" rx="5.0794" ry="5.0794" style="stroke:#111111;stroke-width:0.8465720446037647;"/><line style="stroke:#181818;stroke-width:0.8465720446037647;" x1="107.5146" x2="107.5146" y1="25.3972" y2="42.3286"/><polygon fill="#181818" points="104.1284,33.8629,107.5146,42.3286,110.9009,33.8629,107.5146,37.2492" style="stroke:#181818;stroke-width:0.8465720446037647;"/><line style="stroke:#181818;stroke-width:0.8465720446037647;" x1="107.5146" x2="107.5146" y1="71.0856" y2="88.017"/><polygon fill="#181818" points="104.1284,79.5513,107.5146,88.017,110.9009,79.5513,107.5146,82.9376" style="stroke:#181818;stroke-width:0.8465720446037647;"/><line style="stroke:#181818;stroke-width:0.8465720446037647;" x1="107.5146" x2="107.5146" y1="116.774" y2="133.7055"/><polygon fill="#181818" points="104.1284,125.2398,107.5146,133.7055,110.9009,125.2398,107.5146,128.626" style="stroke:#181818;stroke-width:0.8465720446037647;"/><line style="stroke:#181818;stroke-width:0.8465720446037647;" x1="107.5146" x2="107.5146" y1="162.4625" y2="179.3939"/><polygon fill="#181818" points="104.1284,170.9282,107.5146,179.3939,110.9009,170.9282,107.5146,174.3145" style="stroke:#181818;stroke-width:0.8465720446037647;"/><line style="stroke:#181818;stroke-width:0.8465720446037647;" x1="107.5146" x2="107.5146" y1="208.1509" y2="225.0823"/><polygon fill="#181818" points="104.1284,216.6166,107.5146,225.0823,110.9009,216.6166,107.5146,220.0029" style="stroke:#181818;stroke-width:0.8465720446037647;"/><line style="stroke:#181818;stroke-width:0.8465720446037647;" x1="107.5146" x2="107.5146" y1="332.0646" y2="352.7229"/><polygon fill="#181818" points="104.1284,344.2572,107.5146,352.7229,110.9009,344.2572,107.5146,347.6435" style="stroke:#181818;stroke-width:0.8465720446037647;"/><line style="stroke:#181818;stroke-width:0.8465720446037647;" x1="191.7486" x2="201.9074" y1="321.9057" y2="321.9057"/><polygon fill="#181818" points="198.5211,358.6357,201.9074,367.1014,205.2937,358.6357,201.9074,362.022" style="stroke:#181818;stroke-width:0.8465720446037647;"/><line style="stroke:#181818;stroke-width:0.8465720446037647;" x1="201.9074" x2="201.9074" y1="321.9057" y2="408.5702"/><line style="stroke:#181818;stroke-width:0.8465720446037647;" x1="201.9074" x2="117.6735" y1="408.5702" y2="408.5702"/><polygon fill="#181818" points="126.1392,405.1839,117.6735,408.5702,126.1392,411.9565,122.7529,408.5702" style="stroke:#181818;stroke-width:0.8465720446037647;"/><line style="stroke:#181818;stroke-width:0.8465720446037647;" x1="107.5146" x2="107.5146" y1="381.4799" y2="398.4114"/><polygon fill="#181818" points="104.1284,389.9456,107.5146,398.4114,110.9009,389.9456,107.5146,393.3319" style="stroke:#181818;stroke-width:0.8465720446037647;"/><line style="stroke:#181818;stroke-width:0.8465720446037647;" x1="107.5146" x2="107.5146" y1="291.0885" y2="311.7468"/><polygon fill="#181818" points="104.1284,303.2811,107.5146,311.7468,110.9009,303.2811,107.5146,306.6674" style="stroke:#181818;stroke-width:0.8465720446037647;"/><line style="stroke:#181818;stroke-width:0.8465720446037647;" x1="155.346" x2="210.3732" y1="280.9296" y2="280.9296"/><polygon fill="#181818" points="206.9869,358.6357,210.3732,367.1014,213.7594,358.6357,210.3732,362.022" style="stroke:#181818;stroke-width:0.8465720446037647;"/><line style="stroke:#181818;stroke-width:0.8465720446037647;" x1="210.3732" x2="210.3732" y1="280.9296" y2="445.8194"/><line style="stroke:#181818;stroke-width:0.8465720446037647;" x1="210.3732" x2="117.6735" y1="445.8194" y2="445.8194"/><polygon fill="#181818" points="126.1392,442.4331,117.6735,445.8194,126.1392,449.2057,122.7529,445.8194" style="stroke:#181818;stroke-width:0.8465720446037647;"/><line style="stroke:#181818;stroke-width:0.8465720446037647;" x1="107.5146" x2="107.5146" y1="418.7291" y2="435.6605"/><polygon fill="#181818" points="104.1284,427.1948,107.5146,435.6605,110.9009,427.1948,107.5146,430.5811" style="stroke:#181818;stroke-width:0.8465720446037647;"/><line style="stroke:#181818;stroke-width:0.8465720446037647;" x1="107.5146" x2="107.5146" y1="253.8393" y2="270.7708"/><polygon fill="#181818" points="104.1284,262.3051,107.5146,270.7708,110.9009,262.3051,107.5146,265.6913" style="stroke:#181818;stroke-width:0.8465720446037647;"/><line style="stroke:#181818;stroke-width:0.8465720446037647;" x1="107.5146" x2="107.5146" y1="455.9783" y2="472.9097"/><polygon fill="#181818" points="104.1284,464.444,107.5146,472.9097,110.9009,464.444,107.5146,467.8303" style="stroke:#181818;stroke-width:0.8465720446037647;"/><!--SRC=[LOwnJWCn44HxVyLqkQEw1WbT2aH00YGIfKAYzDaRRf7FjhnxAFdxEAQYszrvipFYR20y3CFT_J0OKLlKZ2_qIo5bAh8rutDQ5bROw95NcU6Iftf-PNrR9pmvvHG5cm-UYYrCii5Fcj0-LUmzrYa4nBp0KwReARfALMctSl1D2CrxsHe-eTiL6zsClHMbyjX3PuhelaZw9d_MLZKHDXIo_W8wiwY08mx7_N-SWb1tIBqPZ-iKk7RNTADGwBkQRe6r3vyQY4R-xQ8fNm40]--></g></svg>